ProbingRamza.sfdir
StartChar: exclam
Encoding: 33 33 348
Width: 728
Flags: W
HStem: 533 20G<62.0794 92 212.324 276> 574 14<617.916 638.56> 586 21G<52 94.4161>
VStem: 100 25<116 453.595> 340 25<23 660.595> 459 39<364.59 473.373>
LayerCount: 2
Back
SplineSet
636 588 m 5xdc
 641 574 l 5
 582 560 498 519 498 426 c 7
 498 348 574.698717949 301.270282452 668 266.015625 c 5
 668 246.015625 l 5
 621 190 l 5
 527 222.085577098 459 298.595703125 459 385.630859375 c 7
 459 513 557 576 636 588 c 5xdc
EndSplineSet
Fore
SplineSet
365 23 m 1x9c
 340 23 l 1
 340 609 l 2
 340 648 335 663 306 674.599609375 c 2
 270 689 l 1
 270 697 l 1
 317 760 l 1
 332 754 l 2
 357 744 380 727 380 700 c 3
 380 675 365 650 365 551 c 1
 365 23 l 1x9c
636 588 m 1xdc
 641 574 l 1
 582 560 498 519 498 426 c 3
 498 348 570 310 623 284 c 1
 636 209 l 1
 621 190 l 1
 527 222.085577098 459 298.595703125 459 385.630859375 c 3
 459 513 557 576 636 588 c 1xdc
621 209 m 5
 621 190 l 1
 508 184 367 114 367 -45 c 1
 358 -45 l 1
 298 19.6669921875 l 1
 404 164.666992188 516 200 621 209 c 5
62 676.200195312 m 2
 30 689 l 1
 30 697 l 1
 77 760 l 1
 92 754 l 2
 117 744 140 727 140 700 c 3
 140 675 115.802919708 640 73.029296875 586 c 1xbc
 52 598 l 1
 76 632 90.3447265625 664.862304688 62 676.200195312 c 2
125 116 m 1
 100 116 l 1
 100 402 l 2
 100 441 95 456 66 467.6 c 2
 30 482 l 1
 30 490 l 1
 77 553 l 1
 92 547 l 2
 117 537 140 520 140 493 c 3
 140 468 125 443 125 344 c 1
 125 116 l 1
242 355 m 1
 170 385 l 1
 170 393 l 1
 228 467 l 1
 300 437 l 1
 300 429 l 1
 242 355 l 1
242 162 m 1
 170 192 l 1
 170 197 l 0
 170 200 l 1
 228 274 l 1
 300 244 l 1
 300 236 l 1
 242 162 l 1
EndSplineSet
EndChar
StartChar: comma
Encoding: 44 44 347
Width: 200
Flags: W
HStem: 533 20G<62.0794 92>
VStem: 100 25<116 453.595>
LayerCount: 2
Back
SplineSet
125 136 m 1
 100 136 l 1
 100 394 l 1
 30 422 l 1
 30 430 l 1
 77 493 l 1
 92 487 l 2
 117 476 140 460.018554688 140 433 c 3
 140 407.8203125 125 383 125 284 c 1
 125 136 l 1
95 145.999023438 m 1
 70 145.999023438 l 1
 70 483 l 25
 95 483 l 25
 95 145.999023438 l 1
EndSplineSet
Fore
SplineSet
125 116 m 1
 100 116 l 1
 100 402 l 2
 100 441 95 456 66 467.6 c 2
 30 482 l 1
 30 490 l 1
 77 553 l 1
 92 547 l 2
 117 537 140 520 140 493 c 3
 140 468 125 443 125 344 c 1
 125 116 l 1
EndSplineSet
EndChar
StartChar: hyphen
Encoding: 45 45 9
Width: 250
Flags: W
HStem: 235 33<40 210>
VStem: 40 170<235 268>
LayerCount: 2
Fore
SplineSet
40 235 m 25
 40 268 l 25
 210 268 l 25
 210 235 l 25
 40 235 l 25
EndSplineSet
EndChar
StartChar: period
Encoding: 46 46 286
Width: 360
Flags: W
HStem: 533 20G<62.0794 92 212.324 276>
VStem: 100 25<116 453.595>
LayerCount: 2
Back
SplineSet
125 136 m 1
 100 136 l 1
 100 394 l 1
 30 422 l 1
 30 430 l 1
 77 493 l 1
 92 487 l 2
 117 476 140 460.018554688 140 433 c 3
 140 407.8203125 125 383 125 284 c 1
 125 136 l 1
125 136 m 1
 100 136 l 1
 100 394 l 1
 30 422 l 1
 30 430 l 1
 77 493 l 1
 156 461 l 1
 156 453 l 1
 141 432 125.000976562 364 125.000976562 284 c 1
 125 284.004882812 l 1
 125 136 l 1
70 380 m 1
 -8.0009765625 412 l 1
 -8.0009765625 420 l 1
 49.9990234375 494 l 1x60
 121.999023438 464 l 1
 128 454 l 1
 70 380 l 1
70.0068359375 336 m 3
 70.0068359375 415.025390625 68 476 18 490 c 1
 23 503 l 1
 106 490 147 466.064453125 147 435 c 3
 147 372 94.9990234375 372 94.9990234375 177.407226562 c 9
 95 125.999023438 l 1xa0
 70 125.999023438 l 1
 70 125.999023438 70.0068359375 208.6875 70.0068359375 336 c 3
EndSplineSet
Fore
SplineSet
125 116 m 1
 100 116 l 1
 100 402 l 2
 100 441 95 456 66 467.6 c 2
 30 482 l 1
 30 490 l 1
 77 553 l 1
 92 547 l 2
 117 537 140 520 140 493 c 3
 140 468 125 443 125 344 c 1
 125 116 l 1
242 355 m 1
 170 385 l 1
 170 393 l 1
 228 467 l 1
 300 437 l 1
 300 429 l 1
 242 355 l 1
242 162 m 1
 188 184 l 1
 170 192 l 1
 170 200 l 1
 228 274 l 1
 300 244 l 1
 300 236 l 1
 242 162 l 1
EndSplineSet
EndChar
StartChar: one
Encoding: 49 49 350
Width: 220
Flags: W
HStem: 146 298
VStem: 66 88<146 444> 78 64<146.156 433.359>
LayerCount: 2
Back
SplineSet
142 236 m 6xa0
 142 216 145 172.642578125 154 164 c 5
 154 154 l 5
 138 144 126 142 112 142 c 7
 99 142 82 144 66 154 c 5
 66 164 l 5xc0
 75 172.642578125 78 215 78 236 c 6
 78 354 l 6xa0
 78 377 76 416 66 426 c 5
 66 436 l 5
 82 446 94 448 108 448 c 7
 122 448 138 446 154 436 c 5
 154 426 l 5xc0
 143 413 142 374 142 354 c 6
 142 236 l 6xa0
305 370 m 1xf780
 296.388351207 360.328298249 281.364257812 336.806640625 272 329 c 1
 266 335 l 1
 246.696289062 319.912109375 224.175904016 305 203 305 c 3
 159 305 119 327.985351562 119 371.92578125 c 3
 119 412.0234375 154 444 225 444 c 3
 311 444 413 424 534 424 c 1xf780
 526 404 l 1xfb80
 417 404 324 424 243 424 c 3
 207.973632812 424 194 407.921875 194 394 c 3
 194 379.834960938 205.798828125 369 228.95703125 369 c 3
 254.110351562 369 280 377 319 402 c 1
 305 370 l 1xf780
344 395 m 1
 288 317 257 250 269 198 c 1
 247.877929688 170 211 146 157 146 c 0
 92 146 44 193.846679688 44 248 c 3
 44 273 48 294 59 314 c 1
 163 284 l 1
 163 276 l 1
 100 240 79 224 79 211 c 3
 79 197 95 191 116 191 c 3
 148 191 184 218 272 338 c 2
 298 374 l 2
 305 383 312 392 319 402 c 1
 344 402 l 1
 344 395 l 1
401.390243902 331 m 2
 487 448 l 1
 579 410 l 1
 579 402 l 1
 553 385 495 309 450 245 c 0
 414.061523438 193.887695312 404 153 404 107 c 3
 404 42 470 -48 687 -236 c 1
 681 -242 l 1
 614 -215 l 1
 595 -194 544.466796875 -138.545898438 453 -45 c 0
 365 45 322 107 322 157 c 3
 322 210 350.015055073 260.787241933 401.390243902 331 c 2
EndSplineSet
Fore
SplineSet
142 246 m 6xa0
 142 226 145 164.642578125 154 156 c 1
 154 146 l 1
 66 146 l 1
 66 156 l 1xc0
 75 164.642578125 78 225 78 246 c 6
 78 344 l 2xa0
 78 367 76 424 66 434 c 1
 66 444 l 1
 154 444 l 1
 154 434 l 1xc0
 143 421 142 364 142 344 c 2
 142 246 l 6xa0
EndSplineSet
MultipleSubs2: "x10e9-1" one.digit x00below
MultipleSubs2: "x10e8-1" one.digit x0below
MultipleSubs2: "x000000-1" one.digit x00above x00above x00above
MultipleSubs2: "x00000-1" one.digit x00above x00above x0above
MultipleSubs2: "x0000-1" one.digit x00above x00above
MultipleSubs2: "x000-1" one.digit x00above x0above
MultipleSubs2: "x00-1" one.digit x00above
MultipleSubs2: "x0-1" one.digit x0above
EndChar
StartChar: two
Encoding: 50 50 351
Width: 340
Flags: W
HStem: 146 298
VStem: 66 88<146 444> 78 64<146.156 433.359> 186 88<146 444> 198 64<146.156 433.359>
LayerCount: 2
Fore
SplineSet
262 246 m 6x88
 262 226 265 164.642578125 274 156 c 1
 274 146 l 1
 186 146 l 1
 186 156 l 1x90
 195 164.642578125 198 225 198 246 c 6
 198 344 l 2x88
 198 367 196 424 186 434 c 1
 186 444 l 1
 274 444 l 1
 274 434 l 1x90
 263 421 262 364 262 344 c 2
 262 246 l 6x88
142 246 m 6xa0
 142 226 145 164.642578125 154 156 c 1
 154 146 l 1
 66 146 l 1
 66 156 l 1xc0
 75 164.642578125 78 225 78 246 c 6
 78 344 l 2xa0
 78 367 76 424 66 434 c 1
 66 444 l 1
 154 444 l 1
 154 434 l 1xc0
 143 421 142 364 142 344 c 2
 142 246 l 6xa0
EndSplineSet
MultipleSubs2: "x10e9-1" two.digit x00below
MultipleSubs2: "x10e8-1" two.digit x0below
MultipleSubs2: "x000000-1" two.digit x00above x00above x00above
MultipleSubs2: "x00000-1" two.digit x00above x00above x0above
MultipleSubs2: "x0000-1" two.digit x00above x00above
MultipleSubs2: "x000-1" two.digit x00above x0above
MultipleSubs2: "x00-1" two.digit x00above
MultipleSubs2: "x0-1" two.digit x0above
EndChar
StartChar: three
Encoding: 51 51 352
Width: 460
Flags: W
HStem: 146 298
VStem: 66 88<146 444> 78 64<146.156 433.359> 186 88<146 444> 198 64<146.156 433.359> 306 88<146 444> 318 64<146.156 433.359>
LayerCount: 2
Fore
SplineSet
382 246 m 6x82
 382 226 385 164.642578125 394 156 c 1
 394 146 l 1
 306 146 l 1
 306 156 l 1x84
 315 164.642578125 318 225 318 246 c 6
 318 344 l 2x82
 318 367 316 424 306 434 c 1
 306 444 l 1
 394 444 l 1
 394 434 l 1x84
 383 421 382 364 382 344 c 2
 382 246 l 6x82
262 246 m 6x88
 262 226 265 164.642578125 274 156 c 1
 274 146 l 1
 186 146 l 1
 186 156 l 1x90
 195 164.642578125 198 225 198 246 c 6
 198 344 l 2x88
 198 367 196 424 186 434 c 1
 186 444 l 1
 274 444 l 1
 274 434 l 1x90
 263 421 262 364 262 344 c 2
 262 246 l 6x88
142 246 m 6xa0
 142 226 145 164.642578125 154 156 c 1
 154 146 l 1
 66 146 l 1
 66 156 l 1xc0
 75 164.642578125 78 225 78 246 c 6
 78 344 l 2xa0
 78 367 76 424 66 434 c 1
 66 444 l 1
 154 444 l 1
 154 434 l 1xc0
 143 421 142 364 142 344 c 2
 142 246 l 6xa0
EndSplineSet
MultipleSubs2: "x10e9-1" three.digit x00below
MultipleSubs2: "x10e8-1" three.digit x0below
MultipleSubs2: "x000000-1" three.digit x00above x00above x00above
MultipleSubs2: "x00000-1" three.digit x00above x00above x0above
MultipleSubs2: "x0000-1" three.digit x00above x00above
MultipleSubs2: "x000-1" three.digit x00above x0above
MultipleSubs2: "x00-1" three.digit x00above
MultipleSubs2: "x0-1" three.digit x0above
EndChar
StartChar: four
Encoding: 52 52 358
Width: 460
Flags: W
HStem: 146 21G<186 274> 370 78<56.001 404.001> 382 54<66.6495 403.845>
VStem: 186 88<146 334> 198 64<146.156 333.844>
LayerCount: 2
Fore
SplineSet
262 236 m 2x88
 262 216 265 164.642578125 274 156 c 1
 274 146 l 1
 186 146 l 1
 186 156 l 1x90
 195 164.642578125 198 215 198 236 c 2
 198 244 l 2x88
 198 267 196 314 186 324 c 1
 186 334 l 1
 274 334 l 1
 274 324 l 1x90
 263 311 262 264 262 244 c 2
 262 236 l 2x88
294.000976562 436 m 6xa0
 314.000976562 436 385.358398438 439 394.000976562 448 c 1
 404.000976562 448 l 1
 404.000976562 370 l 1
 394.000976562 370 l 1xc0
 385.358398438 379 315.000976562 382 294.000976562 382 c 6
 166.000976562 382 l 2xa0
 143.000976562 382 76.0009765625 380 66.0009765625 370 c 1
 56.0009765625 370 l 1
 56.0009765625 448 l 1
 66.0009765625 448 l 1xc0
 79.0009765625 437 146.000976562 436 166.000976562 436 c 2
 294.000976562 436 l 6xa0
EndSplineSet
MultipleSubs2: "x10e9-1" four.digit x00below
MultipleSubs2: "x10e8-1" four.digit x0below
MultipleSubs2: "x000000-1" four.digit x00above x00above x00above
MultipleSubs2: "x00000-1" four.digit x00above x00above x0above
MultipleSubs2: "x0000-1" four.digit x00above x00above
MultipleSubs2: "x000-1" four.digit x00above x0above
MultipleSubs2: "x00-1" four.digit x00above
MultipleSubs2: "x0-1" four.digit x0above
EndChar
StartChar: five
Encoding: 53 53 357
Width: 460
Flags: W
HStem: 146 21G<66 154 306 394> 370 78<56.001 404.001> 382 54<66.6495 403.845>
VStem: 66 88<146 334> 78 64<146.156 333.844> 306 88<146 334> 318 64<146.156 333.844>
LayerCount: 2
Fore
SplineSet
382 236 m 2x82
 382 216 385 164.642578125 394 156 c 1
 394 146 l 1
 306 146 l 1
 306 156 l 1x84
 315 164.642578125 318 215 318 236 c 2
 318 244 l 2x82
 318 267 316 314 306 324 c 1
 306 334 l 1
 394 334 l 1
 394 324 l 1x84
 383 311 382 264 382 244 c 2
 382 236 l 2x82
142 236 m 2x88
 142 216 145 164.642578125 154 156 c 1
 154 146 l 1
 66 146 l 1
 66 156 l 1x90
 75 164.642578125 78 215 78 236 c 2
 78 244 l 2x88
 78 267 76 314 66 324 c 1
 66 334 l 1
 154 334 l 1
 154 324 l 1x90
 143 311 142 264 142 244 c 2
 142 236 l 2x88
294.000976562 436 m 6xa0
 314.000976562 436 385.358398438 439 394.000976562 448 c 1
 404.000976562 448 l 1
 404.000976562 370 l 1
 394.000976562 370 l 1xc0
 385.358398438 379 315.000976562 382 294.000976562 382 c 6
 166.000976562 382 l 2xa0
 143.000976562 382 76.0009765625 380 66.0009765625 370 c 1
 56.0009765625 370 l 1
 56.0009765625 448 l 1
 66.0009765625 448 l 1xc0
 79.0009765625 437 146.000976562 436 166.000976562 436 c 2
 294.000976562 436 l 6xa0
EndSplineSet
MultipleSubs2: "x10e9-1" five.digit x00below
MultipleSubs2: "x10e8-1" five.digit x0below
MultipleSubs2: "x000000-1" five.digit x00above x00above x00above
MultipleSubs2: "x00000-1" five.digit x00above x00above x0above
MultipleSubs2: "x0000-1" five.digit x00above x00above
MultipleSubs2: "x000-1" five.digit x00above x0above
MultipleSubs2: "x00-1" five.digit x00above
MultipleSubs2: "x0-1" five.digit x0above
EndChar
StartChar: eight
Encoding: 56 56 356
Width: 460
Flags: W
HStem: 146 21G<66 154 306 394> 260 78<56.001 404.001> 272 54<66.6495 403.845> 370 78<56.001 404.001> 382 54<66.6495 403.845>
VStem: 66 88<146 224> 306 88<146 224>
LayerCount: 2
Fore
SplineSet
394 156 m 1x86
 394 146 l 1
 306 146 l 1
 306 156 l 1
 315.928710938 165.137695312 315.125976562 204.874023438 306 214 c 1
 306 224 l 1
 394 224 l 1
 394 214 l 1
 385.204101562 201.786132812 384.853515625 164.306640625 394 156 c 1x86
294.000976562 326 m 6xa6
 314.000976562 326 385.358398438 329 394.000976562 338 c 1
 404.000976562 338 l 1
 404.000976562 260 l 1
 394.000976562 260 l 1xc6
 385.358398438 269 315.000976562 272 294.000976562 272 c 6
 166.000976562 272 l 2xa6
 143.000976562 272 76.0009765625 270 66.0009765625 260 c 1
 56.0009765625 260 l 1
 56.0009765625 338 l 1
 66.0009765625 338 l 1xc6
 79.0009765625 327 146.000976562 326 166.000976562 326 c 2
 294.000976562 326 l 6xa6
294.000976562 436 m 6x8e
 314.000976562 436 385.358398438 439 394.000976562 448 c 1
 404.000976562 448 l 1
 404.000976562 370 l 1
 394.000976562 370 l 1x96
 385.358398438 379 315.000976562 382 294.000976562 382 c 6
 166.000976562 382 l 2x8e
 143.000976562 382 76.0009765625 380 66.0009765625 370 c 1
 56.0009765625 370 l 1
 56.0009765625 448 l 1
 66.0009765625 448 l 1x96
 79.0009765625 437 146.000976562 436 166.000976562 436 c 2
 294.000976562 436 l 6x8e
154 156 m 1
 154 146 l 1
 66 146 l 1
 66 156 l 1
 75.9287109375 165.137695312 75.1259765625 204.874023438 66 214 c 1
 66 224 l 1
 154 224 l 1
 154 214 l 1
 145.204101562 201.786132812 144.853515625 164.306640625 154 156 c 1
EndSplineSet
MultipleSubs2: "x10e9-1" eight.digit x00below
MultipleSubs2: "x10e8-1" eight.digit x0below
MultipleSubs2: "x000000-1" eight.digit x00above x00above x00above
MultipleSubs2: "x00000-1" eight.digit x00above x00above x0above
MultipleSubs2: "x0000-1" eight.digit x00above x00above
MultipleSubs2: "x000-1" eight.digit x00above x0above
MultipleSubs2: "x00-1" eight.digit x00above
MultipleSubs2: "x0-1" eight.digit x0above
EndChar
StartChar: question
Encoding: 63 63 346
Width: 728
Flags: W
HStem: 532.998 20G<62.0794 92 212.324 276 332.079 362>
VStem: 100 25<116 453.595> 370 25<115.998 307 343.998 453.593>
LayerCount: 2
Back
SplineSet
406.926757812 277 m 5
 415.02734375 299.376953125 427.659179688 322.104492188 445.627929688 345 c 4
 491.146484375 403 563 423.697265625 633.627929688 396 c 4
 735.627929688 356 739.505859375 268.09765625 698.627929688 217 c 4
 662.627929688 172 606.80078125 172.416015625 556.627929688 193 c 4
 517.627929688 209 502.627929688 236 502.627929688 262 c 7
 502.627929688 289 512.627929688 305 526.627929688 317 c 5
 606.627929688 285 l 5
 606.627929688 277 l 5
 565.627929688 260 534.47265625 224.672851562 561.627929688 212 c 4
 576.627929688 205 592.986328125 209.724609375 620.627929688 246 c 4
 667 306.857421875 653.09375 359.219726562 609 378 c 4
 574 392.907226562 503.795898438 394 457.727539062 333 c 4
 441.74609375 311.837890625 430.008789062 290.365234375 422 269 c 5
 406.926757812 277 l 5
425 135.998046875 m 5
 400 135.998046875 l 5
 400 393.998046875 l 5
 330 421.998046875 l 5
 330 429.998046875 l 5
 377 492.998046875 l 5
 392 486.998046875 l 6
 417.344726562 476.860351562 440 460.016601562 440 432.998046875 c 7
 440 407.818359375 425 382.998046875 425 283.998046875 c 5
 425 135.998046875 l 5
125 136 m 5
 100 136 l 5
 100 394 l 5
 30 422 l 5
 30 430 l 5
 77 493 l 5
 92 487 l 6
 117.344726562 476.862304688 140 460.018554688 140 433 c 7
 140 407.8203125 125 383 125 284 c 5
 125 136 l 5
242 355 m 5
 170 385 l 5
 170 393 l 5
 228 467 l 5
 300 437 l 5
 300 429 l 5
 242 355 l 5
242 162 m 5
 188 184 l 5
 170 192 l 5
 170 200 l 5
 228 274 l 5
 300 244 l 5
 300 236 l 5
 242 162 l 5
346.926757812 347 m 1x70
 355.02734375 369.376953125 367.659179688 392.104492188 385.627929688 415 c 0
 431.146484375 473 503 493.697265625 573.627929688 466 c 0
 675.627929688 426 679.505859375 338.09765625 638.627929688 287 c 0
 602.627929688 242 546.80078125 242.416015625 496.627929688 263 c 0
 457.627929688 279 442.627929688 306 442.627929688 332 c 3
 442.627929688 359 452.627929688 375 466.627929688 387 c 1
 546.627929688 355 l 1
 546.627929688 347 l 1
 505.627929688 330 474.47265625 294.672851562 501.627929688 282 c 0
 516.627929688 275 532.986328125 279.724609375 560.627929688 316 c 0
 607 376.857421875 593.09375 429.219726562 549 448 c 0
 514 462.907226562 443.795898438 464 397.727539062 403 c 0
 381.74609375 381.837890625 370.008789062 360.365234375 362 339 c 1
 346.926757812 347 l 1x70
365 135.998046875 m 1
 340 135.998046875 l 1
 340 603.998046875 l 1
 270 631.998046875 l 1
 270 639.998046875 l 1
 317 702.998046875 l 1
 332 696.998046875 l 2
 357.344726562 686.860351562 380 670.016601562 380 642.998046875 c 3
 380 617.818359375 365 592.998046875 365 493.998046875 c 1
 365 135.998046875 l 1
125 136 m 1
 100 136 l 1
 100 604 l 1
 30 632 l 1
 30 640 l 1
 77 703 l 1xb0
 92 697 l 2
 117.344726562 686.862304688 140 670.018554688 140 643 c 3
 140 617.8203125 125 593 125 494 c 1
 125 136 l 1
242 415 m 1x70
 170 445 l 1
 170 453 l 1
 228 527 l 1
 300 497 l 1
 300 489 l 1
 242 415 l 1x70
242 222 m 1
 188 244 l 1
 170 252 l 1
 170 260 l 1
 228 334 l 1
 300 304 l 1
 300 296 l 1
 242 222 l 1
EndSplineSet
Fore
SplineSet
395 115.998046875 m 1
 370 115.998046875 l 1
 370 401.998046875 l 2
 370 440.998046875 365 455.998046875 336 467.59765625 c 2
 300 481.998046875 l 1
 300 489.998046875 l 1
 347 552.998046875 l 1
 362 546.998046875 l 2
 387 536.998046875 410 519.998046875 410 492.998046875 c 3
 410 467.998046875 395 442.998046875 395 343.998046875 c 1
 395 115.998046875 l 1
125 116 m 1
 100 116 l 1
 100 402 l 2
 100 441 95 456 66 467.6 c 2
 30 482 l 1
 30 490 l 1
 77 553 l 1
 92 547 l 2
 117 537 140 520 140 493 c 3
 140 468 125 443 125 344 c 1
 125 116 l 1
376.926757812 307 m 1
 385.02734375 329.376953125 397.659179688 352.104492188 415.627929688 375 c 0
 461.146484375 433 533 453.697265625 603.627929688 426 c 0
 705.627929688 386 709.505859375 298.09765625 668.627929688 247 c 0
 632.627929688 202 576.80078125 202.416015625 526.627929688 223 c 0
 487.627929688 239 472.627929688 266 472.627929688 292 c 3
 472.627929688 319 482.627929688 335 496.627929688 347 c 1
 576.627929688 315 l 1
 576.627929688 307 l 1
 535.627929688 290 504.47265625 254.672851562 531.627929688 242 c 0
 546.627929688 235 562.986328125 239.724609375 590.627929688 276 c 0
 624.916992188 321 607.09375 381.341796875 563 400.122070312 c 0
 528 415.029296875 473.794921875 424.000976562 427.727539062 363 c 0
 411.74609375 341.837890625 400.008789062 320.365234375 392 299 c 1
 376.926757812 307 l 1
242 355 m 1
 170 385 l 1
 170 393 l 1
 228 467 l 1
 300 437 l 1
 300 429 l 1
 242 355 l 1
242 162 m 1
 170 192 l 1
 170 197 l 0
 170 200 l 1
 228 274 l 1
 300 244 l 1
 300 236 l 1
 242 162 l 1
EndSplineSet
EndChar
StartChar: A
Encoding: 65 65 14
Width: 250
Flags: W
HStem: 219.001 112
VStem: 60 130
LayerCount: 2
Back
SplineSet
100 247 m 5
 174 241 l 5
 121.94140625 177 113 153.036132812 113 107 c 7
 113 41.9638671875 183 -48 400 -236 c 5
 394 -242 l 5
 327 -215.068359375 l 5
 308 -194.102539062 257.31640625 -139.326171875 166 -45 c 4
 78.4698522359 45.4151192682 54 86.9658203125 54 132 c 7
 54 181.008789062 73 213 100 247 c 5
344 0 m 7
 263 0 203 34 163.510742188 70.419921875 c 5
 172 82 l 5
 198 69 237.956054688 60 276 60 c 7
 343.655273438 60 395.913085938 88.376953125 449 161 c 6
 574 332 l 6
 657.309187358 445.966968306 668 572.778320312 341 690.778320312 c 5
 347 702.778320312 l 5
 944 512.778320312 708.749051231 461.557595711 587 304 c 6
 570 282 l 6
 515.012695312 210.83984375 479 133 489 70 c 5
 448 25 400.072265625 0 344 0 c 7
154 -113.572265625 m 5
 278 -235 l 5
 271 -241 l 5
 33 -77 l 5
 38 -66 l 5
 154 -113.572265625 l 5
-0 145.998046875 m 5
 -90 190.998046875 l 5
 -82 205.998046875 l 5
 -18 205.998046875 42.2783203125 212.828125 97 284 c 6
 161.584960938 368 l 5
 254.431640625 330 l 5
 253.584960938 319 l 5
 227.000976562 298.805664062 205 279 174 241 c 4
 124.905276333 180.819370989 66 145.998046875 -0 145.998046875 c 5
EndSplineSet
Fore
SplineSet
132 219.000976562 m 1
 60 249 l 1
 60 257 l 1
 118 331.000976562 l 1
 190 301.001953125 l 1
 190 293.001953125 l 1
 132 219.000976562 l 1
EndSplineSet
MultipleSubs2: "breakcapital-1" headermark a
EndChar
StartChar: C
Encoding: 67 67 18
Width: 250
Flags: W
HStem: 219.001 112
VStem: 60 130
LayerCount: 2
Back
SplineSet
386 378 m 1
 106.879882812 378 l 1
 38 461 l 1
 47 473 l 1
 90 451 110 444 150 444 c 1
 429.120117188 444 l 1
 498 361 l 1
 489 349 l 1
 445.76403776 371.796150145 426 378 386 378 c 1
EndSplineSet
Fore
SplineSet
132 219.000976562 m 1
 60 249 l 1
 60 257 l 1
 118 331.000976562 l 1
 190 301.001953125 l 1
 190 293.001953125 l 1
 132 219.000976562 l 1
EndSplineSet
MultipleSubs2: "breakcapital-1" headermark c
EndChar
StartChar: I
Encoding: 73 73 328
Width: 250
Flags: W
HStem: 219.001 112
VStem: 60 130
LayerCount: 2
Fore
SplineSet
132 219.000976562 m 1
 60 249 l 1
 60 257 l 1
 118 331.000976562 l 1
 190 301.001953125 l 1
 190 293.001953125 l 1
 132 219.000976562 l 1
EndSplineSet
MultipleSubs2: "breakcapital-1" headermark i
EndChar
StartChar: K
Encoding: 75 75 329
Width: 250
Flags: W
HStem: 219.001 112
VStem: 60 130
LayerCount: 2
Fore
SplineSet
132 219.000976562 m 5
 60 249 l 5
 60 257 l 5
 118 331.000976562 l 5
 190 301.001953125 l 5
 190 293.001953125 l 5
 132 219.000976562 l 5
EndSplineSet
MultipleSubs2: "breakcapital-1" headermark k
EndChar
StartChar: M
Encoding: 77 77 12
Width: 250
Flags: W
HStem: 219.001 112
VStem: 60 130
LayerCount: 2
Back
SplineSet
670 598 m 21
 690 668 l 5
 812 668 l 5
 813 660 l 5
 780 653 748.928007715 629.972621022 750 588 c 6
 763 79 l 6
 764.097515911 36.0280308582 796 15 828 8 c 5
 827 0 l 5
 623 0 l 5
 622 8 l 5
 664 15 684.051363485 37.0263347308 683 79 c 6
 670 598 l 21
413 24 m 5
 405 24 l 5
 396.6171875 49.1494140625 374.544401201 93.9370870343 356.1171875 135 c 6
 182 523 l 6
 175.038731112 538.512382018 166.024414062 555 162 562 c 5
 160 561 l 13
 147 100 l 6
 145.621217853 51.1062638709 188 19 231 8 c 5
 230 0 l 5
 33 0 l 5
 32 8 l 5
 75 19 114.420460434 42.0430482481 116 100 c 6
 129 577 l 6
 129.626369138 599.982929143 115.767578125 617.409179688 106 627.059570312 c 4
 85.818359375 646.999023438 67.5419921875 655.283203125 48 660 c 5
 49 668 l 5
 192 668 l 5
 207 658 227.8359375 632.875 248 589 c 6
 437 156 l 13
 675 668 l 5
 705 668 l 29
 705 668 432 63 413 24 c 5
EndSplineSet
Fore
SplineSet
132 219.000976562 m 1
 60 249 l 1
 60 257 l 1
 118 331.000976562 l 1
 190 301.001953125 l 1
 190 293.001953125 l 1
 132 219.000976562 l 1
EndSplineSet
MultipleSubs2: "breakcapital-1" headermark m
EndChar
StartChar: R
Encoding: 82 82 11
Width: 250
Flags: W
HStem: 219.001 112
VStem: 60 130
LayerCount: 2
Back
SplineSet
256 264 m 1
 325 245 l 1
 273 177 268 135.036132812 268 99 c 3
 268 53.9638671875 343 -48 560 -236 c 1
 544 -252 l 1
 312 -41 210 56.154296875 210 121 c 3
 210 170.008789062 224 209 256 264 c 1
175 249 m 1
 175.000976562 241 l 1
 122 209 109.999023438 192.036132812 109.999023438 177 c 3
 109.999023438 163.966796875 119.751953125 157 132 157 c 3
 165.331054688 157 204.328125 206 249 265 c 1
 324.2734375 364 l 1
 416.2734375 326 l 1
 416.2734375 318 l 1
 390.2734375 301 362 272 338 240 c 1
 271 157 191 141 133 141 c 3
 77 141 38 180.887695312 38 206 c 3
 38 229.104492188 48 255.176757812 75 279 c 1
 175 249 l 1
88 206 m 0
 160 206 197.586914062 224.302734375 281 338 c 2
 438 552 l 1
 457 538 l 1
 400 458 l 2
 325.879882812 353.971679688 289 292 301 220 c 1
 272 179 227 146 160 146 c 0
 56 146 -9 198 -57.025390625 263.688476562 c 1
 -48.5361328125 275.268554688 l 1
 -21 238 32 206 88 206 c 0
349.930664062 259.268554688 m 1
 397.466796875 212 455.385742188 189 494.466796875 189 c 3
 571.122070312 189 619.845703125 219.395507812 708.466796875 340 c 2
 974.466796875 702 l 1
 1060.46679688 666 l 1
 1060.46679688 658 l 1
 1004.32324219 616.453125 897.216796875 543 830.466796875 454 c 2
 824.466796875 446 l 2
 751.609375 348.857421875 746.466796875 257 746.466796875 217 c 1
 694.466796875 165 633.5390625 148 562.466796875 148 c 3
 484.170898438 148 395.89453125 187.359375 339.44140625 245.688476562 c 1
 349.930664062 259.268554688 l 1
540 1 m 1
 627 -34 l 1
 580 -93 l 1025
478 394 m 1
 565 359 l 1
 480 253 l 1
 466 235 463 217.796875 463 206 c 3
 463 180.544921875 496.952148438 166 522 166 c 3
 556.331054688 166 596 188 656 270 c 1
 750 394 l 1
 836 350 l 1
 752 241 l 1
 699 172 592.571289062 146 530 146 c 3
 463.338867188 146 406 187.366210938 406 251 c 3
 406 277.104492188 420 314 444 347 c 1
 478 394 l 1
895 79 m 18
 895 36 926 15 958 8 c 9
 957 0 l 25
 753 0 l 25
 752 8 l 17
 794 15 815 37 815 79 c 1034
EndSplineSet
Fore
SplineSet
132 219.000976562 m 1
 60 249 l 1
 60 257 l 1
 118 331.000976562 l 1
 190 301.001953125 l 1
 190 293.001953125 l 1
 132 219.000976562 l 1
EndSplineSet
MultipleSubs2: "breakcapital-1" headermark r
EndChar
StartChar: U
Encoding: 85 85 10
Width: 250
Flags: W
HStem: 219.001 112
VStem: 60 130
LayerCount: 2
Back
SplineSet
80 255 m 14
 80 588 l 22
 80 631 59 646 17 660 c 13
 18 668 l 29
 225 668 l 29
 226 660 l 21
 183 646 163 630 163 588 c 14
 163 265 l 6
 163 193.818359375 168.768554688 139.948242188 195.764648438 100 c 4
 228.849609375 51.04296875 277.805664062 27 363 27 c 7
 449.4921875 27 542 94 542 236 c 6
 542 568 l 22xd0
 542 626 509 642 456 660 c 5
 457 668 l 29
 652 668 l 29
 653 660 l 5
 600 642 571 626 571 568 c 14
 571 244 l 22
 571 74 478.052734375 -4 327 -4 c 7
 245.616210938 -4 181.950195312 16.845703125 137.368164062 63 c 4
 95.2939453125 106.559570312 80 172.990234375 80 255 c 14
445 668 m 25
 637 668 l 25
 638 660 l 17
 605 649 581 636 581 598 c 10
 581 317 l 18
 581 280 602 273 635 262 c 9
 635 254 l 17
 505 216 l 1
 501 216 l 1
 501 598 l 18xd0
 501 636 477 649 444 660 c 9
 445 668 l 25
EndSplineSet
Fore
SplineSet
132 219.000976562 m 1
 60 249 l 1
 60 257 l 1
 118 331.000976562 l 1
 190 301.001953125 l 1
 190 293.001953125 l 1
 132 219.000976562 l 1
EndSplineSet
MultipleSubs2: "breakcapital-1" headermark u
EndChar
StartChar: asciicircum
Encoding: 94 94 321
Width: 380
Flags: W
HStem: 374.543 21G<203.998 267.675> 466.543 20G<222.325 286.002>
VStem: 50 270
LayerCount: 2
Fore
SplineSet
122 239.000976562 m 1
 50 269 l 1
 50 277 l 1
 108 351.000976562 l 1
 180 321.001953125 l 1
 180 313.001953125 l 1
 122 239.000976562 l 1
262 142 m 5
 190 171.999023438 l 5
 190 179.999023438 l 5
 248 254 l 5
 320 224.000976562 l 5
 320 216.000976562 l 5
 262 142 l 5
252 374.54296875 m 5
 180 404.541992188 l 5
 180 412.541992188 l 5
 238 486.54296875 l 5
 310 456.543945312 l 5
 310 448.543945312 l 5
 252 374.54296875 l 5
EndSplineSet
EndChar
StartChar: underscore
Encoding: 95 95 311
Width: 250
Flags: W
HStem: 146 60<0 250>
VStem: 0 250<146 206>
LayerCount: 2
Fore
SplineSet
0 146 m 1
 0 206 l 5
 250 206 l 29
 250 146 l 25
 0 146 l 1
EndSplineSet
Substitution2: "fina-1" underscore.fina
Substitution2: "medi-1" underscore.medi
Substitution2: "init-1" underscore.init
EndChar
StartChar: a
Encoding: 97 97 7
Width: 590
Flags: W
HStem: -241 21G<373 410> 146 45<79.0733 186.5> 496 21G<230 257.605> 680 20G<300 362.483 474 535.778> 680 20G<300 362.483 474 535.778>
VStem: 34 35<194.911 260.5> 500 82<-82.035 56.3235>
LayerCount: 2
Back
SplineSet
256 -213.815429688 m 4
 166.936523438 -178.158203125 155 -85 196 -34 c 4
 231.846679688 10.58984375 287.807617188 11.041015625 338 -10 c 4
 376.540039062 -26.15625 392 -53 392 -79 c 7
 392 -106.360351562 382 -121.999023438 368 -134 c 5
 288 -102.059570312 l 5
 288 -94.0595703125 l 5
 329.268554688 -77.3291015625 360 -41.4912109375 333 -28.65234375 c 4
 317.763671875 -21.4072265625 301.697265625 -26.59765625 274 -63 c 4
 239 -109 237 -178 281 -197 c 4
 334.884765625 -220.268554688 381 -172 413.88671875 -128 c 4
 491.619140625 -24 490 137.764648438 271 278.999023438 c 5
 279 292.999023438 l 5
 371 248.999023438 l 5
 521 128 594.108398438 -17 489 -157 c 4
 435 -228.92578125 350.8359375 -251.784179688 256 -213.815429688 c 4
344 395 m 1
 288 317 257 250 269 198 c 1
 247.877929688 170 211 146 160 146 c 0
 98 146 44 195.846679688 44 248 c 3
 44 273 48 294 59 314 c 1
 163 284 l 1
 163 276 l 1
 100 240 79 224 79 211 c 3
 79 197 95 191 116 191 c 3
 148 191 184 218 272 338 c 2
 298 374 l 2
 305 383 312 392 319 402 c 1
 344 402 l 1
 344 395 l 1
0 146 m 1
 -80 191 l 1
 -72 206 l 1
 0 206 44.8037109375 207.926757812 141 338 c 2
 371 649 l 1
 387 635 l 1
 257 458 l 2
 179.49609375 355.625 149 292 161 220 c 1
 132 179 67 146 0 146 c 1
248 700 m 1
 338 656 l 1
 140 496 l 1
 130 505 l 25
 248 700 l 1
-196.536132812 257.268554688 m 1
 -149 210 -91.0810546875 187 -52 187 c 3
 24.6552734375 187 73.37890625 217.395507812 162 338 c 2
 428 700 l 1
 514 656 l 1
 214 241 l 1
 164 167 87.072265625 146 16 146 c 3
 -62.2958984375 146 -150.572265625 185.359375 -207.025390625 243.688476562 c 1
 -196.536132812 257.268554688 l 1
EndSplineSet
Fore
SplineSet
104 191 m 7xf6
 133 191 174 218 262 338 c 6
 288 374 l 6
 370 486 460 646 488 700 c 5
 574 664 l 5
 574 656 l 5
 523 618 449 549 382 460 c 6
 376 452 l 6
 300 351 268 284 282 222 c 5
 261 183 218 146 155 146 c 4
 81 146 34 196 34 248 c 7
 34 273 38 294 49 314 c 5
 153 284 l 5
 153 276 l 5
 90 240 69 224 69 211 c 7
 69 197 83 191 104 191 c 7xf6
582 -1 m 3
 582 -51 564 -93 538 -130 c 1
 482 -166 438 -184 382 -241 c 1
 373 -235 l 1
 447 -157 500 -62 500 13 c 3
 500 111 344 250 234 214 c 1
 236 261 l 1
 259 293 l 1
 270 292 l 1
 323 280 582 99 582 -1 c 3
308 700 m 1
 387 671 l 1
 387 663 l 1
 240 496 l 1
 230 505 l 25
 308 700 l 1
EndSplineSet
Substitution2: "fina-1" a.fina
Substitution2: "medi-1" a.medi
Substitution2: "init-1" a.init
EndChar
StartChar: b
Encoding: 98 98 3
Width: 810
Flags: W
HStem: 142.001 70<545.063 671.319> 146 45<75.0464 177.5> 299 65.001<288.758 367.799> 424.001 20G<535.435 600.482>
VStem: 34 35<192.516 260.5> 767.999 7<347.176 351.001>
LayerCount: 2
Back
SplineSet
163 284 m 5
 163.000976562 276 l 5
 100 240 78.9990234375 224.036132812 78.9990234375 211 c 7
 78.9990234375 196.966796875 94.701171875 191 116 191 c 7
 144 191 185.817708333 204 236 270 c 6
 311.2734375 369 l 5
 403.2734375 331 l 5
 403.2734375 323 l 5
 377.2734375 306 351.201171875 279.110351562 325 245 c 4
 272 176 217 146 160 146 c 7
 83 146 34 203.584960938 34 237 c 7
 34 262.104492188 43 290.176757812 63 314 c 5
 163 284 l 5
568 212 m 5
 639 212 695.75 269 738 351 c 5
 745 351 l 5
 745 253.6953125 725.825195312 200.170898438 710.484375 173 c 5
 685.6875 157.125976562 642 146 610 146 c 12
 488.805664062 146 425 210 340 316.000976562 c 5
 352 333 l 5
 429 244 488 212 568 212 c 5
EndSplineSet
Fore
SplineSet
357.999023438 299 m 0xbc
 338 298.999023438 315.076944469 282.668113461 277 228.999023438 c 0
 236.560546875 172 206 146 149 146 c 0
 75 146 34 196 34 248 c 0
 34 273 38 294 49 314 c 1
 153 284 l 1
 153 276 l 1
 90 240 69 224 69 211 c 0
 69 197 81 191 97 191 c 0x7c
 122 191 158.528959361 216.547127503 206 280 c 0
 244.106445312 330.935546875 268.514648438 364.000976562 309.001953125 364.000976562 c 0
 354.001953125 364.000976562 385.016601562 328.983398438 427.999023438 286.000976562 c 0
 485.999023438 228.000976562 517.999023438 212.000976562 597.999023438 212.000976562 c 1
 668.999023438 212.000976562 725.749023438 269.000976562 767.999023438 351.000976562 c 1
 774.999023438 351.000976562 l 1
 774.999023438 253.696289062 755.82421875 197.171875 740.483398438 170.000976562 c 1
 715.686523438 154.126953125 671.999023438 142.000976562 639.999023438 142.000976562 c 0
 554.052734375 142.000976562 497.317382812 187.321289062 435.999023438 248.688476562 c 0
 405.200195312 279.510742188 381.999023438 299 357.999023438 299 c 0xbc
545.999023438 444.000976562 m 1
 624.999023438 415.000976562 l 1
 624.999023438 407.000976562 l 1
 452.999023438 240.000976562 l 1
 442.999023438 249.000976562 l 25
 545.999023438 444.000976562 l 1
545.999023438 444.000976562 m 1
 624.999023438 415.000976562 l 1
 624.999023438 407.000976562 l 1
 452.999023438 240.000976562 l 1
 442.999023438 249.000976562 l 25
 545.999023438 444.000976562 l 1
EndSplineSet
Substitution2: "fina-1" b.fina
Substitution2: "medi-1" b.medi
Substitution2: "init-1" b.init
EndChar
StartChar: c
Encoding: 99 99 17
Width: 690
Flags: W
HStem: -242 21G<631.37 687> 146 45<86.1616 164.399> 305 64<194.472 255.722> 382 20G<299.5 310.25 315.5 344> 404 20<376.059 526> 424 20<205.672 365.802>
VStem: 44 35<193.812 260.5> 119 75<349.132 419.529> 322 82<88.5239 204.072>
LayerCount: 2
Back
SplineSet
305 370 m 1
 296.388351207 360.328298249 281.364257812 336.806640625 272 329 c 1
 266 335 l 1
 246.696289062 319.912109375 224.175904016 305 203 305 c 3
 159 305 119 327.985351562 119 371.92578125 c 3
 119 412.0234375 154 444 225 444 c 3
 311 444 413 424 534 424 c 1
 526 404 l 1
 417 404 324 424 243 424 c 3
 207.973632812 424 189 410.921875 189 390 c 3
 189 373.834960938 202.798828125 359 224.95703125 359 c 7
 254.058408473 359 282 364 319 402 c 1
 305 370 l 1
EndSplineSet
Fore
SplineSet
305 370 m 5xf780
 296.388351207 360.328298249 281.364257812 336.806640625 272 329 c 5
 266 335 l 5
 246.696289062 319.912109375 224.175904016 305 203 305 c 7
 159 305 119 327.985351562 119 371.92578125 c 7
 119 412.0234375 154 444 225 444 c 7
 311 444 413 424 534 424 c 5xf780
 526 404 l 5xfb80
 417 404 324 424 243 424 c 7
 207.973632812 424 194 407.921875 194 394 c 7
 194 379.834960938 205.798828125 369 228.95703125 369 c 7
 254.110351562 369 280 377 319 402 c 5
 305 370 l 5xf780
344 395 m 1
 288 317 257 250 269 198 c 1
 247.877929688 170 211 146 157 146 c 0
 92 146 44 193.846679688 44 248 c 3
 44 273 48 294 59 314 c 1
 163 284 l 1
 163 276 l 1
 100 240 79 224 79 211 c 3
 79 197 95 191 116 191 c 3
 148 191 184 218 272 338 c 2
 298 374 l 2
 305 383 312 392 319 402 c 1
 344 402 l 1
 344 395 l 1
401.390243902 331 m 2
 487 448 l 1
 579 410 l 1
 579 402 l 1
 553 385 495 309 450 245 c 0
 414.061523438 193.887695312 404 153 404 107 c 3
 404 42 470 -48 687 -236 c 1
 681 -242 l 1
 614 -215 l 1
 595 -194 544.466796875 -138.545898438 453 -45 c 0
 365 45 322 107 322 157 c 3
 322 210 350.015055073 260.787241933 401.390243902 331 c 2
EndSplineSet
Substitution2: "fina-1" c.fina
Substitution2: "medi-1" c.medi
Substitution2: "init-1" c.init
EndChar
StartChar: d
Encoding: 100 100 16
Width: 480
Flags: W
HStem: 146 45<80.8439 171.5> 304 60<266.147 329.609> 452.001 20G<169 231.116>
VStem: 34 33<199.246 257.5> 124 73<353.631 420.001> 327 68<196.803 304>
LayerCount: 2
Back
SplineSet
327 304 m 1
 206 304 135 358 135 420 c 3
 135 477 178 509 220 509 c 3
 261 509 301 480 331 447 c 1
 324 437 l 1
 314 442 297 446 275 446 c 3
 234 446 216 425 216 396 c 3
 216 365 242 336 327 324 c 1
 327 304 l 1
330 422.001953125 m 1
 307 385.001953125 276 364.001953125 233 364.001953125 c 0
 156 364.001953125 117 429.586914062 117 463.001953125 c 3
 117 488.106445312 121 508.178710938 136 532.001953125 c 1
 236 502.001953125 l 1
 236.000976562 494.001953125 l 1
 173 458.001953125 149.999023438 442.038085938 149.999023438 429.001953125 c 3
 149.999023438 414.96875 165 409.001953125 181 409.001953125 c 3
 202 409.001953125 230.404296875 430.366210938 329 560.001953125 c 2
 383 631.001953125 l 1
 404 622.001953125 l 1
 385 598.001953125 l 2
 332.088867188 531.166015625 323.174804688 467.001953125 330 422.001953125 c 1
448 421 m 1
 434 412 425 388 425 354 c 1
 425 240 l 1
 425.344726562 212 437 194 479 185 c 1
 479 178 l 1
 386 138 l 1
 368 149 357 162 357 195.64453125 c 1
 357 372 l 1
 298.01753383 372 264.400288695 363.998046875 208 363.998046875 c 3
 117.555070429 363.998046875 77.5419921875 405.26066985 77.5419921875 460.93359375 c 0
 77.5419921875 502 115 529.587890625 151.094726562 529.587890625 c 0
 175 529.587890625 203 522.676590297 236 492 c 1
 229 482 l 1
 214.130859375 494.841796875 194.696289062 498.81640625 183.915039062 498.81640625 c 0
 166 498.81640625 154.104492188 490 154.104492188 472.354492188 c 0
 154.104492188 457.66796875 165.03515625 440 194 440 c 3
 285 440 364 448 386 448 c 1
 448 429 l 1
 448 421 l 1
345.999023438 10.0009765625 m 25
 537.999023438 10.0009765625 l 25
 538.999023438 18.0009765625 l 17
 505.999023438 29.0009765625 481.999023438 42.0009765625 481.999023438 80.0009765625 c 10
 481.999023438 361.000976562 l 18
 481.999023438 398.000976562 502.999023438 405.000976562 535.999023438 416.000976562 c 9
 535.999023438 424.000976562 l 17
 405.999023438 462.000976562 l 1
 401.999023438 462.000976562 l 1
 401.999023438 80.0009765625 l 18xd0
 401.999023438 42.0009765625 377.999023438 29.0009765625 344.999023438 18.0009765625 c 9
 345.999023438 10.0009765625 l 25
EndSplineSet
Fore
SplineSet
254 314.000976562 m 1
 181 320.000976562 124 352.997070312 124 400.000976562 c 3
 124 440.000976562 152 463.000976562 186 472.000976562 c 1
 283 429.000976562 l 1
 282 420.000976562 l 1
 225 401.951171875 197 382.02734375 197 368.000976562 c 3
 197 351.000976562 205 340.000976562 268 326.000976562 c 1
 254 314.000976562 l 1
385 367 m 1
 395 364 l 1
 395 240 l 2
 395 212.005859375 407 194 449 185 c 1
 449 178 l 1
 356 138 l 1
 338 149 327 162 327 195.64453125 c 1
 327 324 l 1
 385 367 l 1
247 204 m 5
 224 167 193 146 150 146 c 4
 73 146 34 212 34 245 c 7
 34 270 38 290 53 314 c 5
 153 284 l 5
 153 276 l 5
 90 240 67 224 67 211 c 7
 67 197 82 191 98 191 c 7
 117 191 142 211 225 314 c 4
 247 342 275 364 326 364 c 7
 345 364 368 361 395 354 c 5
 374 319 l 5
 327 304 l 5
 276 304 243 302 243 241 c 7
 243 228 245 215 247 204 c 5
EndSplineSet
Substitution2: "fina-1" d.fina
Substitution2: "medi-1" d.medi
Substitution2: "init-1" d.init
EndChar
StartChar: e
Encoding: 101 101 20
Width: 540
Flags: W
HStem: 146 45<72.6205 175> 430 20G<310.179 370.581>
VStem: 34 35<192.208 260.5>
LayerCount: 2
Back
SplineSet
104 191 m 3
 133 191 174 218 262 338 c 2
 288 374 l 2
 370 486 460 646 488 700 c 1
 574 664 l 1
 574 656 l 1
 523 618 449 549 382 460 c 2
 376 452 l 2
 300 351 268 284 282 222 c 1
 261 183 218 146 155 146 c 0
 81 146 34 196 34 248 c 3
 34 273 38 294 49 314 c 1
 153 284 l 1
 153 276 l 1
 90 240 69 224 69 211 c 3
 69 197 83 191 104 191 c 3
EndSplineSet
Fore
SplineSet
94 191 m 7
 118 191 151 215 242 338 c 6
 325 450 l 5
 423 407 l 5
 423 399 l 5
 404 385 389 373 378 365 c 4
 370 359 366 352 366 344 c 4
 366 327 505 283 505 213 c 7
 505 201 500 188 491 175 c 4
 478 156 450 146 419 146 c 4
 391 146 360 154 336 171 c 4
 284 207 285 241 297 259 c 4
 305 271 315 280 328 287 c 5
 405 258 l 5
 405 250 l 5
 377 233 356 215 348 204 c 4
 340 193 343 184 352 177 c 4
 366 168 391 174 421 217 c 4
 479 300 331 307 301 360 c 5
 273 321 250 274 262 211 c 5
 238 175 205 146 145 146 c 4
 71 146 34 196 34 248 c 7
 34 273 38 294 49 314 c 5
 153 284 l 5
 153 276 l 5
 90 240 69 224 69 211 c 7
 69 197 78 191 94 191 c 7
EndSplineSet
Substitution2: "fina-1" e.fina
Substitution2: "medi-1" e.medi
Substitution2: "init-1" e.init
EndChar
StartChar: f
Encoding: 102 102 28
Width: 980
Flags: W
HStem: -241 21G<743.003 780.003> 145.259 60.7412<302.736 370.105> 146 45<79.0733 179.813> 357 343G<287.625 313 474 535.778 673.355 736.778> 680 20G<474 535.778 675 736.778>
VStem: 34 35<194.911 260.5> 631 49.0166<206.435 295.589> 870.003 82<-84.0507 54.8929>
LayerCount: 2
Back
SplineSet
655.390625 885 m 6
 741 1002 l 5
 833 964 l 5
 833 956 l 5
 807 939 749 863 704 799 c 4
 668.061523438 747.887695312 658 707 658 661 c 7
 658 596 724 506 941 318 c 5
 935 312 l 5
 868 339 l 5
 849 360 798.466796875 415.454101562 707 509 c 4
 619 599 576 661 576 711 c 7
 576 764 604.014648438 814.787109375 655.390625 885 c 6
694 23 m 5
 768 101 821 196 821 271 c 7
 821 369 773 430 624 538 c 5
 632 552 l 5
 724 508 l 5
 828 431 903 357 903 257 c 7
 903 207 885 165 859 128 c 5
 803 92 759 74 703 17 c 5
 694 23 l 5
306 191 m 7
 335 191 376 218 464 338 c 6
 490 374 l 6
 572 486 662 646 690 700 c 5
 776 664 l 5
 776 656 l 5
 725 618 651 549 584 460 c 6
 578 452 l 6
 502 351 470 284 484 222 c 5
 463 183 420 146 357 146 c 4
 283 146 236 196 236 248 c 7
 236 273 240 294 251 314 c 5
 355 284 l 5
 355 276 l 5
 292 240 271 224 271 211 c 7
 271 197 285 191 306 191 c 7
EndSplineSet
Fore
SplineSet
743.002929688 -235 m 1x87
 817.002929688 -157 870.002929688 -62 870.002929688 3 c 3
 870.002929688 106.01953125 741.002929688 136.295898438 687.002929688 176 c 1
 806.002929688 158 l 1
 806.002929688 144 l 1
 864.002929688 122 952.002929688 69 952.002929688 -11 c 3
 952.002929688 -41 934.002929688 -93 908.002929688 -130 c 1
 852.002929688 -166 808.002929688 -184 752.002929688 -241 c 1
 743.002929688 -235 l 1x87
277 298 m 1
 279 345 l 1
 302 377 l 1
 313 376 l 1
 366 364 565 249 650 152 c 1
 640 138 l 1
 550 182 l 1
 501 235.185546875 387 334 277 298 c 1
704 559.77734375 m 3
 704 494.876953125 973.571890362 336.999656399 897 203 c 0
 864.537109375 146.190429688 810 146 779 146 c 0xb7
 751 146 711.181675781 159.258839844 687 176 c 0
 651.228290244 200.765029831 631 227.836914062 631 274 c 3
 631 317.177734375 662.709960938 350.536132812 684 364 c 1
 781 323 l 1
 781 315 l 1
 727 290 680.016601562 255.729492188 680.016601562 222 c 3
 680.016601562 206.662109375 686.967773438 197.806640625 696 192 c 0
 719 177.213867188 770.583093198 167.999950191 819 251 c 0
 893.666992188 379 707 460 657 560 c 1
 634 530 609.16015625 494.879882812 583 460 c 2
 577 452 l 2
 501.16015625 350.879882812 469 284 483 222 c 1
 464 176 409 145.258789062 366 145.258789062 c 0xc7
 333 145.258789062 291 166.258789062 270 203.258789062 c 1
 246.465820312 171.931640625 207.741382748 146 155 146 c 0
 81 146 34 196 34 248 c 3
 34 273 38 294 49 314 c 1
 153 284 l 1
 153 276 l 1
 90 240 69 224 69 211 c 3
 69 197 83 191 104 191 c 3xa7
 133 191 174 218 262 338 c 2
 288 374 l 2
 370 486 460 646 488 700 c 1
 574 664 l 1
 574 656 l 1
 523 618 449 549 382 460 c 2
 376 452 l 2
 312.191131654 366.921508872 274.801757812 299.458984375 274.801757812 254 c 0
 274.801757812 225 288.801757812 206 315.801757812 206 c 0
 353.801757812 206 378.432617188 223.215820312 464.801757812 341 c 2
 489 374 l 2
 570.828125 485.592773438 661 646 689 700 c 1xd7
 775 664 l 1
 775 656 l 1
 724 616 704 593.909179688 704 559.77734375 c 3
EndSplineSet
Substitution2: "fina-1" f.fina
Substitution2: "medi-1" f.medi
Substitution2: "init-1" f.init
EndChar
StartChar: g
Encoding: 103 103 1
Width: 810
Flags: W
HStem: 142 70<295.892 637.105> 146 45<78.1951 156.8> 348 20G<337.625 363 746.875 775> 372 21G<487 498> 385 59<368.573 457.422>
VStem: 34 35<194.647 260.5> 768 7<364.162 368>
LayerCount: 2
Back
SplineSet
172 238 m 5xf180
 246 430 325.965820312 451 385 451 c 7
 446.645507812 451 469 417.2734375 469 391 c 7
 469 365.235351562 443 339 419 324 c 5
 411 324 l 5
 394 364 370 390 327 390 c 7
 284.895507812 390 240 355 191 230 c 5
 172 238 l 5xf180
129 171 m 9
 147 164 l 1
 125 136 111 112 111 97 c 3
 111 80.8828125 129 75 171 75 c 2
 264 75 l 18
 360 75 409 29.39453125 409 -45 c 3
 409 -132.030273438 300.262695312 -206 210 -206 c 3
 136.870117188 -206 88 -194 31 -141 c 1
 31 -133 l 1
 51 -92 90.9951171875 -16.2392578125 120 31 c 1
 137 25 l 1
 110.14453125 -20 99 -39.982421875 99 -72 c 3
 99 -117.022460938 167.900390625 -167 252 -167 c 3
 302.04296875 -167 359 -145.0703125 359 -81 c 3
 359 -25.82421875 305 -7.22517748755e-15 246 0 c 2
 159 0 l 18
 108 0 76 12 55 40 c 1
 55 44 l 1
 73.08203125 83.6669921875 108 144 129 171 c 9
469 0 m 25
 470 8 l 17
 437 22 416 39.0498046875 416 70 c 2
 416 263 l 2
 416 379 367.166015625 418 296 418 c 3
 242.564453125 418 195 386 128.4453125 310.338867188 c 1
 136.5546875 289.661132812 l 1
 188 351 226.057617188 381.807617188 256 381.807617188 c 3
 295.727539062 381.807617188 336 361 336 253 c 2
 336 70 l 2
 336 39.9384765625 315 22 282 8 c 9
 283 0 l 25
 469 0 l 25
207 0 m 25
 208 8 l 17
 175 22 154 32 154 70 c 10
 154 422 l 1
 150 422 l 1
 20 384 l 9
 20 376 l 17
 53 365 74 358 74 321 c 10
 74 70 l 18
 74 32 53 22 20 8 c 9
 21 0 l 25
 207 0 l 25
EndSplineSet
Fore
SplineSet
225 255 m 1xa6
 262 217 330 212 488 212 c 3
 686 212 725.75 286 768 368 c 1
 775 368 l 1
 775 270.6953125 755.825195312 197.170898438 740.484375 170 c 1
 703.765625 146.494140625 620 142 526 142 c 3
 394 142 316 149.770507812 288 168 c 1
 225 255 l 1xa6
327 298 m 1
 329 345 l 1
 352 377 l 1
 363 376 l 1
 416 364 488 282.143554688 573 185.143554688 c 1
 563 171.143554688 l 1
 540 182 l 1
 491 235.185546875 437 334 327 298 c 1
448 385 m 7x2e
 421 385 404 377 356 313 c 6
 305 245 l 6
 252.879094027 175.505458703 211 146 154 146 c 4
 80 146 34 196 34 248 c 7
 34 273 38 294 49 314 c 5
 153 284 l 5
 153 276 l 5
 90 240 69 224 69 211 c 7
 69 197 83 191 104 191 c 7
 133 191 175.502678454 218.241668651 226 284 c 6
 291.2734375 369 l 6
 333 422 358.745245187 444 395 444 c 7x6e
 439 444 463 421 498 382 c 5
 491 372 l 5x36
 483 379.772460938 465 385 448 385 c 7x2e
EndSplineSet
Substitution2: "fina-1" g.fina
Substitution2: "medi-1" g.medi
Substitution2: "init-1" g.init
EndChar
StartChar: h
Encoding: 104 104 22
Width: 560
Flags: W
HStem: 146 45<79.0733 185> 480 21G<271.998 335.675> 572 20G<290.325 390.581>
VStem: 34 35<194.911 260.5>
LayerCount: 2
Fore
SplineSet
320 480 m 5
 248 509.999023438 l 5
 248 517.999023438 l 5
 306 592 l 5
 378 562.000976562 l 5
 378 554.000976562 l 5
 320 480 l 5
104 191 m 3
 133 191 171 215 262 338 c 2
 345 450 l 1
 443 407 l 1
 443 399 l 1
 424 385 409 373 398 365 c 0
 390 359 386 352 386 344 c 0
 386 327 525 283 525 213 c 3
 525 201 520 188 511 175 c 0
 498 156 470 146 439 146 c 0
 411 146 380 154 356 171 c 0
 304 207 305 241 317 259 c 0
 325 271 335 280 348 287 c 1
 425 258 l 1
 425 250 l 1
 397 233 376 215 368 204 c 0
 360 193 363 184 372 177 c 0
 386 168 411 174 441 217 c 0
 499 300 351 307 321 360 c 1
 293 321 270 284 282 221 c 1
 258 181 215 146 155 146 c 0
 81 146 34 196 34 248 c 3
 34 273 38 294 49 314 c 1
 153 284 l 1
 153 276 l 1
 90 240 69 224 69 211 c 3
 69 197 83 191 104 191 c 3
EndSplineSet
Substitution2: "fina-1" h.fina
Substitution2: "medi-1" h.medi
Substitution2: "init-1" h.init
EndChar
StartChar: i
Encoding: 105 105 2
Width: 530
Flags: W
HStem: -242 21G<471.244 527> 146 45<71.9755 149.368> 349 20G<265.915 329.694>
VStem: 34 35<192.445 260.5> 181 59<63.3665 158.329>
LayerCount: 2
Fore
SplineSet
126 -28 m 5
 54 1.9990234375 l 5
 54 9.9990234375 l 5
 112 84 l 5
 184 54.0009765625 l 5
 184 46.0009765625 l 5
 126 -28 l 5
EndSplineSet
Refer: 25 234 S 1 0 0 1 0 0 2
Substitution2: "fina-1" i.fina
Substitution2: "medi-1" i.medi
Substitution2: "init-1" i.init
EndChar
StartChar: k
Encoding: 107 107 30
Width: 770
Flags: W
HStem: 146 45<79.0733 186.5> 372 72<186.208 284.548> 680 20G<474 535.778 662 723.778> 680 20G<474 535.778 662 723.778>
VStem: 34 35<194.911 260.5> 110 74<338.186 401.5>
LayerCount: 2
Back
SplineSet
232 -217.815429688 m 4
 142.936523438 -182.158203125 131 -89 172 -38 c 4
 207.846679688 6.58984375 263.807617188 7.041015625 314 -14 c 4
 352.540039062 -30.15625 368 -57 368 -83 c 7
 368 -110.360351562 358 -125.999023438 344 -138 c 5
 264 -106.059570312 l 5
 264 -98.0595703125 l 5
 305.268554688 -81.3291015625 336 -45.4912109375 309 -32.65234375 c 4
 293.763671875 -25.4072265625 277.697265625 -30.59765625 250 -67 c 4
 215 -113 213 -182 257 -201 c 4
 310.884765625 -224.268554688 357 -176 389.88671875 -132 c 4
 467.619140625 -28 479 133.764285714 260 274.999023438 c 5
 268 288.999023438 l 5
 360 244.999023438 l 5
 510 124 577.616210938 -11 465 -161 c 4
 411 -232.92578125 326.8359375 -255.784179688 232 -217.815429688 c 4
313 -235 m 1
 387 -157 440 -62 440 13 c 3
 440 111 382 188 253 280 c 1
 261 294 l 1
 353 250 l 1
 435 189 522 99 522 -1 c 3
 522 -51 504 -93 478 -130 c 1
 422 -166 378 -184 322 -241 c 1
 313 -235 l 1
EndSplineSet
Fore
SplineSet
243.999023438 213.999023438 m 1xcc
 245.999023438 260.999023438 l 1
 268.999023438 292.999023438 l 1
 279.999023438 291.999023438 l 1
 369.351491768 271.769026057 706.159401279 63.4611725979 530 -161 c 0
 474.435546875 -231.799804688 410 -258 308 -218 c 0
 206 -178 196.122070312 -84.09765625 237 -33 c 0
 273 12 329 12 379 -9 c 0
 418 -25 433 -52 433 -78 c 3
 433 -105 423 -121 409 -133 c 1
 329 -101 l 1
 329 -93 l 1
 370 -76 401 -41 374 -28 c 0
 359 -21 343 -26 315 -62 c 0
 280 -108 278 -177 322 -196 c 0
 376 -219 421.853882313 -175.890031696 455 -132 c 0
 595.46875 54 408 264 243.999023438 213.999023438 c 1xcc
419.626953125 311 m 1
 468 374 l 2
 552.234034403 483.704567114 648 646 676 700 c 1xec
 762 664 l 1
 762 656 l 1
 711 618 627 549 560 460 c 2
 554 452 l 2
 514 399 492 322 504 243 c 1
 496 235 l 1
 395 275.92578125 l 1
 372 351 310 372 248 372 c 3
 198 372 184 355 184 342 c 3
 184 331 190 320 203 312 c 9
 198 302 l 17
 149 322 110 343 110 382 c 3
 110 421 146 444 196 444 c 3
 285 444 348.626953125 383 419.626953125 311 c 1
104 191 m 3
 133 191 174 218 262 338 c 2
 288 374 l 2
 370 486 460 646 488 700 c 1
 574 664 l 1
 574 656 l 1
 523 618 449 549 382 460 c 2
 376 452 l 2
 300 351 268 284 282 222 c 1
 261 183 218 146 155 146 c 0
 81 146 34 196 34 248 c 3
 34 273 38 294 49 314 c 1
 153 284 l 1
 153 276 l 1
 90 240 69 224 69 211 c 3
 69 197 83 191 104 191 c 3
EndSplineSet
Substitution2: "fina-1" k.fina
Substitution2: "medi-1" k.medi
Substitution2: "init-1" k.init
EndChar
StartChar: l
Encoding: 108 108 8
Width: 640
Flags: W
HStem: 146 45<79.0733 186.5> 315 14<541.623 593> 460 21G<521 570> 480 20G<469 574> 680 20G<474 535.778>
VStem: 34 35<194.911 260.5> 445 59<355.645 431.214> 457 27<510.014 571.892>
LayerCount: 2
Fore
SplineSet
243.999023438 213.999023438 m 1xcc
 245.999023438 260.999023438 l 1
 268.999023438 292.999023438 l 1
 279.999023438 291.999023438 l 1
 369.351491768 271.769026057 706.159401279 63.4611725979 530 -161 c 0
 474.435546875 -231.799804688 410 -258 308 -218 c 0
 206 -178 196.122070312 -84.09765625 237 -33 c 0
 273 12 329 12 379 -9 c 0
 418 -25 433 -52 433 -78 c 3
 433 -105 423 -121 409 -133 c 1
 329 -101 l 1
 329 -93 l 1
 370 -76 401 -41 374 -28 c 0
 359 -21 343 -26 315 -62 c 0
 280 -108 278 -177 322 -196 c 0
 376 -219 421.853882313 -175.890031696 455 -132 c 0
 595.46875 54 408 264 243.999023438 213.999023438 c 1xcc
572 315 m 4
 498 315 445 354.9921875 445 417 c 7
 445 451 459 479 479 500 c 5
 528 474 l 5
 570 472 l 5
 570 464 l 5
 514 432 504 405.022715546 504 383 c 7xde
 504 360 527 329 577 329 c 5
 586 329 593 329 599 330 c 5
 593 316 l 5
 588.634765625 315 580 315 572 315 c 4
560 460 m 5xed
 482 478 457 509 457 558 c 7
 457 600.047851562 478 648 489 668 c 5
 574 664 l 5
 574 656 l 5
 507 610 484 577.132096332 484 543 c 7
 484 513.982763743 501 496 570 472 c 5
 560 460 l 5xed
104 191 m 3
 133 191 174 218 262 338 c 2
 288 374 l 6
 370 486 460 646 488 700 c 5
 574 664 l 5
 554 656 l 5
 503 618 449 549 382 460 c 6
 376 452 l 2
 300 351 268 284 282 222 c 1
 261 183 218 146 155 146 c 0
 81 146 34 196 34 248 c 3
 34 273 38 294 49 314 c 1
 153 284 l 1
 153 276 l 1
 90 240 69 224 69 211 c 3
 69 197 83 191 104 191 c 3
EndSplineSet
Substitution2: "fina-1" l.fina
Substitution2: "medi-1" l.medi
Substitution2: "init-1" l.init
EndChar
StartChar: m
Encoding: 109 109 13
Width: 590
Flags: W
HStem: -242 21G<531.244 587> 146 45<79.0733 174.009> 430 20G<330.179 390.581>
VStem: 34 35<194.911 260.5>
LayerCount: 2
Back
SplineSet
583.000976562 257.000976562 m 5
 631 210.000976562 689 187.000976562 728.000976562 187.000976562 c 4
 805 187.000976562 834.913085938 217.58203125 922.000976562 338 c 6
 1005.00097656 450 l 5
 1103 407 l 5
 1103.00097656 399 l 5
 1084 385 1069.02246094 372.973632812 1058.00097656 365 c 4
 1050.04492188 359.244140625 1046 352.436523438 1046 344.000976562 c 4
 1046 324 1245.91601562 263 1180.52929688 169.6171875 c 4
 1155.07128906 133.259765625 1076.72167969 130.510742188 1025.87988281 166.109375 c 4
 974 202.435546875 973.206054688 242 985.658203125 259.783203125 c 4
 993.80859375 271.422851562 1004.38085938 280.671875 1017.73632812 287.192382812 c 5
 1094.73632812 253.192382812 l 5
 1094.73632812 245.19140625 l 5
 1066.32714844 228.146484375 1045.84667969 210.194335938 1037.98730469 198.96875 c 4
 1029.94726562 187.487304688 1033.08105469 178.97265625 1042.484375 172.387695312 c 4
 1056 162.923828125 1080.89160156 169 1111 212.000976562 c 4
 1169.11523438 295 1011 307 981.000976562 360.000976562 c 5
 952.979492188 321 933.000976562 244 933 194 c 5
 913.000976562 174 857.000976562 146 796 146 c 4
 718.000976562 146 629.000976562 186 573.000976562 244 c 5
 583.000976562 257.000976562 l 5
888 263 m 5
 933 194 l 5
 933 79 993 -20 1246 -236 c 5
 1226 -248 l 5
 953 -12 873 78.96875 873 143 c 7
 873 175.844726562 877 203 888 263 c 5
583 257 m 5
 631 210 689 187 728 187 c 4
 805 187 834.912109375 217.58203125 922 338 c 6
 1005 450 l 5
 1103 407 l 5
 1103 399 l 5
 1084 385 1069.02148438 372.97265625 1058 365 c 4
 1050.04394531 359.244140625 1046 352.435546875 1046 344 c 7
 1046 303.987304688 1250.33300781 266 1187 171 c 4
 1170.35839844 146.038085938 1136 142 1084 142 c 4
 1022.54394531 142 968.587890625 180.2421875 968.587890625 220 c 7
 968.587890625 246.66796875 984.752929688 268.170898438 1017 284 c 5
 1094 250 l 5
 1094 242 l 5
 1054 218 1033.60058594 203.766601562 1033.60058594 189 c 7
 1033.60058594 175.701171875 1042.70898438 169 1058 169 c 4
 1074 169 1088.10742188 174.3359375 1106 197 c 4
 1182.57910156 294 982 304 981 360 c 5
 952.978515625 321 933 244 933 194 c 5
 913 174 857 146 796 146 c 4
 718 146 629 186 573 244 c 5
 583 257 l 5
583.463867188 257.268554688 m 5
 631 210 688.918945312 187 728 187 c 7
 804.655273438 187 853.37890625 217.395507812 942 338 c 6
 1208 700 l 5
 1294 664 l 5
 1294 656 l 5
 1237.85644531 614.453125 1130.75 541 1064 452 c 6
 1058 444 l 6
 985.142578125 346.857421875 980 255 980 215 c 5
 928 163 867.072265625 146 796 146 c 7
 717.704101562 146 629.427734375 185.359375 572.974609375 243.688476562 c 5
 583.463867188 257.268554688 l 5
925 246 m 5
 953 194 l 5
 953 53 1010 0 1288 -206 c 5
 1276 -218 l 21
 936 35 896 68.98828125 896 113 c 7
 896 155.844726562 903 186 925 246 c 5
583 257 m 5
 631 210 689 187 728 187 c 4
 805 187 854 218 942 338 c 6
 1052 488 l 5
 1138 444 l 5
 1119 430 1103.02148438 417.97265625 1089 407 c 4
 1081.26660156 400.948242188 1080 392.435546875 1080 384 c 7
 1080 323.380859375 1295 294 1228 182.995117188 c 4
 1200.36230469 137.206054688 1143.22167969 124 1096 124 c 4
 1024 124 949 183 1048 256 c 5
 1118 219 l 5
 1069 167 l 5
 1069 151 1085 140 1103 140 c 4
 1120.13867188 140 1135.94824219 149.604492188 1161 192 c 4
 1226 302 1071 326 1047.34863281 372.682617188 c 5
 1011.61230469 341.295898438 998.866210938 323.419921875 989 309 c 4
 972 284 953 224 953 194 c 5
 915 164 867 146 796 146 c 4
 718 146 629 186 573 244 c 5
 583 257 l 5
EndSplineSet
Fore
SplineSet
104 191 m 7
 137 191 170.90234375 215.072265625 262 338 c 2
 345 450 l 1
 443 407 l 1
 443 399 l 1
 424 385 409 373 398 365 c 0
 390 359 386 352 386 344 c 0
 386 324 576 268 511 175 c 0
 498 156 470 146 439 146 c 0
 411 146 380 154 356 171 c 0
 304 207 305 241 317 259 c 0
 325 271 335 280 348 287 c 1
 425 258 l 1
 425 250 l 1
 397 233 376 215 368 204 c 0
 360 193 363 184 372 177 c 0
 386 168 411 174 441 217 c 0
 499 300 351 307 321 360 c 1
 293 321 282.598632812 260 281 185 c 1
 273.46484375 177.46484375 253.388671875 177.794921875 238 169.9140625 c 1
 212.541992188 156.876953125 193.018554688 146 155 146 c 0
 81 146 34 196 34 248 c 3
 34 273 38 294 49 314 c 1
 153 284 l 1
 153 276 l 1
 90 240 69 224 69 211 c 3
 69 197 83 191 104 191 c 7
587 -236 m 1
 581 -242 l 1
 514 -215.068359375 l 1
 495 -194.102539062 446.31640625 -136.326171875 355 -42 c 0
 255.286132812 61 215 124 215 185 c 3
 215 218 222 223 233 283 c 1
 281 185 l 1
 281 88.6669921875 328 -5.61328125 587 -236 c 1
EndSplineSet
Substitution2: "fina-1" m.fina
Substitution2: "medi-1" m.medi
Substitution2: "init-1" m.init
EndChar
StartChar: n
Encoding: 110 110 0
Width: 680
Flags: W
HStem: 142 70<331.445 528.352> 146 45<79.0733 181> 283.928 70.5299<341.956 403.814> 348 20G<619 647> 417.413 26.5869<347.352 408.255>
VStem: 34 35<194.911 260.5> 410.411 67.5885<340.681 416.362> 640 7<364.162 368>
LayerCount: 2
Back
SplineSet
533 478.001953125 m 5
 513 447.416015625 500 414.001953125 500 391.001953125 c 7
 500 357.001953125 540 338.001953125 653 338.001953125 c 5
 774 338.001953125 821 412.001953125 863 494.001953125 c 5
 870 494.001953125 l 5
 870 397.001953125 850 323.001953125 835 296.001953125 c 5
 798 272.001953125 743 268.001953125 691 268.001953125 c 4
 602 268.001953125 542 283.001953125 494 330.001953125 c 5
 469 297.001953125 430 272.001953125 378 272.001953125 c 4
 304 272.001953125 257 322.001953125 257 374.001953125 c 7
 257 399.001953125 261 420.001953125 272 440.001953125 c 5
 376 410.001953125 l 5
 376 402.001953125 l 5
 313 366.001953125 292 350.001953125 292 337.001953125 c 7
 292 323.001953125 306 317.001953125 327 317.001953125 c 7
 356 317.001953125 408.192382812 357.01953125 485 464.001953125 c 6
 513 503.001953125 l 6
 542.439453125 544.400390625 573 570.001953125 615 570.001953125 c 4
 643 570.001953125 660.833984375 561.782226562 674 552.001953125 c 4
 709 526.001953125 722.810546875 474.384765625 692.999023438 436.001953125 c 4
 653.38671875 385.001953125 558.000976562 414.001953125 533 478.001953125 c 5
275 265 m 3
 275 230.635742188 311 212 408 212 c 1
 529 212 575.75 286 618 368 c 1
 625 368 l 1
 625 270.6953125 605.825195312 197.170898438 590.484375 170 c 1
 553.765625 146.494140625 498.178710938 142 446 142 c 0
 378.188476562 142 326.916992188 157.250976562 279 204 c 1025
704 559.77734375 m 3
 704 494.876953125 973.571890362 336.999656399 897 203 c 0
 864.537109375 146.190429688 810 146 779 146 c 0
 751 146 711.181675781 159.258839844 687 176 c 0
 651.228290244 200.765029831 631 227.836914062 631 274 c 3
 631 317.177734375 662.709960938 350.536132812 684 364 c 1
 781 323 l 1
 781 315 l 1
 727 290 680.016601562 255.729492188 680.016601562 222 c 3
 680.016601562 206.662109375 686.967773438 197.806640625 696 192 c 0
 719 177.213867188 770.583093198 167.999950191 819 251 c 0
 893.666992188 379 707 460 657 560 c 1
 634 530 609.16015625 494.879882812 583 460 c 2
 577 452 l 2
 501.16015625 350.879882812 469 284 483 222 c 1
 464 176 409 145.258789062 366 145.258789062 c 0
 333 145.258789062 291 166.258789062 270 203.258789062 c 1
 246.465820312 171.931640625 207.741382748 146 155 146 c 0
 81 146 34 196 34 248 c 3
 34 273 38 294 49 314 c 1
 153 284 l 1
 153 276 l 1
 90 240 69 224 69 211 c 3
 69 197 83 191 104 191 c 3
 133 191 174 218 262 338 c 2
 288 374 l 2
 370 486 460 646 488 700 c 1
 574 664 l 1
 574 656 l 1
 523 618 449 549 382 460 c 2
 376 452 l 2
 312.191131654 366.921508872 274.801757812 299.458984375 274.801757812 254 c 0
 274.801757812 225 288.801757812 206 315.801757812 206 c 0
 353.801757812 206 378.432617188 223.215820312 464.801757812 341 c 2
 489 374 l 2
 570.828125 485.592773438 661 646 689 700 c 1
 775 664 l 1
 775 656 l 1
 724 616 704 593.909179688 704 559.77734375 c 3
EndSplineSet
Fore
SplineSet
310 352 m 1x6f
 290 321 277 288 277 265 c 3
 277 231 317 212 430 212 c 1
 551 212 598 286 640 368 c 1
 647 368 l 1
 647 271 627 197 612 170 c 1
 575 146 520 142 468 142 c 0x9f
 379 142 319 157 271 204 c 1
 246 171 207 146 155 146 c 0
 81 146 34 196 34 248 c 3
 34 273 38 294 49 314 c 1
 153 284 l 1
 153 276 l 1
 90 240 69 224 69 211 c 3
 69 197 83 191 104 191 c 3
 133 191 185 231 262 338 c 2
 290 377 l 2
 319 418 355 444 390 444 c 7
 440 444 478 407 478 364 c 3
 478 318.485674909 443.889694687 283.927734375 399 283.927734375 c 3
 361.430664062 283.927734375 325.97124746 311.113606503 310 352 c 1x6f
325 379 m 1
 332.528936086 360.177659786 346.036355459 354.457673843 359.999999362 354.457673843 c 3x2f
 382.047208013 354.457673843 410.411463427 372.11495722 410.411463427 393.99999962 c 3
 410.411463427 409.744128444 399.296435934 417.413083474 380.000000874 417.413083474 c 3
 365.030111154 417.413083474 345.172042968 408.697729925 325 379 c 1
EndSplineSet
Substitution2: "fina-1" n.fina
Substitution2: "medi-1" n.medi
Substitution2: "init-1" n.init
EndChar
StartChar: o
Encoding: 111 111 4
Width: 660
Flags: W
HStem: 142 70<329.959 508.405> 146 45<79.0733 181.211> 348 20G<326.893 388.907 599 627>
VStem: 34 35<194.911 260.5> 620 7<364.162 368>
LayerCount: 2
Back
SplineSet
104 191 m 3
 133 191 174 218 262 338 c 2
 288 374 l 2
 370 486 460 646 488 700 c 1
 574 664 l 1
 574 656 l 1
 523 618 449 549 382 460 c 2
 376 452 l 2
 300 351 268 284 282 222 c 1
 261 183 218 146 155 146 c 0
 81 146 34 196 34 248 c 3
 34 273 38 294 49 314 c 1
 153 284 l 1
 153 276 l 1
 90 240 69 224 69 211 c 3
 69 197 83 191 104 191 c 3
256 411.807617188 m 3
 226.057617188 411.807617188 188 401 136.5546875 339.661132812 c 1
 128.4453125 360.338867188 l 1
 188 427 244.564453125 448 296 448 c 3
 390.129882812 448 466 410.727539062 466 225 c 3
 466 41.1416015625 374.300236467 -4 273 -4 c 3
 212.143554688 -4 153 6 74 40 c 1
 154 36 l 1
 194 19 217.213867188 16 252 16 c 3
 324.612304688 16 380 68.0693359375 380 222 c 3
 380 372.3828125 318.776367188 411.807617188 256 411.807617188 c 3
EndSplineSet
Fore
SplineSet
284 291.500976562 m 5x78
 264 221 350 212 425 212 c 7
 521 212 578 286 620 368 c 5
 627 368 l 5
 627 271 607 197 592 170 c 5
 555 146 500 142 448 142 c 7xb8
 378.883789062 142 319 157 271 204 c 5
 247 171.363778392 207.421182651 146 155 146 c 4
 81 146 34 196 34 248 c 7
 34 273 38 294 49 314 c 5
 153 284 l 5
 153 276 l 5
 90 240 69 224 69 211 c 7
 69 197 83 191 104 191 c 7
 132 191 179.48421613 221.015597551 262 338 c 6
 341 450 l 5
 444 407 l 5
 444 399 l 5
 348 364 307 324.943359375 284 291.500976562 c 5x78
EndSplineSet
Substitution2: "fina-1" o.fina
Substitution2: "medi-1" o.medi
Substitution2: "init-1" o.init
EndChar
StartChar: p
Encoding: 112 112 29
Width: 780
Flags: W
HStem: -241 21G<543 580> 145.259 46<80.9273 179.5> 364 316G<473.355 535.778> 680 20G<474 535.778>
VStem: 34 35<195.763 259.759> 431 49.0166<206.435 295.589> 670 82<-84.0507 54.8929>
LayerCount: 2
Back
SplineSet
104 191 m 7
 133 191 174 218 262 338 c 6
 288 374 l 6
 370 486 460 646 488 700 c 5
 574 664 l 5
 574 656 l 5
 523 618 449 549 382 460 c 6
 376 452 l 6
 300 351 268 284 282 222 c 5
 261 183 218 146 155 146 c 4
 81 146 34 196 34 248 c 7
 34 273 38 294 49 314 c 5
 153 284 l 5
 153 276 l 5
 90 240 69 224 69 211 c 7
 69 197 83 191 104 191 c 7
EndSplineSet
Fore
SplineSet
543 -235 m 1xce
 617 -157 670 -62 670 3 c 3
 670 106.01953125 541 136.295898438 487 176 c 1
 606 158 l 1
 606 144 l 1
 664 122 752 69 752 -11 c 3
 752 -41 734 -93 708 -130 c 1
 652 -166 608 -184 552 -241 c 1
 543 -235 l 1xce
257 305.125 m 1
 326.5390625 261.388671875 403.346679688 204.098632812 449 152 c 1
 439 138 l 1
 349 182 l 1
 324.958984375 208.094726562 286.71484375 245.173828125 241 271.924804688 c 1
 257 305.125 l 1
104 191.258789062 m 0
 133 191.258789062 177.432617188 223.215820312 263.801757812 341 c 2
 288 374 l 2
 369.828125 485.592773438 460 646 488 700 c 1xde
 574 664 l 1
 574 656 l 1
 523 616 503 593.909179688 503 559.77734375 c 3
 503 494.876953125 773.572265625 337 697 203 c 0
 664.537109375 146.190429688 610 146 579 146 c 0
 551 146 511.181640625 159.258789062 487 176 c 0
 451.228515625 200.764648438 431 227.836914062 431 274 c 3
 431 317.177734375 462.709960938 350.536132812 484 364 c 1xee
 581 323 l 1
 581 315 l 1
 527 290 480.016601562 255.729492188 480.016601562 222 c 3
 480.016601562 206.662109375 486.967773438 197.806640625 496 192 c 0
 519 177.213867188 570.583007812 168 619 251 c 0
 693.666992188 379 506 460 456 560 c 1
 433 530 408.16015625 494.879882812 382 460 c 2
 376 452 l 2
 300.16015625 350.879882812 268 284 282 222 c 1
 257.727755033 171 201 145.258789062 158 145.258789062 c 0
 84 145.258789062 34 195.258789062 34 247.258789062 c 3
 34 272.258789062 38 293.258789062 49 313.258789062 c 1
 153 283.258789062 l 1
 153 275.258789062 l 1
 90 239.258789062 69 223.258789062 69 210.258789062 c 3
 69 196.258789062 83 191.258789062 104 191.258789062 c 0
EndSplineSet
Substitution2: "fina-1" p.fina
Substitution2: "medi-1" p.medi
Substitution2: "init-1" p.init
EndChar
StartChar: r
Encoding: 114 114 5
Width: 530
Flags: W
HStem: -242 21G<471.244 527> 3 52<121.332 219.61> 146 45<71.9755 149.228> 428 20G<326.634 390.421>
VStem: 34 35<192.445 260.5> 87 78<-32.23 21.0146> 181 59<63.3665 158.329>
LayerCount: 2
Back
SplineSet
104 191 m 3
 133 191 175.502678454 218.241668651 226 284 c 2
 291.2734375 369 l 1
 383.2734375 331 l 1
 383.2734375 323 l 1
 357.2734375 306 331.201181758 279.110343971 305 245 c 0
 251.999023437 176 211 146 154 146 c 0
 80 146 34 196 34 248 c 3
 34 273 38 294 49 314 c 1
 153 284 l 1
 153 276 l 1
 90 240 69 224 69 211 c 3
 69 197 83 191 104 191 c 3
EndSplineSet
Fore
SplineSet
99 191 m 3
 128 191 164.7578125 218.9296875 216 284 c 2
 342 448 l 1
 434 410 l 1
 434 402 l 1
 408 385 386.407226562 364 295 245 c 0
 241.999023438 176 201 146 144 146 c 0
 70 146 34 196 34 248 c 3
 34 273 38 294 49 314 c 1
 153 284 l 1
 153 276 l 1
 90 240 69 224 69 211 c 3
 69 197 78 191 99 191 c 3
221 251 m 1
 295 245 l 1
 242 176 240 153.036132812 240 107 c 3
 240 41.9638671875 310 -48 527 -236 c 1
 521 -242 l 1
 454 -215.068359375 l 1
 435 -194.102539062 384.31640625 -139.326171875 293 -45 c 0
 205.469726562 45.4150390625 181 86.9658203125 181 132 c 3
 181 181.008789062 200 220 221 251 c 1
290 -42 m 1
 257 -7 212 3 191 3 c 3
 175 3 165 -8 165 -22 c 3
 165 -36.7861328125 172 -51 215 -69 c 1
 209 -80 l 1
 160 -60 l 2
 105.157226562 -37.615234375 87 -17.080078125 87 9 c 3
 87 33.029296875 102.6640625 55 140 55 c 3
 170.461914062 55 198.388671875 44.2490234375 223 31 c 1
 227 36 l 1
 249.8828125 22.48828125 275.98828125 -4.44140625 300 -28 c 1
 290 -42 l 1
EndSplineSet
Substitution2: "fina-1" r.fina
Substitution2: "medi-1" r.medi
Substitution2: "init-1" r.init
EndChar
StartChar: s
Encoding: 115 115 31
Width: 590
Flags: W
HStem: 146 45<79.0733 186.5> 431 12G<169.182 198 255.182 284 331.531 357 417.531 443> 482 47<190.115 285.394> 621 47<276.115 371.394> 680 20G<474 535.778> 680 20G<474 535.778>
VStem: 34 35<194.911 260.5>
LayerCount: 2
Back
SplineSet
335 422 m 1
 308.06122449 468.444444444 274.857421875 482 256 482 c 3
 240 482 227.197160457 468.186583534 220.233398438 456 c 0
 204.233398438 428 143 434 143 483 c 3
 143 507 159 529 196 529 c 3
 262.189122973 529 307.608695652 490.903614458 347 436 c 1
 335 422 l 1
419 561 m 1
 392 607 350 616 331 616 c 3
 315 616 305 605 305 591 c 3
 305 576 312 562 355 544 c 1
 349 533 l 1
 300 553 l 2
 245 575 227 596 227 622 c 3
 227 646 243 668 280 668 c 3
 351 668 393 629 431 575 c 1
 419 561 l 1
EndSplineSet
Fore
SplineSet
345 422 m 1xf2
 318.061523438 468.444335938 286.857421875 482 264 482 c 3
 237.955078125 482 218 459 198 431.124023438 c 1
 191 431 l 1
 131 486 l 1
 131 491 l 1
 146 512 174.229492188 529 206 529 c 3
 272.189453125 529 317.608398438 490.903320312 357 436 c 1
 345 422 l 1xf2
243.999023438 213.999023438 m 5
 245.999023438 260.999023438 l 5
 268.999023438 292.999023438 l 5
 279.999023438 291.999023438 l 5
 369.351491768 271.769026057 706.159401279 63.4611725979 530 -161 c 4
 474.435546875 -231.799804688 410 -258 308 -218 c 4
 206 -178 196.122070312 -84.09765625 237 -33 c 4
 273 12 329 12 379 -9 c 4
 418 -25 433 -52 433 -78 c 7
 433 -105 423 -121 409 -133 c 5
 329 -101 l 5
 329 -93 l 5
 370 -76 401 -41 374 -28 c 4
 359 -21 343 -26 315 -62 c 4
 280 -108 278 -177 322 -196 c 4
 376 -219 421.853882313 -175.890031696 455 -132 c 4
 595.46875 54 408 264 243.999023438 213.999023438 c 5
431 561 m 1
 404.061523438 607.444335938 372.857421875 621 350 621 c 3
 323.955078125 621 304 598 284 570.124023438 c 1
 277 570 l 1
 217 625 l 1
 217 630 l 1
 232 651 260.229492188 668 292 668 c 3
 358.189453125 668 403.608398438 629.903320312 443 575 c 1
 431 561 l 1
104 191 m 3
 133 191 174 218 262 338 c 2
 288 374 l 2
 370 486 460 646 488 700 c 1xfa
 574 664 l 1
 574 656 l 1
 523 618 449 549 382 460 c 2
 376 452 l 2
 300 351 268 284 282 222 c 1
 261 183 218 146 155 146 c 0
 81 146 34 196 34 248 c 3
 34 273 38 294 49 314 c 1
 153 284 l 1
 153 276 l 1
 90 240 69 224 69 211 c 3
 69 197 83 191 104 191 c 3
EndSplineSet
Substitution2: "fina-1" s.fina
Substitution2: "medi-1" s.medi
Substitution2: "init-1" s.init
EndChar
StartChar: t
Encoding: 116 116 32
Width: 710
Flags: W
HStem: -241 21G<473 510> 146 45<79.0733 186.5> 367 20G<297.625 323 474 535.778> 680 20G<474 535.778>
VStem: 34 35<194.911 260.5> 600 82<-84.0869 86.8198>
LayerCount: 2
Back
SplineSet
473 -235 m 5
 547 -157 600 -62 600 13 c 7
 600 111 542 188 413 280 c 5
 421 294 l 5
 513 250 l 5
 595 189 682 99 682 -1 c 7
 682 -51 664 -93 638 -130 c 5
 582 -166 538 -184 482 -241 c 5
 473 -235 l 5
EndSplineSet
Fore
SplineSet
287 308 m 1
 289 355 l 1
 312 387 l 1
 323 386 l 1
 351.170898438 379.62109375 451.525042727 306.960553187 541 225.963867188 c 0
 631 144.491889305 682 81.54296875 682 -1 c 3
 682 -56.0693359375 664 -93 638 -130 c 1
 582 -166 538 -184 482 -241 c 1
 473 -235 l 1
 547 -157 600 -68.005859375 600 13 c 3
 600 92.6982421875 570 146 480 227.154296875 c 0
 415.71875 285.1171875 340.65625 325.560546875 287 308 c 1
257 305.125 m 1
 326.5390625 261.388671875 403.346679688 204.098632812 449 152 c 1
 439 138 l 1
 349 182 l 1
 324.958984375 208.094726562 286.71484375 245.173828125 241 271.924804688 c 1
 257 305.125 l 1
104 191 m 3
 133 191 174 218 262 338 c 2
 288 374 l 2
 370 486 460 646 488 700 c 1
 574 664 l 1
 574 656 l 1
 523 618 449 549 382 460 c 2
 376 452 l 2
 300 351 268 284 282 222 c 1
 261 183 218 146 155 146 c 0
 81 146 34 196 34 248 c 3
 34 273 38 294 49 314 c 1
 153 284 l 1
 153 276 l 1
 90 240 69 224 69 211 c 3
 69 197 83 191 104 191 c 3
EndSplineSet
Substitution2: "fina-1" t.fina
Substitution2: "medi-1" t.medi
Substitution2: "init-1" t.init
EndChar
StartChar: u
Encoding: 117 117 33
Width: 710
Flags: W
HStem: 142 66<509.529 608.746> 146 45<71.3763 164.319 254.547 352.931> 336 28<269.581 342.596>
VStem: 34 33<193.21 255.5> 357.438 69.832<225.368 316.241> 658 7<283.047 288>
LayerCount: 2
Back
SplineSet
84 191 m 7xf6
 113 191 154 218 242 338 c 6
 268 374 l 6
 350 486 440 646 468 700 c 5
 554 664 l 5
 554 656 l 5
 503 618 429 549 362 460 c 6
 356 452 l 6
 280 351 248 284 262 222 c 5
 241 183 198 146 135 146 c 4
 61 146 14 196 14 248 c 7
 14 273 18 294 29 314 c 5
 133 284 l 5
 133 276 l 5
 70 240 49 224 49 211 c 7
 49 197 63 191 84 191 c 7xf6
503 208 m 1
 547 208 595 226 626 288 c 1
 633 288 l 1
 633 235 629.932617188 187.170898438 621.591796875 160 c 1
 609.938476562 149 592 142 563 142 c 1
 521 142 461.034179688 154 384 255 c 1
 395 268 l 1
 430.875 227 469 208 503 208 c 1
282 177 m 0
 296 168 324.139648438 176 343 203 c 0
 368.845703125 240 360 272 316 318 c 1
 296 364 l 1
 364 292 462 234 421 175 c 0
 407.862304688 156.094726562 380 146 349 146 c 0
 321 146 290.184570312 154.263671875 266 171 c 0
 254 179.303710938 244 189 230 206 c 1
 240 218 l 1
 252 200 272.409179688 183.166015625 282 177 c 0
99 191 m 3
 125 191 155.817382812 204 206 270 c 2
 281.2734375 369 l 1
 296 364 l 1
 337 299 l 1
 330 290.185546875 321.201171875 279.110351562 295 245 c 0
 242 176 199 146 145 146 c 0
 71 146 34 196 34 248 c 3
 34 273 38 294 49 314 c 1
 153 284 l 1
 153 276 l 1
 90 240 69 224 69 211 c 3
 69 197 78 191 99 191 c 3
EndSplineSet
Fore
SplineSet
533 208 m 5xbc
 577 208 627 226 658 288 c 5
 665 288 l 5
 665 235 661.932617188 187.170898438 653.591796875 160 c 5
 641.938476562 149 624 142 595 142 c 5
 553 142 464 160 406 275 c 5
 417 288 l 5
 454 225 499 208 533 208 c 5xbc
306 336 m 3
 271.98828125 336 241 306 241 245 c 3
 241 232 243 219 245 208 c 1xbc
 222 171 190 146 147 146 c 0
 66 146 34 200 34 243 c 3
 34 268 38 294 50 314 c 1
 153 284 l 1
 153 276 l 1
 90 240 67 224 67 211 c 3
 67 197 82 191 98 191 c 3
 116.284458318 191 144.137295588 206.401329813 216 302.606703926 c 0
 241.015105649 336.095390682 269.909179688 364 313 364 c 3
 371 364 427.270507812 312.982421875 427.270507812 252 c 3
 427.270507812 187.211914062 380.77734375 146 323 146 c 0x7c
 289 146 249 160 220 206 c 1
 236 227 l 1
 246.55078125 204.172851562 263.9453125 196.80078125 286 196.80078125 c 3
 326.764648438 196.80078125 357.438476562 245.837890625 357.438476562 285 c 3
 357.438476562 316.620117188 335.326171875 336 306 336 c 3
EndSplineSet
Substitution2: "fina-1" u.fina
Substitution2: "medi-1" u.medi
Substitution2: "init-1" u.init
EndChar
StartChar: v
Encoding: 118 118 21
Width: 900
Flags: W
HStem: 142 70<628.992 761.283> 146 45<72.5724 153.027> 307 60<373.805 459.159> 424 20G<625.436 690.483>
VStem: 34 35<192.445 260.5> 858 7<347.175 351>
LayerCount: 2
Fore
SplineSet
636 444 m 1x3c
 715 415 l 1
 715 407 l 1
 543 240 l 1
 533 249 l 1
 636 444 l 1x3c
296 364 m 1
 505 146 l 1x7c
 499 140 l 1
 432 167 l 1
 400 211.655270655 339 284 278 340 c 1
 296 364 l 1
99 191 m 3
 125 191 156 204 206 270 c 2
 281 369 l 1
 296 364 l 1
 337 299 l 1
 330 290 321 279 295 245 c 0
 242 176 199 146 145 146 c 0
 71 146 34 196 34 248 c 3
 34 273 38 294 49 314 c 1
 153 284 l 1
 153 276 l 1
 90 240 69 224 69 211 c 3
 69 197 78 191 99 191 c 3
688 212 m 1xbc
 759 212 816 269 858 351 c 1
 865 351 l 1
 865 254 845 197 830 170 c 1
 805 154 762 142 730 142 c 0
 636 142 576 189 515 255 c 0
 479 296 454 307 430 307 c 3
 408 307 396 284 384 252 c 1
 377 259 l 0
 329 308 l 1
 347 354 368 367 400 367 c 3
 436 367 467 348 533 272 c 0
 580 219 635 212 688 212 c 1xbc
EndSplineSet
Substitution2: "fina-1" v.fina
Substitution2: "medi-1" v.medi
Substitution2: "init-1" v.init
EndChar
StartChar: w
Encoding: 119 119 34
Width: 710
Flags: W
HStem: 142 66<509.529 608.746> 146 45<71.3763 164.319 254.547 352.931> 336 28<269.581 342.596> 440 21G<261.998 325.675> 532 20G<280.325 344.002>
VStem: 34 33<193.21 255.5> 357.438 69.832<225.368 316.241> 658 7<283.047 288>
LayerCount: 2
Fore
SplineSet
310 440 m 5x3f
 238 469.999023438 l 5
 238 477.999023438 l 5
 296 552 l 5
 368 522.000976562 l 5
 368 514.000976562 l 5
 310 440 l 5x3f
EndSplineSet
Refer: 33 117 N 1 0 0 1 0 0 2
Substitution2: "fina-1" w.fina
Substitution2: "medi-1" w.medi
Substitution2: "init-1" w.init
EndChar
StartChar: y
Encoding: 121 121 19
Width: 530
Flags: W
HStem: -242 21G<471.244 527> 146 45<71.9755 149.368> 349 20G<265.915 329.694> 440 21G<251.998 315.675> 532 20G<270.325 334.002>
VStem: 34 35<192.445 260.5> 181 59<63.3665 158.329>
LayerCount: 2
Fore
SplineSet
300 440 m 5
 228 469.999023438 l 5
 228 477.999023438 l 5
 286 552 l 5
 358 522.000976562 l 5
 358 514.000976562 l 5
 300 440 l 5
EndSplineSet
Refer: 25 234 N 1 0 0 1 0 0 2
Substitution2: "fina-1" y.fina
Substitution2: "medi-1" y.medi
Substitution2: "init-1" y.init
EndChar
StartChar: z
Encoding: 122 122 15
Width: 670
Flags: W
HStem: 146 45<75.6591 153.081> 596 68<335.471 630.927> 629 79G<476.209 510 638.5 658>
VStem: 34 35<192.942 260.5> 262 396<596 708>
LayerCount: 2
Back
SplineSet
297 -218 m 0
 208 -182 196 -89 237 -38 c 0
 273 7 329 7 379 -14 c 0
 418 -30 433 -57 433 -83 c 3
 433 -110 423 -126 409 -138 c 1
 329 -106 l 1
 329 -98 l 1
 370 -81 401 -46 374 -33 c 0
 359 -26 343 -31 315 -67 c 0
 280 -113 278 -182 322 -201 c 0
 376 -224 422 -176 455 -132 c 0
 548 -8 484 134 265 275 c 1
 273 289 l 1
 365 245 l 1
 515 124 643 -11 530 -161 c 0
 476 -233 392 -256 297 -218 c 0
104 191 m 3
 133 191 174 218 262 338 c 2
 288 374 l 2
 370 486 460 646 488 700 c 1
 574 664 l 1
 574 656 l 1
 523 618 449 549 382 460 c 2
 376 452 l 2
 300 351 268 284 282 222 c 1
 261 183 218 146 155 146 c 0
 81 146 34 196 34 248 c 3
 34 273 38 294 49 314 c 1
 153 284 l 1
 153 276 l 1
 90 240 69 224 69 211 c 3
 69 197 83 191 104 191 c 3
-196.536132812 257.268554688 m 1
 -149 210 -107.081054688 194 -50 194 c 3
 26.6552734375 194 68.3192265792 226.20121507 151 338 c 2
 381 649 l 1
 407 635 l 1
 274 458 l 2
 190.862111877 347.357848137 185 277 185 215 c 1
 149 170 95.072265625 146 20 146 c 3
 -69.0898422942 146 -156 190 -207.025390625 243.688476562 c 1
 -196.536132812 257.268554688 l 1
251 524 m 1
 297 501 l 1
 289.021484375 501.629882812 277.989257812 496.599609375 270 498 c 1
 163 533 142 557.419921875 142 596 c 3
 142 649.150390625 179 664 265 664 c 1
 430 664 l 1
 510 664 551 670 551 708 c 1
 558 708 l 1
 622 660 615 595 532 595 c 1
 254 595 l 1
 206 595 208 549 251 524 c 1
349 551 m 1
 316 586 272.59375 596 256 596 c 3
 243.737304688 596 230 583 230 569 c 3
 230 554.213867188 234 540 280 517 c 1
 274 506 l 1
 210 530 l 1
 166 545 150 571.919921875 150 597 c 3
 150 621.029296875 167.6640625 648 205 648 c 3
 268.28515625 648 306 617 359 565 c 1
 349 551 l 1
EndSplineSet
Fore
SplineSet
243.999023438 213.999023438 m 1x98
 245.999023438 260.999023438 l 1
 268.999023438 292.999023438 l 1
 279.999023438 291.999023438 l 1
 369.351491768 271.769026057 706.159401279 63.4611725979 530 -161 c 0
 474.435546875 -231.799804688 410 -258 308 -218 c 0
 206 -178 196.122070312 -84.09765625 237 -33 c 0
 273 12 329 12 379 -9 c 0
 418 -25 433 -52 433 -78 c 3
 433 -105 423 -121 409 -133 c 1
 329 -101 l 1
 329 -93 l 1
 370 -76 401 -41 374 -28 c 0
 359 -21 343 -26 315 -62 c 0
 280 -108 278 -177 322 -196 c 0
 376 -219 421.853882313 -175.890031696 455 -132 c 0
 595.46875 54 408 264 243.999023438 213.999023438 c 1x98
261 338 m 2
 491 649 l 1
 510 635 l 1
 380 458 l 2
 302.49609375 355.625 269 292 281 220 c 1
 255 177 217 146 150 146 c 1
 76 146 34 196 34 248 c 3
 34 273 38 294 49 314 c 1
 153 284 l 1
 153 276 l 1
 90 240 69 224 69 211 c 3
 69 197 83 191 104 191 c 3
 133 191 165 208 261 338 c 2
361 524 m 5
 407 501 l 5
 399.021484375 501.629882812 387.989257812 496.599609375 380 498 c 5
 289 527 262 557.419921875 262 596 c 7
 262 638.150390625 299 664 385 664 c 5
 490 664 l 5xd8
 590 664 626 668 651 708 c 5
 658 708 l 5xb8
 658 641 642 612 601 596 c 5
 374 596 l 5xd8
 326 596 318 549 361 524 c 5
EndSplineSet
Substitution2: "fina-1" z.fina
Substitution2: "medi-1" z.medi
Substitution2: "init-1" z.init
EndChar
StartChar: asciitilde
Encoding: 126 126 314
Width: 250
Flags: W
HStem: 235 33<40 210>
VStem: 40 170<235 268>
LayerCount: 2
Fore
SplineSet
0 146 m 1
 0 206 l 5
 250 206 l 29
 250 146 l 25
 0 146 l 1
EndSplineSet
Substitution2: "fina-1" asciitilde.fina
Substitution2: "medi-1" asciitilde.medi
Substitution2: "init-1" asciitilde.init
EndChar
StartChar: adieresis
Encoding: 228 228 26
Width: 590
Flags: W
HStem: -241 21G<373 410> 146 45<79.0733 186.5> 496 21G<230 257.605> 680 20G<300 362.483 300 362.483 474 535.778 474 535.778>
VStem: 34 35<194.911 260.5> 500 82<-82.035 56.3235>
LayerCount: 2
Fore
SplineSet
306 -28 m 5
 234 1.9990234375 l 5
 234 9.9990234375 l 5
 292 84 l 5
 364 54.0009765625 l 5
 364 46.0009765625 l 5
 306 -28 l 5
EndSplineSet
Refer: 7 97 N 1 0 0 1 0 0 2
Substitution2: "fina-1" adieresis.fina
Substitution2: "medi-1" adieresis.medi
Substitution2: "init-1" adieresis.init
EndChar
StartChar: ecircumflex
Encoding: 234 234 25
Width: 530
Flags: W
HStem: -242 21G<471.244 527> 146 45<71.9755 149.368> 349 20G<265.915 329.694>
VStem: 34 35<192.445 260.5> 181 59<63.3665 158.329>
LayerCount: 2
Fore
SplineSet
99 191 m 7
 128 191 165.502929688 218.241210938 216 284 c 6
 281.2734375 369 l 5
 373.2734375 331 l 5
 373.2734375 323 l 5
 347.2734375 306 321.201171875 279.110351562 295 245 c 4
 241.999023438 176 201 146 144 146 c 4
 70 146 34 196 34 248 c 7
 34 273 38 294 49 314 c 5
 153 284 l 5
 153 276 l 5
 90 240 69 224 69 211 c 7
 69 197 78 191 99 191 c 7
221 251 m 5
 295 245 l 5
 242 176 240 153.036132812 240 107 c 7
 240 41.9638671875 310 -48 527 -236 c 5
 521 -242 l 5
 454 -215.068359375 l 5
 435 -194.102539062 384.31640625 -139.326171875 293 -45 c 4
 205.469726562 45.4150390625 181 86.9658203125 181 132 c 7
 181 181.008789062 200 220 221 251 c 5
EndSplineSet
Substitution2: "fina-1" edieresis.fina
Substitution2: "medi-1" edieresis.medi
Substitution2: "init-1" edieresis.init
EndChar
StartChar: edieresis
Encoding: 235 235 49
Width: 530
Flags: W
HStem: 0 8<33 48.4729 224.643 237 603.649 616> 273 18<133 273.321> 644 24<181.921 323.659> 656 8<33 45.3572>
VStem: 95 80<27.8962 273 291 635.651> 410 88<384.015 578.654>
LayerCount: 2
Fore
SplineSet
99 191 m 3xcc
 128 191 165.502929688 218.241210938 216 284 c 2
 281.2734375 369 l 1
 373.2734375 331 l 1
 373.2734375 323 l 1
 347.2734375 306 321.201171875 279.110351562 295 245 c 0
 241.999023438 176 201 146 144 146 c 0
 70 146 34 196 34 248 c 3
 34 273 38 294 49 314 c 1
 153 284 l 1
 153 276 l 1
 90 240 69 224 69 211 c 3
 69 197 78 191 99 191 c 3xcc
221 251 m 1
 295 245 l 1
 242 176 240 153.036132812 240 107 c 3
 240 41.9638671875 310 -48 527 -236 c 1
 521 -242 l 1
 454 -215.068359375 l 1
 435 -194.102539062 384.31640625 -139.326171875 293 -45 c 0
 205.469726562 45.4150390625 181 86.9658203125 181 132 c 3
 181 181.008789062 200 220 221 251 c 1
EndSplineSet
Substitution2: "fina-1" edieresis.fina
Substitution2: "medi-1" edieresis.medi
Substitution2: "init-1" edieresis.init
EndChar
StartChar: odieresis
Encoding: 246 246 35
Width: 660
Flags: W
HStem: 142 70<329.959 508.405> 146 45<79.0733 181.211> 348 20G<326.893 388.907 599 627>
VStem: 34 35<194.911 260.5> 620 7<364.162 368>
LayerCount: 2
Fore
SplineSet
306 -28 m 5x38
 234 1.9990234375 l 5
 234 9.9990234375 l 5
 292 84 l 5
 364 54.0009765625 l 5
 364 46.0009765625 l 5
 306 -28 l 5x38
EndSplineSet
Refer: 4 111 N 1 0 0 1 0 0 2
Substitution2: "fina-1" odieresis.fina
Substitution2: "medi-1" odieresis.medi
Substitution2: "init-1" odieresis.init
EndChar
StartChar: udieresis
Encoding: 252 252 36
Width: 710
Flags: W
HStem: 142 66<509.529 608.746> 146 45<71.3763 164.319 254.547 352.931> 336 28<269.581 342.596>
VStem: 34 33<193.21 255.5> 357.438 69.832<225.368 316.241> 658 7<283.047 288>
LayerCount: 2
Fore
SplineSet
306 -28 m 5x3c
 234 1.9990234375 l 5
 234 9.9990234375 l 5
 292 84 l 5
 364 54.0009765625 l 5
 364 46.0009765625 l 5
 306 -28 l 5x3c
EndSplineSet
Refer: 33 117 N 1 0 0 1 0 0 2
Substitution2: "fina-1" udieresis.fina
Substitution2: "medi-1" udieresis.medi
Substitution2: "init-1" udieresis.init
EndChar
StartChar: a.fina.desc
Encoding: 502 -1 281
Width: 610
Flags: W
HStem: -241 20G<221.976 258 331.37 387> 48 60<188.405 293.02> 146 60<0 19.2865> 349 20G<125.706 189.421 291 404.5> 683 20G<291 404.5>
VStem: 41 59<63.3047 160.292> 496 89<423.222 542.292>
LayerCount: 2
Back
SplineSet
100 247 m 5
 174 241 l 5
 121.94140625 177 113 153.036132812 113 107 c 7
 113 41.9638671875 183 -48 400 -236 c 5
 394 -242 l 5
 327 -215.068359375 l 5
 308 -194.102539062 257.31640625 -139.326171875 166 -45 c 4
 78.4698522359 45.4151192682 54 86.9658203125 54 132 c 7
 54 181.008789062 73 213 100 247 c 5
344 0 m 7
 263 0 203 34 163.510742188 70.419921875 c 5
 172 82 l 5
 198 69 237.956054688 60 276 60 c 7
 343.655273438 60 395.913085938 88.376953125 449 161 c 6
 574 332 l 6
 657.309187358 445.966968306 668 572.778320312 341 690.778320312 c 5
 347 702.778320312 l 5
 944 512.778320312 708.749051231 461.557595711 587 304 c 6
 570 282 l 6
 515.012695312 210.83984375 479 133 489 70 c 5
 448 25 400.072265625 0 344 0 c 7
154 -113.572265625 m 5
 278 -235 l 5
 271 -241 l 5
 33 -77 l 5
 38 -66 l 5
 154 -113.572265625 l 5
-0 145.998046875 m 5
 -90 190.998046875 l 5
 -82 205.998046875 l 5
 -18 205.998046875 42.2783203125 212.828125 97 284 c 6
 161.584960938 368 l 5
 254.431640625 330 l 5
 253.584960938 319 l 5
 227.000976562 298.805664062 205 279 174 241 c 4
 124.905276333 180.819370989 66 145.998046875 -0 145.998046875 c 5
289.000976562 45.998046875 m 1xd8
 221.001953125 85.998046875 l 1
 221.000976562 105.998046875 l 1
 278.000976562 105.998046875 325.000976562 117.998046875 375.000976562 183.998046875 c 2
 440.000976562 268.998046875 l 1
 455.000976562 263.998046875 l 1
 496.000976562 198.998046875 l 1
 489.000976562 189.998046875 480.07421875 178.942382812 454.000976562 144.998046875 c 0
 401.000976562 75.998046875 346.000976562 45.998046875 289.000976562 45.998046875 c 1xd8
289.00390625 45.998046875 m 1
 179.00390625 45.998046875 97.00390625 115.998046875 29.00390625 215.998046875 c 1
 15.00390625 263.998046875 l 1
 99.00390625 153.998046875 146.00390625 105.998046875 221.00390625 105.998046875 c 1
 289.00390625 65.9990234375 l 25
 289.00390625 45.998046875 l 1
EndSplineSet
Fore
SplineSet
0 146 m 1
 -68 186 l 1
 -68 206 l 1
 -11 206 26 218 76 284 c 2
 141 369 l 1
 233 331 l 1
 233 323 l 1
 207 306 181 279 155 245 c 0
 102 176 57 146 0 146 c 1
81 251 m 1
 155 245 l 1
 102 176 100 153 100 107 c 3
 100 42 170 -48 387 -236 c 1
 381 -242 l 1
 314 -215 l 1
 295 -194 244 -139 153 -45 c 0
 65 45 41 87 41 132 c 3
 41 181 60 220 81 251 c 1
280 48 m 7
 225 48 161 78 117 114 c 5
 126 126 l 5
 152 113 181 108 212 108 c 7
 270 108 317 134 371 206 c 6
 441 299 l 6
 474 343 496 397 496 452 c 7
 496 539 442 630 291 691 c 5
 297 703 l 5
 512 623 585 559 585 494 c 7
 585 437 534 378 477 304 c 6
 460 282 l 6
 405 211 401 178 411 115 c 5
 388 76 336 48 280 48 c 7
134 -114 m 1
 258 -235 l 1
 251 -241 l 1
 13 -77 l 1
 18 -66 l 1
 134 -114 l 1
EndSplineSet
EndChar
StartChar: a.medi.desc
Encoding: 501 -1 280
Width: 400
Flags: W
HStem: -241 20G<221.976 258 331.37 387> 146 60<0 19.2865 292.277 332> 349 20G<125.706 189.421>
VStem: 41 59<63.3047 160.292>
LayerCount: 2
Back
SplineSet
237 67 m 5
 231 61 l 5
 161 128 l 5
 172 166 206 196 230 206 c 5
 253 206 303 206 332 206 c 5
 400 166 l 5
 400 146 l 5
 314 146 266 140 237 67 c 5
259 79 m 1
 252.9765625 73 l 1
 167 116 l 1
 167 173.347209713 207.14657959 206 271 206 c 1
 339.958984375 166 l 1
 339.958984375 146 l 1
 308 146 259 130 259 79 c 1
259 79 m 1
 252.9765625 73 l 1
 167 116 l 1
 167 173.347209713 207.14657959 206 271 206 c 1
 339.958984375 166 l 1
 339.958984375 146 l 1
 308 146 259 130 259 79 c 1
256.877929688 29 m 1
 249.854492188 20 l 1
 176.854492188 96.7783203125 l 1
 166 127 174 174 218 198 c 1
 235 203 257.583984375 206 271 206 c 1
 339.958984375 166 l 1
 339.958984375 146 l 1
 318.25 146 306 144 285.88034188 137 c 1
 255 115.064285714 243.999023438 98 243.999023438 74 c 3
 243.999023438 56 246.854492188 43 256.877929688 29 c 1
324 0 m 3
 243 0 183 34 143.510742188 70.419921875 c 1
 152 82 l 1
 178 69 217.956054688 60 256 60 c 3
 323.655273438 60 375.913085938 88.376953125 429 161 c 2
 554 332 l 2
 637.309570312 445.966796875 648 572.778320312 321 690.778320312 c 1
 327 702.778320312 l 1
 924 512.778320312 688.749023438 461.557617188 567 304 c 2
 550 282 l 2
 495.012695312 210.83984375 459 133 469 70 c 1
 428 25 380.072265625 0 324 0 c 3
EndSplineSet
Fore
SplineSet
400 146 m 1
 290 146 220.76 194 150 316 c 1
 163.000976562 330 l 1
 206.455078125 260 257 206 332 206 c 1
 400 166.000976562 l 25
 400 146 l 1
0 146 m 1
 -68 186 l 1
 -68 206 l 1
 -11 206 26 218 76 284 c 2
 141 369 l 1
 233 331 l 1
 233 323 l 1
 207 306 181 279 155 245 c 0
 102 176 57 146 0 146 c 1
81 251 m 1
 155 245 l 1
 102 176 100 153 100 107 c 3
 100 42 170 -48 387 -236 c 1
 381 -242 l 1
 314 -215 l 1
 295 -194 244 -139 153 -45 c 0
 65 45 41 87 41 132 c 3
 41 181 60 220 81 251 c 1
134 -114 m 5
 258 -235 l 5
 251 -241 l 5
 13 -77 l 5
 18 -66 l 5
 134 -114 l 5
EndSplineSet
EndChar
StartChar: a.medi
Encoding: 298 -1 77
Width: 300
Flags: W
HStem: 146 60<0 5.86419 194.911 231.999> 496 21G<80 107.605> 680 20G<150 212.483 324 385.778> 680 20G<150 212.483 324 385.778>
LayerCount: 2
Fore
SplineSet
-68 206 m 5xe0
 -27 206 24.8759765625 217.3671875 112 338 c 6
 138 374 l 6
 220 486 310 646 338 700 c 5
 424 664 l 5
 424 656 l 5
 373 618 299 549 232 460 c 6
 226 452 l 6
 150 351 118 284 132 222 c 5
 111.791992188 181 63 146 0 146 c 5
 -68 186 l 29
 -68 206 l 5xe0
299.999023438 145.999023438 m 1
 203.999023438 145.999023438 146.55859375 190.999023438 112.999023438 234.999023438 c 1
 123.999023438 247.999023438 l 1
 144.999023438 223.999023438 192.999023438 205.999023438 231.999023438 205.999023438 c 1
 299.999023438 165.999023438 l 1
 299.999023438 145.999023438 l 1
158 700 m 1
 237 671 l 1
 237 663 l 1
 90 496 l 1
 80 505 l 25
 158 700 l 1
EndSplineSet
Substitution2: "desc-1" a.medi.desc
EndChar
StartChar: a_a.fina.desc
Encoding: 528 -1 310
Width: 610
Flags: W
HStem: -241 21G<221.976 258 331.37 387 481.976 518> -50 75<-21.6931 144.814> 146 60<0 19.2865> 369 314G<125.706 189.421 291 404.5> 416 25<31 295> 683 20G<291 404.5>
VStem: -86 50<38.4891 93.3442> 41 59<70.6438 160.292> 496 89<423.084 542.292>
LayerCount: 2
Back
SplineSet
114 -40 m 7
 14.9192248718 -40 -29 3 -29 46 c 7
 -29 83.0348695827 0 114 41 132 c 5
 46 122 l 5
 22 108 12 94 12 74 c 7
 12 53 35.8265976969 34 108 34 c 7
 186.025390625 34 274 75.4541015625 328 147.454101562 c 6
 441 299 l 6
 473.856885489 343.064833906 496 397 496 452 c 7
 496 539 442 630 291 691 c 5
 297 703 l 5xcf
 512 623 585 559 585 494 c 7
 585 437 534.609429617 377.040526836 477 304 c 6
 421 233 l 6
 366 162 362 129 372 66 c 5
 320 11.150997151 217.045898438 -40 114 -40 c 7
74 -40 m 3
 17 -40 -27 0 -27 43 c 3
 -27 86 0 114 41 132 c 1
 46 122 l 1
 22 108 12 94 12 74 c 3
 12 53 28.99609375 34 68 34 c 3
 233 34 317 134 371 206 c 2
 441 299 l 2
 474 343 496 397 496 452 c 3
 496 539 442 630 291 691 c 1
 297 703 l 1
 512 623 585 559 585 494 c 3
 585 437 534 378 477 304 c 2
 460 282 l 2
 405 211 401 178 411 115 c 1
 388 76 297 -40 74 -40 c 3
EndSplineSet
Fore
SplineSet
99 -50 m 7xe780
 -9 -50 -86 -8.0350769264 -86 49 c 7
 -86 108.539902586 -17 141.303030303 56 86 c 5
 72 50 l 5
 16 105 -36 106 -36 69 c 7
 -36 42 -5 25 69 25 c 7
 168 25 274.201347201 75.3039672867 328 147.454101562 c 6
 441 299 l 6
 473.856885489 343.064833906 496 397 496 452 c 7
 496 539 442 630 291 691 c 5
 297 703 l 5
 512 623 585 559 585 494 c 7
 585 437 534.609429617 377.040526836 477 304 c 6
 421 233 l 6
 366 162 362 129 372 66 c 5
 320 11.150997151 215 -50 99 -50 c 7xe780
31 416 m 25xeb80
 31 441 l 25
 295 441 l 25
 295 416 l 25
 31 416 l 25xeb80
394 -114 m 1
 518 -235 l 1
 511 -241 l 1
 273 -77 l 1
 278 -66 l 1
 394 -114 l 1
134 -114 m 1
 258 -235 l 1
 251 -241 l 1
 13 -77 l 1
 18 -66 l 1
 134 -114 l 1
0 146 m 1
 -68 186 l 1
 -68 206 l 1
 -11 206 26 218 76 284 c 2
 141 369 l 1xf380
 233 331 l 1
 233 323 l 1
 207 306 181 279 155 245 c 0
 102 176 57 146 0 146 c 1
81 251 m 1
 155 245 l 1
 102 176 100 153 100 107 c 3
 100 42 170 -48 387 -236 c 1
 381 -242 l 1
 314 -215 l 1
 295 -194 244 -139 153 -45 c 0
 65 45 41 87 41 132 c 3
 41 181 60 220 81 251 c 1
EndSplineSet
EndChar
StartChar: a_a.fina
Encoding: 401 -1 180
Width: 620
Flags: W
HStem: -240.996 21G<303 340> 41 25<80 314> 396.004 48<38.333 160.253> 496 11G<90 117.605 398 430.26> 680 20G<160 222.483 334 395.778 513.512 580.483> 680 20G<160 222.483 334 395.778 513.512 580.483>
VStem: 0.000976562 78<351.804 405.019> 430 82<-74.941 121.638>
LayerCount: 2
Fore
SplineSet
123.000976562 396.00390625 m 3xf3
 93 396.00390625 78.0009765625 381.00390625 78.0009765625 364.00390625 c 3
 78.0009765625 346.217773438 92 325.07421875 128.000976562 310.00390625 c 1
 119.000976562 296.00390625 l 1
 67.6181640625 316.9765625 0.0009765625 352.388671875 0.0009765625 393.00390625 c 3
 0.0009765625 417.033203125 17.6650390625 444.00390625 59.0009765625 444.00390625 c 3
 215.501953125 444.00390625 512 250.012695312 512 12.00390625 c 3
 512 -47.99609375 494 -92.99609375 468 -129.99609375 c 1
 412 -165.99609375 368 -183.99609375 312 -240.99609375 c 1
 303 -234.99609375 l 1
 377 -156.99609375 430 -59.99609375 430 36.00390625 c 3
 430 227.419921875 232 396.00390625 123.000976562 396.00390625 c 3xf3
-68 206 m 1
 -27 206 34.8759765625 217.3671875 122 338 c 2
 148 374 l 2
 230 486 320 646 348 700 c 1xfb
 434 664 l 1
 434 656 l 1
 383 618 309 549 242 460 c 2
 236 452 l 2
 160 351 128 284 142 222 c 1
 121.791992188 181 63 146 0 146 c 1
 -68 186 l 25
 -68 206 l 1
80 41 m 25
 80 66 l 25
 314 66 l 25
 314 41 l 25
 80 41 l 25
526 700 m 5
 605 671 l 5
 605 663 l 5
 408 486 l 5
 398 495 l 29
 526 700 l 5
168 700 m 1
 247 671 l 1
 247 663 l 1
 100 496 l 1
 90 505 l 25
 168 700 l 1
EndSplineSet
Substitution2: "desc-1" a_a.fina.desc
EndChar
StartChar: a_a
Encoding: 263 -1 41
Width: 750
Flags: W
HStem: -241 21G<443 480> 41 25<220 454> 146 45<79.0733 186.5> 396 48<178.333 300.253> 496 11G<230 257.605 538 570.26> 680 20G<300 362.483 474 535.778 653.512 720.483> 680 20G<300 362.483 474 535.778 653.512 720.483>
VStem: 34 35<194.911 260.5> 140.001 78<351.8 405.015> 570 82<-74.9449 121.634>
LayerCount: 2
Fore
SplineSet
220 41 m 29xf9c0
 220 66 l 29
 454 66 l 29
 454 41 l 29
 220 41 l 29xf9c0
263.000976562 396 m 3
 233 396 218.000976562 381 218.000976562 364 c 3
 218.000976562 346.213867188 232 325.0703125 268.000976562 310 c 1
 259.000976562 296 l 1
 207.618164062 316.97265625 140.000976562 352.384765625 140.000976562 393 c 3
 140.000976562 417.029296875 157.665039062 444 199.000976562 444 c 3
 355.501953125 444 652 250.008403213 652 12 c 3
 652 -48 634 -93 608 -130 c 1
 552 -166 508 -184 452 -241 c 1
 443 -235 l 1
 517 -157 570 -60 570 36 c 3
 570 227.416015625 372 396 263.000976562 396 c 3
666 700 m 1xfdc0
 745 671 l 1
 745 663 l 1
 548 486 l 1
 538 495 l 25
 666 700 l 1xfdc0
104 191 m 3
 133 191 174 218 262 338 c 2
 288 374 l 2
 370 486 460 646 488 700 c 1
 574 664 l 1
 574 656 l 1
 523 618 449 549 382 460 c 2
 376 452 l 2
 300 351 268 284 282 222 c 1
 261 183 218 146 155 146 c 0
 81 146 34 196 34 248 c 3
 34 273 38 294 49 314 c 1
 153 284 l 1
 153 276 l 1
 90 240 69 224 69 211 c 3
 69 197 83 191 104 191 c 3
308 700 m 1
 387 671 l 1
 387 663 l 1
 240 496 l 1
 230 505 l 25
 308 700 l 1
EndSplineSet
Substitution2: "fina-1" a_a.fina
Substitution2: "medi-1" a_a.medi
Substitution2: "init-1" a_a.init
Ligature2: "liga-1" a a
LCarets2: 1 0
EndChar
StartChar: a_a.init
Encoding: 399 -1 178
Width: 620
Flags: W
HStem: 41 25<220 454> 146 45<79.0733 186.5> 146.001 60<531.992 552> 392.001 52<181.333 268.559> 496 11G<230 257.605 538 570.26> 680 20G<300 362.483 474 535.778 653.512 720.483> 680 20G<300 362.483 474 535.778 653.512 720.483>
VStem: 34 35<194.911 260.5> 140.001 78<351.929 405.016>
LayerCount: 2
Fore
SplineSet
251.000976562 392.000976562 m 3xb980
 228 392.000976562 218.000976562 376.000976562 218.000976562 362.000976562 c 3
 218.000976562 347.21484375 232 325.071289062 268.000976562 310.000976562 c 1
 259.000976562 296.000976562 l 1
 207.618164062 316.973632812 140.000976562 352.385742188 140.000976562 393.000976562 c 3
 140.000976562 417.030273438 160.665039062 444.000976562 202.000976562 444.000976562 c 3
 322 444.000976562 437 206.000976562 552 206.000976562 c 1
 620 166.001953125 l 25
 620 146.000976562 l 1
 442 146.000976562 304.00390625 392.000976562 251.000976562 392.000976562 c 3xb980
220 41 m 25
 220 66 l 25
 454 66 l 25
 454 41 l 25
 220 41 l 25
666 700 m 1x9d80
 745 671 l 1
 745 663 l 1
 548 486 l 1
 538 495 l 25
 666 700 l 1x9d80
104 191 m 3xdd80
 133 191 174 218 262 338 c 2
 288 374 l 2
 370 486 460 646 488 700 c 1
 574 664 l 1
 574 656 l 1
 523 618 449 549 382 460 c 2
 376 452 l 2
 300 351 268 284 282 222 c 1
 261 183 218 146 155 146 c 0
 81 146 34 196 34 248 c 3
 34 273 38 294 49 314 c 1
 153 284 l 1
 153 276 l 1
 90 240 69 224 69 211 c 3
 69 197 83 191 104 191 c 3xdd80
308 700 m 1
 387 671 l 1
 387 663 l 1
 240 496 l 1
 230 505 l 25
 308 700 l 1
EndSplineSet
EndChar
StartChar: a_a.medi.desc
Encoding: 527 -1 309
Width: 510
Flags: W
HStem: -241 21G<221.976 258 331.37 387 481.976 518> -50 75<-26.983 105.225> 146 60<0 19.2865 416.116 442> 349 20G<125.706 189.421> 416 25<31 295>
VStem: -86 50<37.5061 92.8706> 41 59<70.6438 160.292>
LayerCount: 2
Back
SplineSet
393 206 m 5
 401 206 l 5
 469 166 l 5
 469 146 l 5
 447 146 l 5
 376 143.7578125 336.671875 132.6640625 282 59 c 4
 226.336914062 -16 177.102539062 -40 101.84765625 -40 c 7
 23.7451171875 -40 -30 1 -30 43 c 7
 -30 84 -1 114 40 132 c 5
 45 122 l 5
 21 108 11 94 11 74 c 7
 11 53 38.1298828125 35 88.15234375 35 c 7
 137.14453125 35 181.163085938 52 225 113 c 4
 271.711914062 178 328 206 393 206 c 5
113 -40 m 3
 13.9189453125 -40 -30 3 -30 46 c 3
 -30 83.03515625 -1 114 40 132 c 1
 45 122 l 1
 21 108 11 94 11 74 c 3
 11 53 34.826171875 34 107 34 c 3
 185.025390625 34 273 75.4541015625 327 147.454101562 c 2
 440 299 l 2
 472.856445312 343.064453125 495 397 495 452 c 3
 495 539 441 630 290 691 c 1
 296 703 l 1
 511 623 584 559 584 494 c 3
 584 437 533.609375 377.040039062 476 304 c 2
 420 233 l 2
 365 162 361 129 371 66 c 1
 319 11.1513671875 216.045898438 -40 113 -40 c 3
EndSplineSet
Fore
SplineSet
330 250 m 5
 390 195 l 5
 363 159 l 5
 281.2109375 48 182 -50 69 -50 c 7
 -2 -50 -86 -14 -86 49 c 7
 -86 118 -10 136 56 86 c 5
 72 50 l 5
 16 105 -36 106 -36 69 c 7
 -36 42 -5 25 39 25 c 7
 134 25 224.530273438 98 296 201 c 6
 330 250 l 5
510 146 m 1
 414 146 372 194 330 250 c 1
 350 242 l 1
 371 218 403 206 442 206 c 1
 510 166 l 1
 510 146 l 1
31 416 m 25
 31 441 l 25
 295 441 l 25
 295 416 l 25
 31 416 l 25
394 -114 m 1
 518 -235 l 1
 511 -241 l 1
 273 -77 l 1
 278 -66 l 1
 394 -114 l 1
134 -114 m 1
 258 -235 l 1
 251 -241 l 1
 13 -77 l 1
 23 -66 l 1
 134 -114 l 1
0 146 m 1
 -68 186 l 1
 -68 206 l 1
 -11 206 26 218 76 284 c 2
 141 369 l 1
 233 331 l 1
 233 323 l 1
 207 306 181 279 155 245 c 0
 102 176 57 146 0 146 c 1
81 251 m 1
 155 245 l 1
 102 176 100 153 100 107 c 3
 100 42 170 -48 387 -236 c 1
 381 -242 l 1
 314 -215 l 1
 295 -194 244 -139 153 -45 c 0
 65 45 41 87 41 132 c 3
 41 181 60 220 81 251 c 1
EndSplineSet
EndChar
StartChar: adieresis.fina.desc
Encoding: 518 -1 300
Width: 610
Flags: W
HStem: -241 20G<221.976 258 331.37 387> 48 60<188.405 293.02> 146 60<0 19.2865> 369 163G<125.706 193.728 291 404.5> 440 21G<111.725 175.402> 683 20G<291 404.5>
VStem: 41 59<63.3047 160.292> 496 89<423.222 542.292>
LayerCount: 2
Fore
SplineSet
159.7265625 440 m 1xef
 87.7265625 469.999023438 l 1
 87.7265625 477.999023438 l 1
 145.7265625 552 l 1
 217.7265625 522.000976562 l 1
 217.7265625 514.000976562 l 1
 159.7265625 440 l 1xef
0 146 m 1
 -68 186 l 1
 -68 206 l 1
 -11 206 26 218 76 284 c 2
 141 369 l 1xf7
 233 331 l 1
 233 323 l 1
 207 306 181 279 155 245 c 0
 102 176 57 146 0 146 c 1
81 251 m 1
 155 245 l 1
 102 176 100 153 100 107 c 3
 100 42 170 -48 387 -236 c 1
 381 -242 l 1
 314 -215 l 1
 295 -194 244 -139 153 -45 c 0
 65 45 41 87 41 132 c 3
 41 181 60 220 81 251 c 1
280 48 m 3
 225 48 161 78 117 114 c 1
 126 126 l 1
 152 113 181 108 212 108 c 3
 270 108 317 134 371 206 c 2
 441 299 l 2
 474 343 496 397 496 452 c 3
 496 539 442 630 291 691 c 1
 297 703 l 1
 512 623 585 559 585 494 c 3
 585 437 534 378 477 304 c 2
 460 282 l 2
 405 211 401 178 411 115 c 1
 388 76 336 48 280 48 c 3
134 -114 m 1
 258 -235 l 1
 251 -241 l 1
 13 -77 l 1
 18 -66 l 1
 134 -114 l 1
EndSplineSet
EndChar
StartChar: adieresis.fina
Encoding: 368 -1 147
Width: 440
Flags: W
HStem: -241 21G<223 260> 496 21G<80 107.605> 680 20G<150 212.483 324 385.778> 680 20G<150 212.483 324 385.778>
VStem: 350 82<-82.035 56.3235>
LayerCount: 2
Fore
SplineSet
146 -28 m 1xc8
 74 1.9990234375 l 1
 74 9.9990234375 l 1
 132 84 l 1
 204 54.0009765625 l 1
 204 46.0009765625 l 1
 146 -28 l 1xc8
-68 206 m 1
 -27 206 24.8759765625 217.3671875 112 338 c 2
 138 374 l 2
 220 486 310 646 338 700 c 1xe8
 424 664 l 1
 424 656 l 1
 373 618 299 549 232 460 c 2
 226 452 l 2
 150 351 118 284 132 222 c 1
 111.791992188 181 63 146 0 146 c 1
 -68 186 l 25
 -68 206 l 1
432 -1 m 3
 432 -51 414 -93 388 -130 c 1
 332 -166 288 -184 232 -241 c 1
 223 -235 l 1
 297 -157 350 -62 350 13 c 3
 350 111 194 250 84 214 c 1
 86 261 l 1
 109 293 l 1
 120 292 l 1
 173 280 432 99 432 -1 c 3
158 700 m 1
 237 671 l 1
 237 663 l 1
 90 496 l 1
 80 505 l 25
 158 700 l 1
EndSplineSet
Substitution2: "desc-1" adieresis.fina.desc
EndChar
StartChar: adieresis.init
Encoding: 366 -1 145
Width: 450
Flags: W
HStem: 146 60<344.912 382> 146 45<79.0733 186.5> 496 21G<230 257.605> 680 20G<300 362.483 474 535.778> 680 20G<300 362.483 474 535.778>
VStem: 34 35<194.911 260.5>
LayerCount: 2
Fore
SplineSet
296 -28 m 5x24
 224 1.9990234375 l 5
 224 9.9990234375 l 5
 282 84 l 5
 354 54.0009765625 l 5
 354 46.0009765625 l 5
 296 -28 l 5x24
450 146 m 1x64
 354 146 296.559322034 191 263 235 c 1
 274 248 l 1
 295 224 343 206 382 206 c 1xa4
 450 166 l 1
 450 146 l 1x64
104 191 m 3x74
 133 191 174 218 262 338 c 2
 288 374 l 2
 370 486 460 646 488 700 c 1
 574 664 l 1
 574 656 l 1
 523 618 449 549 382 460 c 2
 376 452 l 2
 300 351 268 284 282 222 c 1
 261 183 218 146 155 146 c 0
 81 146 34 196 34 248 c 3
 34 273 38 294 49 314 c 1
 153 284 l 1
 153 276 l 1
 90 240 69 224 69 211 c 3
 69 197 83 191 104 191 c 3x74
308 700 m 1
 387 671 l 1
 387 663 l 1
 240 496 l 1
 230 505 l 25
 308 700 l 1
EndSplineSet
EndChar
StartChar: adieresis_adieresis.fina.desc
Encoding: 530 -1 313
Width: 610
Flags: W
HStem: -241 21G<221.976 258 331.37 387 481.976 518> -50 75<-21.6931 144.814> 146 60<0 19.2865> 440 21G<27.9984 91.6755 207.998 271.675> 552 131G<46.3245 110.002 125.706 189.421 226.325 290.002 291 404.5> 618 25<31 295>
VStem: -86 50<38.4891 93.3442> 41 59<70.6438 160.292> 496 89<423.084 542.292>
LayerCount: 2
Back
SplineSet
114 -40 m 3
 14.9192248718 -40 -29 3 -29 46 c 3
 -29 83.0348695827 0 114 41 132 c 1
 46 122 l 1
 22 108 12 94 12 74 c 3
 12 53 35.8265976969 34 108 34 c 3
 186.025390625 34 274 75.4541015625 328 147.454101562 c 2
 441 299 l 2
 473.856885489 343.064833906 496 397 496 452 c 3
 496 539 442 630 291 691 c 1
 297 703 l 1
 512 623 585 559 585 494 c 3
 585 437 534.609429617 377.040526836 477 304 c 2
 421 233 l 2
 366 162 362 129 372 66 c 1
 320 11.150997151 217.045898438 -40 114 -40 c 3
EndSplineSet
Fore
SplineSet
99 -50 m 3xf380
 -9 -50 -86 -8.0350769264 -86 49 c 3
 -86 108.539902586 -17 141.303030303 56 86 c 1
 72 50 l 1
 16 105 -36 106 -36 69 c 3
 -36 42 -5 25 69 25 c 3
 168 25 274.201347201 75.3039672867 328 147.454101562 c 2
 441 299 l 2
 473.856885489 343.064833906 496 397 496 452 c 3
 496 539 442 630 291 691 c 1
 297 703 l 1
 512 623 585 559 585 494 c 3
 585 437 534.609429617 377.040526836 477 304 c 2
 421 233 l 2
 366 162 362 129 372 66 c 1
 320 11.150997151 215 -50 99 -50 c 3xf380
256 440 m 1
 184 469.999023438 l 1
 184 477.999023438 l 1
 242 552 l 1xfb80
 314 522.000976562 l 1
 314 514.000976562 l 1
 256 440 l 1
76 440 m 1
 4 469.999023438 l 1
 4 477.999023438 l 1
 62 552 l 1
 134 522.000976562 l 1
 134 514.000976562 l 1
 76 440 l 1
31 618 m 25xf780
 31 643 l 25
 295 643 l 25
 295 618 l 25
 31 618 l 25xf780
394 -114 m 1
 518 -235 l 1
 511 -241 l 1
 273 -77 l 1
 278 -66 l 1
 394 -114 l 1
134 -114 m 1
 258 -235 l 1
 251 -241 l 1
 13 -77 l 1
 18 -66 l 1
 134 -114 l 1
0 146 m 1
 -68 186 l 1
 -68 206 l 1
 -11 206 26 218 76 284 c 2
 141 369 l 1
 233 331 l 1
 233 323 l 1
 207 306 181 279 155 245 c 0
 102 176 57 146 0 146 c 1
81 251 m 1
 155 245 l 1
 102 176 100 153 100 107 c 3
 100 42 170 -48 387 -236 c 1
 381 -242 l 1
 314 -215 l 1
 295 -194 244 -139 153 -45 c 0
 65 45 41 87 41 132 c 3
 41 181 60 220 81 251 c 1
EndSplineSet
EndChar
StartChar: adieresis_adieresis.fina
Encoding: 470 -1 249
Width: 620
Flags: W
HStem: -240.996 21G<303 340> -114.001 25<61 325> 396.004 48<38.333 160.253> 496 11G<90 117.605 398 430.26> 680 20G<160 222.483 334 395.778 513.512 580.483> 680 20G<160 222.483 334 395.778 513.512 580.483>
VStem: 0.000976562 78<351.804 405.019> 430 82<-74.941 121.638>
LayerCount: 2
Fore
SplineSet
61 -114.000976562 m 25xf3
 61 -89.0009765625 l 25
 325 -89.0009765625 l 25
 325 -114.000976562 l 25
 61 -114.000976562 l 25xf3
296 -28.0009765625 m 1
 224 1.998046875 l 1
 224 9.998046875 l 1
 282 83.9990234375 l 1
 354 54 l 1
 354 46 l 1
 296 -28.0009765625 l 1
116 -28.0009765625 m 1
 44 1.998046875 l 1
 44 9.998046875 l 1
 102 83.9990234375 l 1
 174 54 l 1
 174 46 l 1
 116 -28.0009765625 l 1
123.000976562 396.00390625 m 3
 93 396.00390625 78.0009765625 381.00390625 78.0009765625 364.00390625 c 3
 78.0009765625 346.217773438 92 325.07421875 128.000976562 310.00390625 c 1
 119.000976562 296.00390625 l 1
 67.6181640625 316.9765625 0.0009765625 352.388671875 0.0009765625 393.00390625 c 3
 0.0009765625 417.033203125 17.6650390625 444.00390625 59.0009765625 444.00390625 c 3
 215.501953125 444.00390625 512 250.012695312 512 12.00390625 c 3
 512 -47.99609375 494 -92.99609375 468 -129.99609375 c 1
 412 -165.99609375 368 -183.99609375 312 -240.99609375 c 1
 303 -234.99609375 l 1
 377 -156.99609375 430 -59.99609375 430 36.00390625 c 3
 430 227.419921875 232 396.00390625 123.000976562 396.00390625 c 3
-68 206 m 1
 -27 206 34.8759765625 217.3671875 122 338 c 2
 148 374 l 2
 230 486 320 646 348 700 c 1xfb
 434 664 l 1
 434 656 l 1
 383 618 309 549 242 460 c 2
 236 452 l 2
 160 351 128 284 142 222 c 1
 121.791992188 181 63 146 0 146 c 1
 -68 186 l 25
 -68 206 l 1
526 700 m 1
 605 671 l 1
 605 663 l 1
 408 486 l 1
 398 495 l 25
 526 700 l 1
168 700 m 1
 247 671 l 1
 247 663 l 1
 100 496 l 1
 90 505 l 25
 168 700 l 1
EndSplineSet
Substitution2: "desc-1" adieresis_adieresis.fina.desc
EndChar
StartChar: adieresis_adieresis
Encoding: 286 -1 65
Width: 750
Flags: W
HStem: -241 21G<443 480> -114 25<201 465> 146 45<79.0733 186.5> 392 52<174.333 284.699> 496 11G<230 257.605 538 570.26> 680 20G<300 362.483 474 535.778 653.512 720.483> 680 20G<300 362.483 474 535.778 653.512 720.483>
VStem: 34 35<194.911 260.5> 140.001 78<351.928 405.015> 570 82<-74.9449 98.2088>
LayerCount: 2
Fore
SplineSet
201 -114 m 29xf9c0
 201 -89 l 29
 465 -89 l 29
 465 -114 l 29
 201 -114 l 29xf9c0
436 -28 m 5
 364 1.9990234375 l 5
 364 9.9990234375 l 5
 422 84 l 5
 494 54.0009765625 l 5
 494 46.0009765625 l 5
 436 -28 l 5
256 -28 m 5
 184 1.9990234375 l 5
 184 9.9990234375 l 5
 242 84 l 5
 314 54.0009765625 l 5
 314 46.0009765625 l 5
 256 -28 l 5
251.000976562 392 m 3
 228 392 218.000976562 376 218.000976562 362 c 3
 218.000976562 347.213867188 232 325.0703125 268.000976562 310 c 1
 259.000976562 296 l 1
 207.618164062 316.97265625 140.000976562 352.384765625 140.000976562 393 c 3
 140.000976562 417.029296875 155.665039062 444 193.000976562 444 c 3
 349.501953125 444 652 187.025390625 652 12 c 3
 652 -48 634 -93 608 -130 c 1
 552 -166 508 -184 452 -241 c 1
 443 -235 l 1
 517 -157 570 -60 570 36 c 3
 570 227.416015625 341 392 251.000976562 392 c 3
666 700 m 1xfdc0
 745 671 l 1
 745 663 l 1
 548 486 l 1
 538 495 l 25
 666 700 l 1xfdc0
104 191 m 3
 133 191 174 218 262 338 c 2
 288 374 l 2
 370 486 460 646 488 700 c 1
 574 664 l 1
 574 656 l 1
 523 618 449 549 382 460 c 2
 376 452 l 2
 300 351 268 284 282 222 c 5
 261 183 218 146 155 146 c 4
 81 146 34 196 34 248 c 3
 34 273 38 294 49 314 c 1
 153 284 l 1
 153 276 l 1
 90 240 69 224 69 211 c 3
 69 197 83 191 104 191 c 3
308 700 m 1
 387 671 l 1
 387 663 l 1
 240 496 l 1
 230 505 l 25
 308 700 l 1
EndSplineSet
Substitution2: "fina-1" adieresis_adieresis.fina
Substitution2: "medi-1" adieresis_adieresis.medi
Substitution2: "init-1" adieresis_adieresis.init
LCarets2: 1 0
Ligature2: "liga-1" adieresis adieresis
EndChar
StartChar: adieresis_adieresis.medi.desc
Encoding: 529 -1 312
Width: 510
Flags: W
HStem: -241 21G<221.976 258 331.37 387 481.976 518> -50 75<-26.983 105.225> 146 60<0 19.2865 416.116 442> 440 21G<27.9984 91.6755 207.998 271.675> 532 20G<46.3245 110.002 125.706 189.421 226.325 290.002> 618 25<31 295>
VStem: -86 50<37.5061 92.8706> 41 59<70.6438 160.292>
LayerCount: 2
Back
SplineSet
99 -50 m 3xe780
 -9 -50 -86 -8.0350769264 -86 49 c 3
 -86 108.539902586 -17 141.303030303 56 86 c 1
 72 50 l 1
 16 105 -36 106 -36 69 c 3
 -36 42 -5 25 69 25 c 3
 168 25 274.201347201 75.3039672867 328 147.454101562 c 2
 441 299 l 2
 473.856885489 343.064833906 496 397 496 452 c 3
 496 539 442 630 291 691 c 1
 297 703 l 1
 512 623 585 559 585 494 c 3
 585 437 534.609429617 377.040526836 477 304 c 2
 421 233 l 2
 366 162 362 129 372 66 c 1
 320 11.150997151 215 -50 99 -50 c 3xe780
307 209 m 1
 338.666666667 206.599452485 344 206 382 206 c 1
 450 166 l 1
 450 146 l 1
 417.088867188 144.9609375 390 146 353 149 c 1
 340.84375 140 322.947265625 116.693359375 299.916015625 86 c 0
 243.916015625 11.3701171875 163.102539062 -30 87.84765625 -30 c 3
 12.7451171875 -30 -29 2 -29 50 c 3
 -29 86.263671875 -6 112 41 132 c 1
 46 122 l 1
 25 110 16 100 16 87 c 3
 16 64 27.1298828125 45 72.15234375 45 c 3
 120.14453125 45 198 76 246 142 c 0
 275.696421579 182.832579671 286 197 307 209 c 1
EndSplineSet
Fore
SplineSet
510 146 m 1
 414 146 372 194 330 250 c 1
 350 242 l 1
 371 218 403 206 442 206 c 1
 510 166 l 1
 510 146 l 1
330 250 m 5
 390 195 l 5
 363 159 l 5
 281.2109375 48 182 -50 69 -50 c 7
 -2 -50 -86 -14 -86 49 c 7
 -86 118 -10 136 56 86 c 5
 72 50 l 5
 16 105 -36 106 -36 69 c 7
 -36 42 -5 25 39 25 c 7
 134 25 224.530273438 98 296 201 c 6
 330 250 l 5
256 440 m 1
 184 469.999023438 l 1
 184 477.999023438 l 1
 242 552 l 1
 314 522.000976562 l 1
 314 514.000976562 l 1
 256 440 l 1
76 440 m 1
 4 469.999023438 l 1
 4 477.999023438 l 1
 62 552 l 1
 134 522.000976562 l 1
 134 514.000976562 l 1
 76 440 l 1
31 618 m 25
 31 643 l 25
 295 643 l 25
 295 618 l 25
 31 618 l 25
394 -114 m 1
 518 -235 l 1
 511 -241 l 1
 273 -77 l 1
 278 -66 l 1
 394 -114 l 1
134 -114 m 1
 258 -235 l 1
 251 -241 l 1
 13 -77 l 1
 18 -66 l 1
 134 -114 l 1
0 146 m 1
 -68 186 l 1
 -68 206 l 1
 -11 206 26 218 76 284 c 2
 141 369 l 1
 233 331 l 1
 233 323 l 1
 207 306 181 279 155 245 c 0
 102 176 57 146 0 146 c 1
81 251 m 1
 155 245 l 1
 102 176 100 153 100 107 c 3
 100 42 170 -48 387 -236 c 1
 381 -242 l 1
 314 -215 l 1
 295 -194 244 -139 153 -45 c 0
 65 45 41 87 41 132 c 3
 41 181 60 220 81 251 c 1
EndSplineSet
EndChar
StartChar: adieresis_adieresis.medi
Encoding: 469 -1 248
Width: 480
Flags: W
HStem: -114 25<60.999 324.999> 146 60<0 11.7548 391.992 412> 392 52<41.333 128.559> 496 11G<90 117.605 398 430.26> 680 20G<160 222.483 334 395.778 513.512 580.483> 680 20G<160 222.483 334 395.778 513.512 580.483>
VStem: 0.000976562 78<351.928 405.015>
LayerCount: 2
Fore
SplineSet
60.9990234375 -114 m 25xf2
 60.9990234375 -89 l 25
 324.999023438 -89 l 25
 324.999023438 -114 l 25
 60.9990234375 -114 l 25xf2
295.999023438 -28 m 1
 223.999023438 1.9990234375 l 1
 223.999023438 9.9990234375 l 1
 281.999023438 84 l 1
 353.999023438 54.0009765625 l 1
 353.999023438 46.0009765625 l 1
 295.999023438 -28 l 1
115.999023438 -28 m 1
 43.9990234375 1.9990234375 l 1
 43.9990234375 9.9990234375 l 1
 101.999023438 84 l 1
 173.999023438 54.0009765625 l 1
 173.999023438 46.0009765625 l 1
 115.999023438 -28 l 1
111.000976562 392 m 3
 88 392 78.0009765625 376 78.0009765625 362 c 3
 78.0009765625 347.213867188 92 325.0703125 128.000976562 310 c 1
 119.000976562 296 l 1
 67.6181640625 316.97265625 0.0009765625 352.384765625 0.0009765625 393 c 3
 0.0009765625 417.029296875 20.6650390625 444 62.0009765625 444 c 3
 182 444 297 206 412 206 c 1
 480 166.000976562 l 25
 480 146 l 1
 302 146 164.00390625 392 111.000976562 392 c 3
-68 206 m 1
 -27 206 34.8759765625 217.3671875 122 338 c 2
 148 374 l 2
 230 486 320 646 348 700 c 1xfa
 434 664 l 1
 434 656 l 1
 383 618 309 549 242 460 c 2
 236 452 l 2
 160 351 128 284 142 222 c 1
 121.791992188 181 63 146 0 146 c 1
 -68 186 l 25
 -68 206 l 1
526 700 m 1
 605 671 l 1
 605 663 l 1
 408 486 l 1
 398 495 l 25
 526 700 l 1
168 700 m 1
 247 671 l 1
 247 663 l 1
 100 496 l 1
 90 505 l 25
 168 700 l 1
EndSplineSet
Substitution2: "desc-1" adieresis_adieresis.medi.desc
EndChar
StartChar: asciitilde.fina
Encoding: 536 -1 320
Width: 250
Flags: W
HStem: 235 33<40 210>
VStem: 40 170<235 268>
LayerCount: 2
Fore
SplineSet
0 146 m 1
 -68 186 l 1
 -68 206 l 1
 250 206 l 21
 250 146 l 13
 0 146 l 1
EndSplineSet
EndChar
StartChar: asciitilde.init
Encoding: 534 -1 318
Width: 320
Flags: W
HStem: 235 33<40 210>
VStem: 40 170<235 268>
LayerCount: 2
Fore
SplineSet
0 146 m 1
 0 206 l 1
 252 206 l 21
 320 166 l 5
 320 146 l 13
 0 146 l 1
EndSplineSet
EndChar
StartChar: asciitilde.medi
Encoding: 535 -1 319
Width: 320
Flags: W
HStem: 235 33<40 210>
VStem: 40 170<235 268>
LayerCount: 2
Fore
SplineSet
0 146 m 1
 -68 186 l 5
 -68 206 l 5
 252 206 l 17
 320 166 l 1
 320 146 l 9
 0 146 l 1
EndSplineSet
EndChar
StartChar: b.fina
Encoding: 302 -1 81
Width: 680
Flags: W
HStem: 142 70<0 30.5041 415.064 541.32> 298.999 65.001<158.759 237.8> 424 20G<405.436 470.483>
VStem: 638 7<347.175 351>
LayerCount: 2
Back
SplineSet
408 212 m 5
 479 212 535.75 269 578 351 c 5
 585 351 l 5
 585 253.6953125 565.825195312 197.170898438 550.484375 170 c 5
 525.6875 154.125976562 482 142 450 142 c 12
 328.805664062 142 265 210 180 316.000976562 c 5
 166 364 l 5
 259.701171875 244 328 212 408 212 c 5
356 444 m 5
 435 415 l 5
 435 407 l 5
 263 240 l 5
 253 249 l 29
 356 444 l 5
-68 206.000976562 m 5
 -7.9248046875 206.000976562 38.5009765625 220.921875 87 284.000976562 c 6
 151.584960938 368.000976562 l 5
 166 364 l 5
 207 299 l 5
 200 290.185546875 195 279.000976562 164 241.000976562 c 4
 114.905273438 180.8203125 66 146 0 146 c 5
 -68 186.000976562 l 5
 -68 206.000976562 l 5
EndSplineSet
Fore
SplineSet
228 298.999023438 m 4
 208 298.999023438 185.077148438 282.66796875 147 228.999023438 c 4
 106.560546875 172 67 146 0 146 c 5
 -68 186.002929688 l 5
 -68 206.001953125 l 5
 -13 206.001953125 28.5289593604 216.547127504 76 280 c 4
 114.106445312 330.935546875 138.514648438 364 179.002929688 364 c 4
 224.002929688 364 255.017578125 328.982421875 298 286 c 4
 356 228 388 212 468 212 c 5
 539 212 595.75 269 638 351 c 5
 645 351 l 5
 645 253.6953125 625.825195312 197.170898438 610.484375 170 c 5
 585.6875 154.125976562 542 142 510 142 c 4
 424.053991106 142 367.318359375 187.3203125 306 248.6875 c 4
 275.201171875 279.509765625 252 298.999023438 228 298.999023438 c 4
416 444 m 1
 495 415 l 1
 495 407 l 1
 323 240 l 1
 313 249 l 25
 416 444 l 1
416 444 m 1
 495 415 l 1
 495 407 l 1
 323 240 l 1
 313 249 l 25
 416 444 l 1
EndSplineSet
EndChar
StartChar: b.init
Encoding: 300 -1 79
Width: 630
Flags: W
HStem: 146 60<544.1 562> 146 45<75.0464 177.5> 298.999 65.001<288.759 367.87> 424 20G<535.436 600.483>
VStem: 34 35<192.516 260.5>
LayerCount: 2
Back
SplineSet
99 191 m 7x70
 125 191 155.817382812 204 206 270 c 6
 281.2734375 369 l 5
 296 364 l 5
 337 299 l 5
 330 290.185546875 321.201171875 279.110351562 295 245 c 4
 242 176 199 146 145 146 c 4
 71 146 34 196 34 248 c 7
 34 273 38 294 49 314 c 5
 153 284 l 5
 153 276 l 5
 90 240 69 224 69 211 c 7
 69 197 78 191 99 191 c 7x70
590 146 m 5
 472 146 406 193 310 316.000976562 c 5
 296 364 l 5
 370 270 447.972951516 206.000976562 522 206.000976562 c 5xb0
 590 166 l 5
 590 146 l 5
EndSplineSet
Fore
SplineSet
358 298.999023438 m 0x78
 338 298.999023438 315.077148438 282.66796875 277 228.999023438 c 0
 236.560546875 172 206 146 149 146 c 0
 75 146 34 196 34 248 c 0
 34 273 38 294 49 314 c 1
 153 284 l 1
 153 276 l 1
 90 240 69 224 69 211 c 0
 69 197 81 191 97 191 c 0x78
 122 191 158.529296875 216.546875 206 280 c 0
 244.106445312 330.935546875 268.514648438 364 309.002929688 364 c 4
 354.002929688 364 385.017578125 328.982421875 428 286 c 0
 486 228 525 206 562 206 c 1xb8
 630 166 l 1
 630 146 l 1
 556 146 484.29296875 195 411 273 c 0
 391.094726562 294.184570312 377 298.999023438 358 298.999023438 c 0x78
546 444 m 1
 625 415 l 1
 625 407 l 1
 453 240 l 1
 443 249 l 25
 546 444 l 1
EndSplineSet
EndChar
StartChar: b.medi
Encoding: 301 -1 80
Width: 500
Flags: W
HStem: 146 60.002<0 21.0367 414.1 432> 298.999 65.001<158.759 237.87> 424 20G<405.436 470.483>
LayerCount: 2
Back
SplineSet
460 146 m 5
 342 146 276 193 180 316.000976562 c 5
 166 364 l 5
 240 270 317.97265625 206.000976562 392 206.000976562 c 5
 460 166 l 5
 460 146 l 5
356 444 m 5
 435 415 l 5
 435 407 l 5
 263 240 l 5
 253 249 l 29
 356 444 l 5
-68 206.000976562 m 5
 -7.9248046875 206.000976562 38.5009765625 220.921875 87 284.000976562 c 6
 151.584960938 368.000976562 l 5
 166 364 l 5
 207 299 l 5
 200 290.185546875 195 279.000976562 164 241.000976562 c 4
 114.905273438 180.8203125 66 146 0 146 c 5
 -68 186.000976562 l 5
 -68 206.000976562 l 5
EndSplineSet
Fore
SplineSet
228 298.999023438 m 4
 208 298.999023438 185.077148438 282.66796875 147 228.999023438 c 4
 106.560546875 172 67 146 0 146 c 5
 -68 186.002929688 l 5
 -68 206.001953125 l 5
 -13 206.001953125 28.5289593604 216.547127504 76 280 c 4
 114.106445312 330.935546875 138.514648438 364 179.002929688 364 c 4
 224.002929688 364 255.017578125 328.982421875 298 286 c 4
 356 228 395 206 432 206 c 5
 500 166 l 5
 500 146 l 5
 426 146 354.29296875 195 281 273 c 4
 261.094726562 294.184570312 247 298.999023438 228 298.999023438 c 4
416 444 m 5
 495 415 l 5
 495 407 l 5
 323 240 l 5
 313 249 l 29
 416 444 l 5
EndSplineSet
EndChar
StartChar: b_b.fina
Encoding: 404 -1 183
Width: 1180
Flags: W
HStem: 41 25<380 614> 146 60.002<0 21.0367 496.533 500 500.001 521.038 907.761 1030.54> 298.999 65.001<158.759 237.87 658.76 737.801> 423.999 20G<405.436 470.483 905.436 970.483>
VStem: 1138 7<347.173 350.998>
LayerCount: 2
Fore
SplineSet
728.000976562 298.997070312 m 4
 708.000976562 298.997070312 685.078125 282.666015625 647.000976562 228.997070312 c 4
 606.561523438 171.998046875 567.000976562 145.998046875 500.000976562 145.998046875 c 5
 432.000976562 186.000976562 l 5
 432.000976562 206 l 5
 487.000976562 206 528.530273438 216.544921875 576.000976562 279.998046875 c 4
 614.107421875 330.93359375 638.515625 363.998046875 679.00390625 363.998046875 c 4
 724.00390625 363.998046875 755.018554688 328.98046875 798.000976562 285.998046875 c 4
 856.000976562 227.998046875 888.000976562 211.998046875 968.000976562 211.998046875 c 5
 1039.00097656 211.998046875 1095.75097656 268.998046875 1138.00097656 350.998046875 c 5
 1145.00097656 350.998046875 l 5
 1145.00097656 253.693359375 1125.82617188 197.168945312 1110.48535156 169.998046875 c 5
 1085.68847656 154.124023438 1042.00097656 141.998046875 1010.00097656 141.998046875 c 4
 924.0546875 141.998046875 867.319335938 187.318359375 806.000976562 248.685546875 c 4
 775.202148438 279.5078125 752.000976562 298.997070312 728.000976562 298.997070312 c 4
916 443.999023438 m 5
 995 414.999023438 l 5
 995 406.999023438 l 5
 823 239.999023438 l 5
 813 248.999023438 l 29
 916 443.999023438 l 5
228 298.999023438 m 0
 208 298.999023438 185.077148438 282.66796875 147 228.999023438 c 0
 106.560546875 172 67 146 0 146 c 1
 -68 186.002929688 l 1
 -68 206.001953125 l 1
 -13 206.001953125 28.5289593604 216.547127504 76 280 c 0
 114.106445312 330.935546875 138.514648438 364 179.002929688 364 c 0
 224.002929688 364 255.017578125 328.982421875 298 286 c 0
 356 228 395 206 432 206 c 1
 500 166 l 1
 500 146 l 1
 426 146 354.29296875 195 281 273 c 0
 261.094726562 294.184570312 247 298.999023438 228 298.999023438 c 0
416 444 m 1
 495 415 l 1
 495 407 l 1
 323 240 l 1
 313 249 l 25
 416 444 l 1
380 41 m 29
 380 66 l 29
 614 66 l 29
 614 41 l 29
 380 41 l 29
EndSplineSet
EndChar
StartChar: b_b
Encoding: 264 -1 42
Width: 1310
Flags: W
HStem: 41 25<510 744> 141.998 70<556 660.504 1045.06 1171.32> 146 45<75.0464 175.394> 298.999 65.001<288.759 367.87 788.759 867.8> 423.999 20G<535.436 600.483 1035.43 1100.48>
VStem: 34 35<192.516 260.5> 1268 7<347.173 350.998>
LayerCount: 2
Back
SplineSet
538 212 m 5
 609 212 665.75 269 708 351 c 5
 715 351 l 5
 715 253.6953125 695.825195312 197.170898438 680.484375 170 c 5
 655.6875 154.125976562 612 142 580 142 c 12
 458.805664062 142 395 210 310 316.000976562 c 5
 296 364 l 5
 389.701171875 244 458 212 538 212 c 5
754 241.000976562 m 0
 704.905273438 180.8203125 656 145.999023438 590 145.999023438 c 1
 500 190.999023438 l 1
 508 205.999023438 l 1
 584.655273438 206 628.5 220.921875 677 284.000976562 c 2
 741.584960938 368.000976562 l 1
 756 364 l 1
 797 299 l 1
 790 290.185546875 785 279.000976562 754 241.000976562 c 0
94 191 m 3
 120 191 155.817382812 204 206 270 c 2
 281.2734375 369 l 1
 296 364 l 1
 337 299 l 1
 330 290.185546875 321.201171875 279.110351562 295 245 c 0
 242 176 199 146 145 146 c 0
 71 146 24 196 24 248 c 3
 24 273 28 294 39 314 c 1
 143 284 l 1
 143 276 l 1
 80 240 59 224 59 211 c 3
 59 197 73 191 94 191 c 3
496 444 m 1
 575 415 l 1
 575 407 l 1
 403 240 l 1
 393 249 l 25
 496 444 l 1
508 206 m 1
 600 159 l 1
 590 146 l 1
 468.805664062 146 395 210 310 316.000976562 c 1
 296 364 l 1
 395.948242188 236 452 206 508 206 c 1
EndSplineSet
Fore
SplineSet
858 298.997070312 m 0xde
 838 298.997070312 815.077148438 282.666015625 777 228.997070312 c 0
 736.560546875 171.998046875 697 145.998046875 630 145.998046875 c 1
 562 186.000976562 l 1
 562 206 l 1
 617 206 658.529296875 216.544921875 706 279.998046875 c 0
 744.106445312 330.93359375 768.514648438 363.998046875 809.002929688 363.998046875 c 0
 854.002929688 363.998046875 885.017578125 328.98046875 928 285.998046875 c 0
 986 227.998046875 1018 211.998046875 1098 211.998046875 c 1
 1169 211.998046875 1225.75 268.998046875 1268 350.998046875 c 1
 1275 350.998046875 l 1
 1275 253.693359375 1255.82519531 197.168945312 1240.484375 169.998046875 c 1
 1215.6875 154.124023438 1172 141.998046875 1140 141.998046875 c 0
 1054.05371094 141.998046875 997.318359375 187.318359375 936 248.685546875 c 0
 905.201171875 279.5078125 882 298.997070312 858 298.997070312 c 0xde
1045.99902344 443.999023438 m 1
 1124.99902344 414.999023438 l 1
 1124.99902344 406.999023438 l 1
 952.999023438 239.999023438 l 1
 942.999023438 248.999023438 l 25
 1045.99902344 443.999023438 l 1
358 298.999023438 m 0
 338 298.999023438 315.077148438 282.66796875 277 228.999023438 c 0
 236.560546875 172 206 146 149 146 c 0
 75 146 34 196 34 248 c 0
 34 273 38 294 49 314 c 1
 153 284 l 1
 153 276 l 1
 90 240 69 224 69 211 c 0
 69 197 81 191 97 191 c 0
 122 191 158.529296875 216.546875 206 280 c 0
 244.106445312 330.935546875 268.514648438 364 309.002929688 364 c 0
 354.002929688 364 385.017578125 328.982421875 428 286 c 0
 486 228 525 206 562 206 c 1
 630 166 l 1
 630 146 l 1xbe
 556 146 484.29296875 195 411 273 c 0
 391.094726562 294.184570312 377 298.999023438 358 298.999023438 c 0
546 444 m 1
 625 415 l 1
 625 407 l 1
 453 240 l 1
 443 249 l 25
 546 444 l 1
510 41 m 25
 510 66 l 25
 744 66 l 25
 744 41 l 25
 510 41 l 25
EndSplineSet
Substitution2: "fina-1" b_b.fina
Substitution2: "medi-1" b_b.medi
Substitution2: "init-1" b_b.init
LCarets2: 1 0
Ligature2: "liga-1" b b
EndChar
StartChar: b_b.init
Encoding: 402 -1 181
Width: 1130
Flags: W
HStem: 41 25<510 744> 146 60<626.533 651.037 1044.1 1062> 146 45<75.0464 175.394> 298.999 65.001<288.759 367.87 788.759 867.87> 423.998 20G<535.436 600.483 1035.44 1100.48>
VStem: 34 35<192.516 260.5>
LayerCount: 2
Fore
SplineSet
858 298.997070312 m 0xdc
 838 298.997070312 815.077148438 282.666015625 777 228.997070312 c 0
 736.560546875 171.998046875 697 145.998046875 630 145.998046875 c 1
 562 186.000976562 l 1
 562 206 l 1
 617 206 658.529296875 216.544921875 706 279.998046875 c 0
 744.106445312 330.93359375 768.514648438 363.998046875 809.002929688 363.998046875 c 0
 854.002929688 363.998046875 885.017578125 328.98046875 928 285.998046875 c 0
 986 227.998046875 1025 205.998046875 1062 205.998046875 c 1
 1130 165.998046875 l 1
 1130 145.998046875 l 1
 1056 145.998046875 984.29296875 194.998046875 911 272.998046875 c 0
 891.094726562 294.182617188 877 298.997070312 858 298.997070312 c 0xdc
1046 443.998046875 m 1
 1125 414.998046875 l 1
 1125 406.998046875 l 1
 953 239.998046875 l 1
 943 248.998046875 l 25
 1046 443.998046875 l 1
358 298.999023438 m 4
 338 298.999023438 315.077148438 282.66796875 277 228.999023438 c 4
 236.560546875 172 206 146 149 146 c 4
 75 146 34 196 34 248 c 4
 34 273 38 294 49 314 c 5
 153 284 l 5
 153 276 l 5
 90 240 69 224 69 211 c 4
 69 197 81 191 97 191 c 4xbc
 122 191 158.529296875 216.546875 206 280 c 4
 244.106445312 330.935546875 268.514648438 364 309.002929688 364 c 4
 354.002929688 364 385.017578125 328.982421875 428 286 c 4
 486 228 525 206 562 206 c 5
 630 166 l 5
 630 146 l 5
 556 146 484.29296875 195 411 273 c 4
 391.094726562 294.184570312 377 298.999023438 358 298.999023438 c 4
546 444 m 5
 625 415 l 5
 625 407 l 5
 453 240 l 5
 443 249 l 29
 546 444 l 5
510 41 m 29
 510 66 l 29
 744 66 l 29
 744 41 l 29
 510 41 l 29
EndSplineSet
EndChar
StartChar: b_b.medi
Encoding: 403 -1 182
Width: 1000
Flags: W
HStem: 41 25<380 614> 146 60.002<0 21.0367 496.533 521.037 914.1 932> 298.999 65.001<158.759 237.87 658.759 737.87> 423.999 20G<405.436 470.483 905.436 970.483>
LayerCount: 2
Fore
SplineSet
728 298.998046875 m 0
 708 298.998046875 685.077148438 282.666992188 647 228.998046875 c 0
 606.560546875 171.999023438 567 145.999023438 500 145.999023438 c 1
 432 186.001953125 l 1
 432 206.000976562 l 1
 487 206.000976562 528.529296875 216.545898438 576 279.999023438 c 0
 614.106445312 330.934570312 638.514648438 363.999023438 679.002929688 363.999023438 c 0
 724.002929688 363.999023438 755.017578125 328.981445312 798 285.999023438 c 0
 856 227.999023438 895 205.999023438 932 205.999023438 c 1
 1000 165.999023438 l 1
 1000 145.999023438 l 1
 926 145.999023438 854.29296875 194.999023438 781 272.999023438 c 0
 761.094726562 294.18359375 747 298.998046875 728 298.998046875 c 0
916 443.999023438 m 1
 995 414.999023438 l 1
 995 406.999023438 l 1
 823 239.999023438 l 1
 813 248.999023438 l 25
 916 443.999023438 l 1
228 298.999023438 m 0
 208 298.999023438 185.077148438 282.66796875 147 228.999023438 c 0
 106.560546875 172 67 146 0 146 c 1
 -68 186.002929688 l 1
 -68 206.001953125 l 1
 -13 206.001953125 28.5289593604 216.547127504 76 280 c 0
 114.106445312 330.935546875 138.514648438 364 179.002929688 364 c 0
 224.002929688 364 255.017578125 328.982421875 298 286 c 0
 356 228 395 206 432 206 c 1
 500 166 l 1
 500 146 l 1
 426 146 354.29296875 195 281 273 c 0
 261.094726562 294.184570312 247 298.999023438 228 298.999023438 c 0
416 444 m 1
 495 415 l 1
 495 407 l 1
 323 240 l 1
 313 249 l 25
 416 444 l 1
380 41 m 25
 380 66 l 25
 614 66 l 25
 614 41 l 25
 380 41 l 25
EndSplineSet
EndChar
StartChar: c.init
Encoding: 303 -1 82
Width: 700
Flags: W
HStem: -242 21G<631.37 687> 146 60<581.004 632> 146 45<86.1616 164.399> 305 64<194.472 255.722> 382 20G<299.5 310.25 315.5 344> 404 20<376.059 526> 424 20<205.672 365.802>
VStem: 44 35<193.812 260.5> 119 75<349.132 419.529> 322 82<88.5239 204.072>
LayerCount: 2
Back
SplineSet
894 395 m 5
 838 317 807 250 819 198 c 5
 797.877929688 170 754 146 700 146 c 7
 596 146 519.540489977 185 442.974609375 273.688476562 c 5
 451.463867188 285.268554688 l 5
 495 238.657142857 582 206 638 206 c 7
 690 206 734.875976562 217.3671875 822 338 c 6
 848 374 l 6
 855 383 862 392 869 402 c 5
 894 402 l 5
 894 395 l 5
EndSplineSet
Fore
SplineSet
305 370 m 1x9bc0
 296.388351207 360.328298249 281.364257812 336.806640625 272 329 c 1
 266 335 l 1
 246.696289062 319.912109375 224.175904016 305 203 305 c 3
 159 305 119 327.985351562 119 371.92578125 c 3
 119 412.0234375 154 444 225 444 c 3
 311 444 413 424 534 424 c 1x9bc0
 526 404 l 1x9dc0
 417 404 324 424 243 424 c 3
 207.973632812 424 194 407.921875 194 394 c 3
 194 379.834960938 205.798828125 369 228.95703125 369 c 3
 254.110351562 369 280 377 319 402 c 1
 305 370 l 1x9bc0
401.390243902 331 m 6
 487 448 l 5
 579 410 l 5
 579 402 l 5
 553 385 495 309 450 245 c 4
 414.061523438 193.887695312 404 153 404 107 c 7
 404 42 470 -48 687 -236 c 5
 681 -242 l 5
 614 -215 l 5
 595 -194 544.466796875 -138.545898438 453 -45 c 4
 365 45 322 107 322 157 c 7
 322 210 350.015055073 260.787241933 401.390243902 331 c 6
344 395 m 1
 288 317 257 250 269 198 c 1
 247.877929688 170 211 146 157 146 c 0
 92 146 44 193.846679688 44 248 c 3
 44 273 48 294 59 314 c 1
 163 284 l 1
 163 276 l 1
 100 240 79 224 79 211 c 3
 79 197 95 191 116 191 c 3xb9c0
 148 191 184 218 272 338 c 2
 298 374 l 2
 305 383 312 392 319 402 c 1
 344 402 l 1
 344 395 l 1
700 166 m 5
 700 146 l 5xb9c0
 596 146 519.540489977 185 442.974609375 273.688476562 c 5
 451.463867188 285.268554688 l 5
 495 238.657142857 576 206 632 206 c 5xd9c0
 700 166 l 5
EndSplineSet
EndChar
StartChar: c.medi
Encoding: 304 -1 83
Width: 590
Flags: W
HStem: -242 21G<521.37 577> 146 60<0 43.5673 471.004 522> 305 64<84.4719 145.722> 382 20G<189.5 200.25 205.5 234> 404 20<266.059 416> 424 20<95.6724 255.802>
VStem: 9 75<349.132 419.529> 212 82<88.5239 204.072>
LayerCount: 2
Fore
SplineSet
195 370 m 1xf7
 186.388671875 360.328125 171.364257812 336.806640625 162 329 c 1
 156 335 l 1
 136.696289062 319.912109375 114.17578125 305 93 305 c 3
 49 305 9 327.985351562 9 371.92578125 c 3
 9 412.0234375 44 444 115 444 c 3
 201 444 303 424 424 424 c 1xf7
 416 404 l 1xfb
 307 404 214 424 133 424 c 3
 97.9736328125 424 84 407.921875 84 394 c 3
 84 379.834960938 95.798828125 369 118.95703125 369 c 3
 144.110351562 369 170 377 209 402 c 1
 195 370 l 1xf7
590 166 m 5
 590 146 l 5
 486 146 409.540039062 185 332.974609375 273.688476562 c 1
 341.463867188 285.268554688 l 1
 385 238.657226562 466 206 522 206 c 5
 590 166 l 5
234 395 m 1
 178 317 147 250 159 198 c 1
 137.877929688 170 74 146 0 146 c 1
 -68 186 l 1
 -68 206 l 1
 4 206 74.8759765625 217.3671875 162 338 c 2
 188 374 l 2
 195 383 202 392 209 402 c 1
 234 402 l 1
 234 395 l 1
291.390625 331 m 2
 377 448 l 1
 469 410 l 1
 469 402 l 1
 443 385 385 309 340 245 c 0
 304.061523438 193.887695312 294 153 294 107 c 3
 294 42 360 -48 577 -236 c 1
 571 -242 l 1
 504 -215 l 1
 485 -194 434.466796875 -138.545898438 343 -45 c 0
 255 45 212 107 212 157 c 3
 212 210 240.014648438 260.787109375 291.390625 331 c 2
EndSplineSet
EndChar
StartChar: c_c.fina
Encoding: 407 -1 186
Width: 1130
Flags: W
HStem: -242 21G<521.37 577 1071.37 1127> 41 25<420 654> 146 60<0 43.5673 461.392 606.081> 305 64<84.4719 145.722 634.472 695.722> 382 20G<189.5 200.25 205.5 234 739.5 750.25 755.5 784> 404 20<266.059 416 818.417 966> 424 20<95.6724 255.802 645.672 805.802>
VStem: 9 75<349.132 419.529> 212 82<88.5239 204.072> 559 75<349.133 419.53> 762 82<88.5239 204.072>
LayerCount: 2
Fore
SplineSet
234 395 m 1xf9e0
 178 317 147 250 159 198 c 1
 137.877929688 170 74 146 0 146 c 1
 -68 186 l 1
 -68 206 l 1
 4 206 74.8759765625 217.3671875 162 338 c 2
 188 374 l 2
 195 383 202 392 209 402 c 1
 234 402 l 1
 234 395 l 1xf9e0
745 370.000976562 m 1
 736.388671875 360.329101562 721.364257812 336.807617188 712 329.000976562 c 1
 706 335.000976562 l 1
 686.696289062 319.913085938 664.17578125 305.000976562 643 305.000976562 c 3
 599 305.000976562 559 327.986328125 559 371.926757812 c 3
 559 412.024414062 594 444.000976562 665 444.000976562 c 3
 751 444.000976562 853 424.000976562 974 424.000976562 c 1
 966 404.000976562 l 1
 857 404.000976562 764 424.000976562 683 424.000976562 c 3
 647.973632812 424.000976562 634 407.922851562 634 394.000976562 c 3
 634 379.8359375 645.798828125 369.000976562 668.95703125 369.000976562 c 3
 694.110351562 369.000976562 720 377.000976562 759 402.000976562 c 1
 745 370.000976562 l 1
195 370 m 1
 186.388671875 360.328125 171.364257812 336.806640625 162 329 c 1
 156 335 l 1
 136.696289062 319.912109375 114.17578125 305 93 305 c 3
 49 305 9 327.985351562 9 371.92578125 c 3
 9 412.0234375 44 444 115 444 c 3
 201 444 303 424 424 424 c 1xfbe0
 416 404 l 1xfde0
 307 404 214 424 133 424 c 3xfbe0
 97.9736328125 424 84 407.921875 84 394 c 3
 84 379.834960938 95.798828125 369 118.95703125 369 c 3
 144.110351562 369 170 377 209 402 c 1
 195 370 l 1
420 41 m 25
 420 66 l 25
 654 66 l 25
 654 41 l 25
 420 41 l 25
841.390625 331 m 2
 927 448 l 1
 1019 410 l 1
 1019 402 l 1
 993 385 935 309 890 245 c 0
 854.061523438 193.887695312 844 153 844 107 c 3
 844 42 910 -48 1127 -236 c 1
 1121 -242 l 1
 1054 -215 l 1
 1035 -194 984.466796875 -138.545898438 893 -45 c 0
 805 45 762 107 762 157 c 3
 762 210 790.014648438 260.787109375 841.390625 331 c 2
291.390625 331 m 2
 377 448 l 1
 469 410 l 1
 469 402 l 1
 443 385 385 309 340 245 c 0
 304.061523438 193.887695312 294 153 294 107 c 3
 294 42 360 -48 577 -236 c 1
 571 -242 l 1
 504 -215 l 1
 485 -194 434.466796875 -138.545898438 343 -45 c 0
 255 45 212 107 212 157 c 3
 212 210 240.014648438 260.787109375 291.390625 331 c 2
784 395 m 1
 728 317 697 250 709 198 c 1
 687.877929688 170 644 146 590 146 c 3
 486 146 426 165.934570312 332.974609375 273.688476562 c 1
 341.463867188 285.268554688 l 1
 385 238.657226562 452 206 508 206 c 3
 580 206 624.875976562 217.3671875 712 338 c 2
 738 374 l 2
 745 383 752 392 759 402 c 1
 784 402 l 1
 784 395 l 1
EndSplineSet
EndChar
StartChar: c_c
Encoding: 265 -1 43
Width: 1240
Flags: W
HStem: -242 21G<631.37 687 1181.37 1237> 41 25<530 764> 146 60<571.392 716.081> 146 45<86.1616 164.399> 305 64<194.472 255.722 744.472 805.722> 382.001 20G<299.5 310.25 315.5 344 849.5 860.25 865.5 894> 404 20<376.059 526 928.417 1076> 424 20<205.672 365.802 755.672 915.802>
VStem: 44 35<193.812 260.5> 119 75<349.132 419.529> 322 82<88.5239 204.072> 669 75<349.133 419.53> 872 82<88.5239 204.072>
LayerCount: 2
Back
SplineSet
660 146 m 5
 556 146 494 180.054131054 432.974609375 263.688476562 c 5
 441.463867188 275.268554688 l 5
 469 238 522 206 578 206 c 5
 670 159 l 29
 660 146 l 5
844 395 m 5
 788 317 757 250 769 198 c 5
 747.877929688 170 714 146 660 146 c 5
 570 192 l 5
 578 206 l 5
 650 206 684.876267748 217.367139959 772 338 c 6
 798 374 l 6
 805 383 812 392 819 402 c 5
 844 402 l 5
 844 395 l 5
747 284.000976562 m 2
 811.584960938 368.000976562 l 1
 826 364 l 1
 867 299 l 1
 860 290.185546875 855 279.000976562 824 241.000976562 c 0
 774.905273438 180.8203125 726 146 660 146 c 3
 542 146 476 193 380 316.000976562 c 1
 366 364 l 1
 440 270 517.97265625 206.000976562 592 206.000976562 c 3
 652.075195312 206.000976562 698.500976562 220.921875 747 284.000976562 c 2
EndSplineSet
Fore
SplineSet
855 370.000976562 m 1xccf8
 846.388671875 360.329101562 831.364257812 336.807617188 822 329.000976562 c 1
 816 335.000976562 l 1
 796.696289062 319.913085938 774.17578125 305.000976562 753 305.000976562 c 3
 709 305.000976562 669 327.986328125 669 371.926757812 c 3
 669 412.024414062 704 444.000976562 775 444.000976562 c 3
 861 444.000976562 963 424.000976562 1084 424.000976562 c 1
 1076 404.000976562 l 1
 967 404.000976562 874 424.000976562 793 424.000976562 c 3
 757.973632812 424.000976562 744 407.922851562 744 394.000976562 c 3
 744 379.8359375 755.798828125 369.000976562 778.95703125 369.000976562 c 3
 804.110351562 369.000976562 830 377.000976562 869 402.000976562 c 1
 855 370.000976562 l 1xccf8
305 370 m 1
 296.388351207 360.328298249 281.364257812 336.806640625 272 329 c 1
 266 335 l 1
 246.696289062 319.912109375 224.175904016 305 203 305 c 3
 159 305 119 327.985351562 119 371.92578125 c 3
 119 412.0234375 154 444 225 444 c 3
 311 444 413 424 534 424 c 1xcdf8
 526 404 l 1xcef8
 417 404 324 424 243 424 c 3xcdf8
 207.973632812 424 194 407.921875 194 394 c 3
 194 379.834960938 205.798828125 369 228.95703125 369 c 3
 254.110351562 369 280 377 319 402 c 1
 305 370 l 1
530 41 m 25
 530 66 l 25
 764 66 l 25
 764 41 l 25
 530 41 l 25
951.390625 331 m 2
 1037 448 l 1
 1129 410 l 1
 1129 402 l 1
 1103 385 1045 309 1000 245 c 0
 964.061523438 193.887695312 954 153 954 107 c 3
 954 42 1020 -48 1237 -236 c 1
 1231 -242 l 1
 1164 -215 l 1
 1145 -194 1094.46679688 -138.545898438 1003 -45 c 0
 915 45 872 107 872 157 c 3
 872 210 900.014648438 260.787109375 951.390625 331 c 2
401.390243902 331 m 2
 487 448 l 1
 579 410 l 1
 579 402 l 1
 553 385 495 309 450 245 c 0
 414.061523438 193.887695312 404 153 404 107 c 3
 404 42 470 -48 687 -236 c 1
 681 -242 l 1
 614 -215 l 1
 595 -194 544.466796875 -138.545898438 453 -45 c 0
 365 45 322 107 322 157 c 3
 322 210 350.015055073 260.787241933 401.390243902 331 c 2
344 395 m 1
 288 317 257 250 269 198 c 1
 247.877929688 170 211 146 157 146 c 0
 92 146 44 193.846679688 44 248 c 3
 44 273 48 294 59 314 c 1
 163 284 l 1
 163 276 l 1
 100 240 79 224 79 211 c 3
 79 197 95 191 116 191 c 3xdcf8
 148 191 184 218 272 338 c 2
 298 374 l 2
 305 383 312 392 319 402 c 1
 344 402 l 1
 344 395 l 1
894 395 m 1
 838 317 807 250 819 198 c 1
 797.877929688 170 754 146 700 146 c 3
 596 146 536 165.934472934 442.974609375 273.688476562 c 1
 451.463867188 285.268554688 l 1
 495 238.657142857 562 206 618 206 c 3xecf8
 690 206 734.875976562 217.3671875 822 338 c 2
 848 374 l 2
 855 383 862 392 869 402 c 1
 894 402 l 1
 894 395 l 1
EndSplineSet
Substitution2: "fina-1" c_c.fina
Substitution2: "medi-1" c_c.medi
Substitution2: "init-1" c_c.init
Ligature2: "liga-1" c c
LCarets2: 1 0
EndChar
StartChar: c_h.fina
Encoding: 380 -1 159
Width: 810
Flags: W
HStem: 146 60<0 34.5344 161.122 226.252 368.147 533.408> 364 76<63.3429 334.303> 372 76<218.934 450.914> 407 77G<18 57 185.581 217 357 387 636.875 665>
VStem: 658 7<364.162 368>
LayerCount: 2
Fore
SplineSet
130 204 m 1x88
 107 167 66 146 0 146 c 1
 -68 186 l 1
 -68 206 l 1
 16 206 48 216 138 341 c 2
 200 427 l 1
 217 415 l 1
 192 383 l 1
 142 307 135 284 135 255 c 0
 135 226 149 206 176 206 c 0
 214 206 230.25 224 318 341 c 2
 372 413 l 1
 387 403 l 1
 374 380 l 1
 321 308 315 288 315 265 c 3
 315 230.635742188 351 212 448 212 c 1
 569 212 615.75 286 658 368 c 1
 665 368 l 1
 665 270.6953125 645.825195312 197.170898438 630.484375 170 c 1
 593.765625 146.494140625 538.178710938 142 486 142 c 0
 418.188476562 142 366.916992188 157.250976562 319 204 c 1
 296 167 265 146 222 146 c 0
 189 146 151 167 130 204 c 1x88
391.5 372 m 7xa8
 321.935546875 372 120.106445312 364 76 364 c 3xc8
 -7 364 -14 436 50 484 c 1
 57 484 l 1x98
 57 446 88.8642578125 440 122 440 c 3xc8
 187.03125 440 388 448 436 448 c 7
 519 448 526 376 462 328 c 5
 455 328 l 5
 455 366 431 372 391.5 372 c 7xa8
EndSplineSet
EndChar
StartChar: c_h
Encoding: 256 -1 23
Width: 810
Flags: W
HStem: 146 60<271.122 336.252 478.148 643.408> 146 45<74.5593 142.59> 364 76<173.343 444.303> 372 76<328.934 560.914> 464 20G<128 167 295.581 327 467 497 746.875 775>
VStem: 34 34.999<193.566 253.552> 768 7<364.162 368>
LayerCount: 2
Fore
SplineSet
501.5 372 m 7x1e
 431.935546875 372 230.106445312 364 186 364 c 3
 103 364 96 436 160 484 c 1
 167 484 l 1
 167 446 198.864257812 440 232 440 c 3x2e
 297.03125 440 498 448 546 448 c 7
 629 448 636 376 572 328 c 5
 565 328 l 5
 565 366 541 372 501.5 372 c 7x1e
140 146 m 0x4e
 73 146 34 203.584960938 34 241 c 3
 34 266.104492188 38 294.176757812 53 314 c 1
 153 284 l 1
 153.000976562 276 l 1
 90 240 68.9990234375 224.036132812 68.9990234375 211 c 3
 68.9990234375 196.966796875 84 191 100 191 c 3x4e
 122 191 153.918945312 210.5 248 341 c 2
 310 427 l 1
 327 415 l 1
 302 383 l 1
 252 307 245 284 245 255 c 0
 245 226 259 206 286 206 c 0
 324 206 340.25 224 428 341 c 2
 482 413 l 1
 497 403 l 1
 484 380 l 1
 431 308 425 288 425 265 c 3
 425 230.635742188 461 212 558 212 c 1
 679 212 725.75 286 768 368 c 1
 775 368 l 1
 775 270.6953125 755.825195312 197.170898438 740.484375 170 c 1
 703.765625 146.494140625 648.178710938 142 596 142 c 0
 528.188476562 142 476.917265757 157.251448042 429 204 c 1
 406 167 375 146 332 146 c 0x8e
 299 146 261 167 240 204 c 1
 211 165 190 146 140 146 c 0x4e
EndSplineSet
Substitution2: "fina-1" c_h.fina
Substitution2: "medi-1" c_h.medi
Substitution2: "init-1" c_h.init
LCarets2: 1 0
Ligature2: "liga-1" c h
EndChar
StartChar: c_h.medi
Encoding: 379 -1 158
Width: 560
Flags: W
HStem: 146 60<0 34.5344 161.122 226.252 376.403 492> 364 76<63.3429 334.303> 372 76<218.934 450.914> 407 77G<18 57 185.581 217 357 387>
LayerCount: 2
Fore
SplineSet
319 203.998046875 m 1x80
 296 167 265 146 222 146 c 0
 189 146 151 167 130 204 c 1
 107 167 66 146 0 146 c 1
 -68 186 l 1
 -68 206 l 1
 16 206 48 216 138 341 c 2
 200 427 l 1
 217 415 l 1
 192 383 l 1
 142 307 135 284 135 255 c 0
 135 226 149 206 176 206 c 0
 214 206 230.25 224 318 341 c 2
 372 413 l 1
 387 403 l 1
 374 380 l 1
 321 308 315 288 315 265 c 3
 315 231 387 205.998046875 492 205.998046875 c 1
 560 165.998046875 l 1
 560 145.998046875 l 1
 411 145.998046875 357 166.998046875 319 203.998046875 c 1x80
391.5 372 m 7xa0
 321.935546875 372 120.106445312 364 76 364 c 3xc0
 -7 364 -14 436 50 484 c 1
 57 484 l 1x90
 57 446 88.8642578125 440 122 440 c 3xc0
 187.03125 440 388 448 436 448 c 7
 519 448 526 376 462 328 c 5
 455 328 l 5
 455 366 431 372 391.5 372 c 7xa0
EndSplineSet
EndChar
StartChar: c_h_c_h.fina
Encoding: 482 -1 261
Width: 1270
Flags: W
HStem: 41 25<410 644> 146.003 60<0 34.5344 161.122 226.252 378.95 604.534 731.122 796.252 938.147 1103.41> 364 76<73.3429 338.725 633.343 904.303> 372 76<220.213 460.914 788.934 1020.91> 407 77G<28 67 185.581 217 357 387 588 627 755.581 787 927 957 1206.88 1235>
VStem: 1228 7<364.162 368>
LayerCount: 2
Fore
SplineSet
700 204 m 1xc4
 677 167 636 146 570 146 c 1
 502 186 l 1
 502 206 l 1
 586 206 618 216 708 341 c 2
 770 427 l 1
 787 415 l 1
 762 383 l 1
 712 307 705 284 705 255 c 0
 705 226 719 206 746 206 c 0
 784 206 800.25 224 888 341 c 2
 942 413 l 1
 957 403 l 1
 944 380 l 1
 891 308 885 288 885 265 c 3
 885 230.635742188 921 212 1018 212 c 1
 1139 212 1185.75 286 1228 368 c 1
 1235 368 l 1
 1235 270.6953125 1215.82519531 197.170898438 1200.484375 170 c 1
 1163.765625 146.494140625 1108.17871094 142 1056 142 c 0
 988.188476562 142 936.916992188 157.250976562 889 204 c 1
 866 167 835 146 792 146 c 0
 759 146 721 167 700 204 c 1xc4
961.5 372 m 3xd4
 891.935546875 372 690.106445312 364 646 364 c 3xe4
 563 364 556 436 620 484 c 1
 627 484 l 1xcc
 627 446 658.864257812 440 692 440 c 3xe4
 757.03125 440 958 448 1006 448 c 3
 1089 448 1096 376 1032 328 c 1
 1025 328 l 1
 1025 366 1001 372 961.5 372 c 3xd4
319 204.000976562 m 1
 296 167.002929688 265 146.002929688 222 146.002929688 c 0
 189 146.002929688 151 167.002929688 130 204.002929688 c 1
 107 167.002929688 66 146.002929688 0 146.002929688 c 1
 -68 186.002929688 l 1
 -68 206.002929688 l 1
 16 206.002929688 48 216.002929688 138 341.002929688 c 2
 200 427.002929688 l 1
 217 415.002929688 l 1
 192 383.002929688 l 1
 142 307.002929688 135 284.002929688 135 255.002929688 c 0
 135 226.002929688 149 206.002929688 176 206.002929688 c 0
 214 206.002929688 230.25 224.002929688 318 341.002929688 c 2
 372 413.002929688 l 1
 387 403.002929688 l 1
 374 380.002929688 l 1
 321 308.002929688 315 288.002929688 315 265.002929688 c 3
 315 231.002929688 397 206.000976562 502 206.000976562 c 1
 570 166.000976562 l 1
 570 146.000976562 l 1
 421 146.000976562 357 167.000976562 319 204.000976562 c 1
401.5 372 m 3xd4
 331.935546875 372 130.106445312 364 86 364 c 3xe4
 3 364 -4 436 60 484 c 1
 67 484 l 1xcc
 67 446 98.8642578125 440 132 440 c 3xe4
 197.03125 440 398 448 446 448 c 3
 529 448 536 376 472 328 c 1
 465 328 l 1
 465 366 441 372 401.5 372 c 3xd4
410 41 m 25
 410 66 l 25
 644 66 l 25
 644 41 l 25
 410 41 l 25
EndSplineSet
EndChar
StartChar: c_h_c_h
Encoding: 290 -1 69
Width: 1360
Flags: W
HStem: 41 25<500 734> 146 60<271.122 336.252 484.881 602.271 821.122 886.252 1028.15 1193.41> 146 45<74.5593 142.59> 364 76<173.343 444.303 723.343 994.303> 372 76<328.934 560.914 878.934 1110.91> 464 20G<128 167 295.581 327 467 497 678 717 845.581 877 1017 1047 1296.88 1325>
VStem: 34 34.999<193.566 253.552> 1318 7<364.162 368>
LayerCount: 2
Back
SplineSet
650 352 m 5
 630 321 617 288 617 265 c 7
 617 231 657 212 770 212 c 5
 891 212 938 286 980 368 c 5
 987 368 l 5
 987 271 967 197 952 170 c 5
 915 146 860 142 808 142 c 4
 719 142 659 157 611 204 c 5
 586 171 547 146 485 146 c 5
 394 198.000976562 l 5
 403 206 l 5
 472 206 525.118164062 230.915039062 602 338 c 6
 630 377 l 6
 659 418 695 444 730 444 c 7
 780 444 818 407 818 364 c 7
 818 318.485351562 783.889648438 283.927734375 739 283.927734375 c 7
 701.430664062 283.927734375 665.971679688 311.11328125 650 352 c 5
290 352 m 5
 270 321 257 288 257 265 c 7
 257 231 338 206 403 206 c 5
 496 153.999023438 l 5
 485 146 l 5
 366 146 299 157 251 204 c 5
 226 171 187 146 135 146 c 4
 61 146 14 196 14 248 c 7
 14 273 18 294 29 314 c 5
 133 284 l 5
 133 276 l 5
 70 240 49 224 49 211 c 7
 49 197 63 191 84 191 c 7
 113 191 165 231 242 338 c 6
 270 377 l 6
 299 418 335 444 370 444 c 7
 420 444 458 407 458 364 c 7
 458 318.485351562 423.889648438 283.927734375 379 283.927734375 c 7
 341.430664062 283.927734375 305.971679688 311.11328125 290 352 c 5
EndSplineSet
Fore
SplineSet
500 41 m 25x87
 500 66 l 25
 734 66 l 25
 734 41 l 25
 500 41 l 25x87
1051.5 372 m 7x8f
 981.935546875 372 780.106445312 364 736 364 c 3
 653 364 646 436 710 484 c 1
 717 484 l 1
 717 446 748.864257812 440 782 440 c 3x97
 847.03125 440 1048 448 1096 448 c 7
 1179 448 1186 376 1122 328 c 5
 1115 328 l 5
 1115 366 1091 372 1051.5 372 c 7x8f
668 146 m 1xa7
 591 191 l 1xa7
 598 206 l 1
 690 206 724.515658363 239.070106762 798 341 c 2
 860 427 l 1
 877 415 l 1
 852 383 l 1
 802 307 795 284 795 255 c 0
 795 226 809 206 836 206 c 0
 874 206 890.25 224 978 341 c 2
 1032 413 l 1
 1047 403 l 1
 1034 380 l 1
 981 308 975 288 975 265 c 3
 975 230.635742188 1011 212 1108 212 c 1
 1229 212 1275.75 286 1318 368 c 1
 1325 368 l 1
 1325 270.6953125 1305.82519531 197.170898438 1290.484375 170 c 1
 1253.765625 146.494140625 1198.17871094 142 1146 142 c 0
 1078.18847656 142 1026.91699219 157.250976562 979 204 c 1
 956 167 925 146 882 146 c 0xc7
 849 146 811 167 790 204 c 1
 761 165 718 146 668 146 c 1xa7
501.5 372 m 7x8f
 431.935546875 372 230.106445312 364 186 364 c 3
 103 364 96 436 160 484 c 1
 167 484 l 1
 167 446 198.864257812 440 232 440 c 3x97
 297.03125 440 498 448 546 448 c 7
 629 448 636 376 572 328 c 5
 565 328 l 5
 565 366 541 372 501.5 372 c 7x8f
140 146 m 0xa7
 73 146 34 203.584960938 34 241 c 3
 34 266.104492188 38 294.176757812 53 314 c 1
 153 284 l 1
 153.000976562 276 l 1
 90 240 68.9990234375 224.036132812 68.9990234375 211 c 3
 68.9990234375 196.966796875 84 191 100 191 c 3xa7
 122 191 153.918945312 210.5 248 341 c 2
 310 427 l 1
 327 415 l 1
 302 383 l 1
 252 307 245 284 245 255 c 0
 245 226 259 206 286 206 c 0
 324 206 340.25 224 428 341 c 2
 482 413 l 1
 497 403 l 1
 484 380 l 1
 431 308 425 288 425 265 c 3
 425 230.635742188 501 206 598 206 c 1xc7
 676 158 l 1
 668 146 l 1xa7
 536 146 476.917265757 157.251448042 429 204 c 1
 406 167 375 146 332 146 c 0xc7
 299 146 261 167 240 204 c 1
 211 165 190 146 140 146 c 0xa7
EndSplineSet
Substitution2: "fina-1" c_h_c_h.fina
Substitution2: "medi-1" c_h_c_h.medi
Substitution2: "init-1" c_h_c_h.init
Ligature2: "liga-1" c c_h
Ligature2: "liga-1" c h c h
Ligature2: "liga-1" c_h c_h
Ligature2: "liga-1" c c h
LCarets2: 3 0 0 0
EndChar
StartChar: c_h_c_h.medi
Encoding: 481 -1 260
Width: 1130
Flags: W
HStem: 41 25<410 644> 146.003 60<0 34.5344 161.122 226.252 378.95 604.534 731.122 796.252 946.403 1062> 364 76<73.3429 338.725 633.343 904.303> 372 76<220.213 460.914 788.934 1020.91> 407.003 76.9971G<28 67 185.581 217 357 387 588 627 755.581 787 927 957>
LayerCount: 2
Fore
SplineSet
319 204.000976562 m 1xc0
 296 167.002929688 265 146.002929688 222 146.002929688 c 0
 189 146.002929688 151 167.002929688 130 204.002929688 c 1
 107 167.002929688 66 146.002929688 0 146.002929688 c 1
 -68 186.002929688 l 1
 -68 206.002929688 l 1
 16 206.002929688 48 216.002929688 138 341.002929688 c 2
 200 427.002929688 l 1
 217 415.002929688 l 1
 192 383.002929688 l 1
 142 307.002929688 135 284.002929688 135 255.002929688 c 0
 135 226.002929688 149 206.002929688 176 206.002929688 c 0
 214 206.002929688 230.25 224.002929688 318 341.002929688 c 2
 372 413.002929688 l 1
 387 403.002929688 l 1
 374 380.002929688 l 1
 321 308.002929688 315 288.002929688 315 265.002929688 c 3
 315 231.002929688 397 206.000976562 502 206.000976562 c 1
 570 166.000976562 l 1
 570 146.000976562 l 1
 421 146.000976562 357 167.000976562 319 204.000976562 c 1xc0
401.5 372 m 3xd0
 331.935546875 372 130.106445312 364 86 364 c 3xe0
 3 364 -4 436 60 484 c 1
 67 484 l 1xc8
 67 446 98.8642578125 440 132 440 c 3xe0
 197.03125 440 398 448 446 448 c 3
 529 448 536 376 472 328 c 1
 465 328 l 1
 465 366 441 372 401.5 372 c 3xd0
889 203.998046875 m 1
 866 167 835 146 792 146 c 0
 759 146 721 167 700 204 c 1
 677 167 636 146 570 146 c 1
 502 186 l 1
 502 206 l 1
 586 206 618 216 708 341 c 2
 770 427 l 1
 787 415 l 1
 762 383 l 1
 712 307 705 284 705 255 c 0
 705 226 719 206 746 206 c 0
 784 206 800.25 224 888 341 c 2
 942 413 l 1
 957 403 l 1
 944 380 l 1
 891 308 885 288 885 265 c 3
 885 231 957 205.998046875 1062 205.998046875 c 1
 1130 165.998046875 l 1
 1130 145.998046875 l 1
 981 145.998046875 927 166.998046875 889 203.998046875 c 1
961.5 372 m 3xd0
 891.935546875 372 690.106445312 364 646 364 c 3xe0
 563 364 556 436 620 484 c 1
 627 484 l 1xc8
 627 446 658.864257812 440 692 440 c 3xe0
 757.03125 440 958 448 1006 448 c 3
 1089 448 1096 376 1032 328 c 1
 1025 328 l 1
 1025 366 1001 372 961.5 372 c 3xd0
410 41 m 25
 410 66 l 25
 644 66 l 25
 644 41 l 25
 410 41 l 25
EndSplineSet
EndChar
StartChar: c_y.fina
Encoding: 383 -1 162
Width: 510
Flags: W
HStem: 142 70<0 37.9321 192.775 363.955> 364 76<63.3429 169.575> 372 76<141.585 270.914> 464 20G<18 57 174.789 205 454.875 483>
VStem: 476 7<364.162 368>
LayerCount: 2
Fore
SplineSet
211.5 372 m 3xb8
 171.935546875 372 120.106445312 364 76 364 c 3
 -7 364 -14 436 50 484 c 1
 57 484 l 1
 57 446 88.8642578125 440 122 440 c 3xd8
 177.03125 440 208 448 256 448 c 3
 339 448 346 376 282 328 c 1
 275 328 l 1
 275 366 251 372 211.5 372 c 3xb8
136 342 m 2
 190 413 l 1
 205 403 l 1
 192 380 l 1
 138 312 133 288 133 265 c 3
 133 235.635742188 171 212 266 212 c 1
 387 212 433.75 286 476 368 c 1
 483 368 l 1
 483 270.6953125 463.825195312 197.170898438 448.484375 170 c 1
 411.196289062 146.129882812 355.146484375 142 302 142 c 0
 235.618164062 142 184.305664062 157.848632812 137 204 c 1
 114 167 66 146 0 146 c 1
 -68 186 l 1
 -68 206 l 1
 16 206 42.689453125 219.314453125 136 342 c 2
EndSplineSet
EndChar
StartChar: c_y
Encoding: 257 -1 24
Width: 620
Flags: W
HStem: 142 70<302.775 473.955> 146 45<76.5887 171.5> 364 76<173.343 278.769> 372 76<251.724 380.914> 464 20G<128 167 284.789 315 564.875 593>
VStem: 34 34.999<193.078 249.552> 586 7<364.162 368>
LayerCount: 2
Back
SplineSet
296 342 m 6
 350 413 l 5
 365 403 l 5
 352 380 l 5
 298 312 293 288 293 265 c 7
 293 235.635742188 331 206 426 206 c 5
 547 206 593.75 269 636 351 c 5
 643 351 l 5
 643 253.6953125 623.825195312 200.170898438 608.484375 173 c 5
 583.6875 157.125976562 530 146 498 146 c 13
 443 146 l 6
 391.154296875 146 338 164 297 204 c 5
 274 167 243 146 200 146 c 4
 123 146 74 203.584960938 74 237 c 7
 74 262.104492188 83 290.176757812 103 314 c 5
 203 284 l 5
 203.000976562 276 l 5
 140 240 118.999023438 224.036132812 118.999023438 211 c 7
 118.999023438 196.966796875 134 191 150 191 c 7
 172 191 208 225 296 342 c 6
EndSplineSet
Fore
SplineSet
321.5 372 m 3x1e
 281.935546875 372 230.106445312 364 186 364 c 3
 103 364 96 436 160 484 c 1
 167 484 l 1
 167 446 198.864257812 440 232 440 c 3x2e
 288.03125 440 318 448 366 448 c 3
 449 448 456 376 392 328 c 1
 385 328 l 1
 385 366 361 372 321.5 372 c 3x1e
246 342 m 2
 300 413 l 1
 315 403 l 1
 302 380 l 1
 248 312 243 288 243 265 c 3
 243 235.635742188 281 212 376 212 c 1
 497 212 543.75 286 586 368 c 1
 593 368 l 1
 593 270.6953125 573.825195312 197.170898438 558.484375 170 c 1
 521.196289062 146.129882812 465.146484375 142 412 142 c 0x8e
 345.618164062 142 294.305272373 157.848514758 247 204 c 1
 224 167 193 146 150 146 c 0
 73 146 34 203.584960938 34 237 c 3
 34 262.104492188 37 290.176757812 53 314 c 1
 153 284 l 1
 153.000976562 276 l 1
 90 240 68.9990234375 224.036132812 68.9990234375 211 c 3
 68.9990234375 196.966796875 84 191 100 191 c 3x4e
 122 191 158 225 246 342 c 2
EndSplineSet
Substitution2: "fina-1" c_y.fina
Substitution2: "medi-1" c_y.medi
Substitution2: "init-1" c_y.init
LCarets2: 1 0
Ligature2: "liga-1" c y
EndChar
StartChar: c_y.init
Encoding: 381 -1 160
Width: 490
Flags: W
HStem: 146 60<308.89 422> 146 45<76.5887 171.5> 364 76<173.343 279.575> 372 76<251.585 380.914> 393 91G<128 167 284.789 315>
VStem: 34 34.999<193.078 249.552>
LayerCount: 2
Fore
SplineSet
247 204 m 1x44
 224 167 193 146 150 146 c 0
 73 146 34 203.584960938 34 237 c 3
 34 262.104492188 37 290.176757812 53 314 c 1
 153 284 l 1
 153.000976562 276 l 1
 90 240 68.9990234375 224.036132812 68.9990234375 211 c 3
 68.9990234375 196.966796875 84 191 100 191 c 3x44
 122 191 158 225 246 342 c 2
 300 413 l 1
 315 403 l 1
 302 380 l 1
 248 312 243 288 243 265.001953125 c 3
 243 231.001953125 317 206 422 206 c 1x84
 490 166 l 1
 490 146 l 1
 351 146 285 167 247 204 c 1x44
321.5 372 m 7x14
 281.935546875 372 230.106445312 364 186 364 c 3x24
 103 364 96 436 160 484 c 1
 167 484 l 1x0c
 167 446 198.864257812 440 232 440 c 7x24
 287.03125 440 318 448 366 448 c 7
 449 448 456 376 392 328 c 5
 385 328 l 5
 385 366 361 372 321.5 372 c 7x14
EndSplineSet
EndChar
StartChar: c_y.medi
Encoding: 382 -1 161
Width: 380
Flags: W
HStem: 146 60<0 29.5924 195.586 311.997> 364 76<63.3429 169.575> 372 76<141.585 270.914> 393 91G<18 57 174.789 205>
LayerCount: 2
Fore
SplineSet
136.997070312 203.998046875 m 1x80
 114 167 66 146 0 146 c 1
 -68 186 l 1
 -68 206 l 1
 16 206 42.689453125 219.314453125 136 342 c 2
 190 413 l 1
 205 403 l 1
 192 380 l 1
 138 312 133 288 132.997070312 265 c 3
 132.997070312 231 206.997070312 205.998046875 311.997070312 205.998046875 c 1
 379.997070312 165.998046875 l 1
 379.997070312 145.998046875 l 1
 230.997070312 145.998046875 174.997070312 166.998046875 136.997070312 203.998046875 c 1x80
211.5 372 m 7xa0
 171.935546875 372 120.106445312 364 76 364 c 3xc0
 -7 364 -14 436 50 484 c 1
 57 484 l 1x90
 57 446 88.8642578125 440 122 440 c 7xc0
 177.03125 440 208 448 256 448 c 7
 339 448 346 376 282 328 c 5
 275 328 l 5
 275 366 251 372 211.5 372 c 7xa0
EndSplineSet
EndChar
StartChar: c_y_c_y.fina
Encoding: 485 -1 264
Width: 900
Flags: W
HStem: 41 25<220 454> 145.999 60<0 29.5924 195.586 409.59 565.013 732.017> 363.999 76<63.3429 169.575 443.34 549.572> 371.999 76<141.585 270.914 521.582 650.911> 463.997 20G<18 57 174.789 205 397.997 436.997 554.786 584.997 834.872 862.997>
VStem: 855.997 7<364.159 367.997>
LayerCount: 2
Fore
SplineSet
591.497070312 371.997070312 m 3xcc
 551.932617188 371.997070312 500.103515625 363.997070312 455.997070312 363.997070312 c 3
 372.997070312 363.997070312 365.997070312 435.997070312 429.997070312 483.997070312 c 1
 436.997070312 483.997070312 l 1
 436.997070312 445.997070312 468.861328125 439.997070312 501.997070312 439.997070312 c 3
 557.028320312 439.997070312 587.997070312 447.997070312 635.997070312 447.997070312 c 3
 718.997070312 447.997070312 725.997070312 375.997070312 661.997070312 327.997070312 c 1
 654.997070312 327.997070312 l 1
 654.997070312 365.997070312 630.997070312 371.997070312 591.497070312 371.997070312 c 3xcc
515.997070312 341.997070312 m 2
 569.997070312 412.997070312 l 1
 584.997070312 402.997070312 l 1
 571.997070312 379.997070312 l 1
 517.997070312 311.997070312 512.997070312 287.997070312 512.997070312 264.997070312 c 3
 512.997070312 235.6328125 550.997070312 211.997070312 645.997070312 211.997070312 c 1
 766.997070312 211.997070312 813.747070312 285.997070312 855.997070312 367.997070312 c 1
 862.997070312 367.997070312 l 1
 862.997070312 270.692382812 843.822265625 197.16796875 828.481445312 169.997070312 c 1
 791.193359375 146.126953125 735.143554688 141.997070312 681.997070312 141.997070312 c 0
 615.615234375 141.997070312 564.302734375 157.845703125 516.997070312 203.997070312 c 1
 493.997070312 166.997070312 445.997070312 145.997070312 379.997070312 145.997070312 c 1
 311.997070312 185.997070312 l 1
 311.997070312 205.997070312 l 1
 395.997070312 205.997070312 422.686523438 219.311523438 515.997070312 341.997070312 c 2
136.997070312 203.997070312 m 1
 114 166.999023438 66 145.999023438 0 145.999023438 c 1
 -68 185.999023438 l 1
 -68 205.999023438 l 1
 16 205.999023438 42.689453125 219.313476562 136 341.999023438 c 2
 190 412.999023438 l 1
 205 402.999023438 l 1
 192 379.999023438 l 1
 138 311.999023438 133 287.999023438 132.997070312 264.999023438 c 0
 132.997070312 230.999023438 206.997070312 205.997070312 311.997070312 205.997070312 c 1
 379.997070312 165.997070312 l 1
 379.997070312 145.997070312 l 1
 230.997070312 145.997070312 174.997070312 166.997070312 136.997070312 203.997070312 c 1
211.5 371.999023438 m 3xdc
 171.935546875 371.999023438 120.106445312 363.999023438 76 363.999023438 c 3
 -7 363.999023438 -14 435.999023438 50 483.999023438 c 1
 57 483.999023438 l 1
 57 445.999023438 88.8642578125 439.999023438 122 439.999023438 c 3xec
 177.03125 439.999023438 208 447.999023438 256 447.999023438 c 3
 339 447.999023438 346 375.999023438 282 327.999023438 c 1
 275 327.999023438 l 1
 275 365.999023438 251 371.999023438 211.5 371.999023438 c 3xdc
220 41 m 25
 220 66 l 25
 454 66 l 25
 454 41 l 25
 220 41 l 25
EndSplineSet
EndChar
StartChar: c_y_c_y
Encoding: 291 -1 70
Width: 990
Flags: W
HStem: 41 25<330 564> 142 70<320.881 512 672.758 843.908> 146 45<76.589 165.586> 364 76<173.351 279.646 543.351 649.646> 372 76<251.578 380.98 621.578 750.98> 464 20G<128 167 284.789 315 498 537 654.789 685 935 963>
VStem: 34 35<193.172 249.5> 956 7<364.162 368>
LayerCount: 2
Back
SplineSet
796 342 m 6
 850 413 l 5
 865 403 l 5
 852 380 l 5
 798 312 793 288 793 265 c 7
 793 236 831 212 926 212 c 5
 1047 212 1094 286 1136 368 c 5
 1143 368 l 5
 1143 271 1123 197 1108 170 c 5
 1071 146 1015 142 962 142 c 4
 896 142 844 158 797 204 c 5
 774 167 723 146 680 146 c 5
 590 191 l 5
 598 206 l 5
 692 206 720.1171875 242.227539062 796 342 c 6
426 342 m 6
 480 413 l 5
 495 403 l 5
 482 380 l 5
 428 312 423 288 423 265 c 7
 423 236 503 206 598 206 c 5
 690 160 l 5
 680 146 l 5
 556 146 474 158 427 204 c 5
 404 167 373 146 330 146 c 4
 253 146 214 204 214 237 c 7
 214 262 217 290 233 314 c 5
 333 284 l 5
 333 276 l 5
 270 240 249 224 249 211 c 7
 249 197 264 191 280 191 c 7
 302 191 338 225 426 342 c 6
EndSplineSet
Fore
SplineSet
330 41 m 25x87
 330 66 l 25
 564 66 l 25
 564 41 l 25
 330 41 l 25x87
692 372 m 3x8f
 652 372 600 364 556 364 c 3
 473 364 466 436 530 484 c 1
 537 484 l 1
 537 446 569 440 602 440 c 3x97
 657 440 688 448 736 448 c 3
 819 448 826 376 762 328 c 1
 755 328 l 1
 755 366 732 372 692 372 c 3x8f
616 342 m 2
 670 413 l 1
 685 403 l 1
 672 380 l 1
 618 312 613 288 613 265 c 3
 613 236 651 212 746 212 c 1
 867 212 914 286 956 368 c 1
 963 368 l 1
 963 271 943 197 928 170 c 1
 891 146 835 142 782 142 c 0xc7
 716 142 664 158 617 204 c 1
 594 167 543 146 500 146 c 1
 410 191 l 1xa7
 418 206 l 1
 512 206 540.117009751 242.227920228 616 342 c 2
322 372 m 3x8f
 282 372 230 364 186 364 c 3
 103 364 96 436 160 484 c 1
 167 484 l 1
 167 446 199 440 232 440 c 3x97
 287 440 318 448 366 448 c 3
 449 448 456 376 392 328 c 1
 385 328 l 1
 385 366 362 372 322 372 c 3x8f
246 342 m 2
 300 413 l 1
 315 403 l 1
 302 380 l 1
 248 312 243 288 243 265 c 3
 243 236 323 206 418 206 c 1
 510 160 l 1
 500 146 l 1
 376 146 294 158 247 204 c 1
 224 167 193 146 150 146 c 0
 73 146 34 204 34 237 c 3
 34 262 37 290 53 314 c 1
 153 284 l 1
 153 276 l 1
 90 240 69 224 69 211 c 3
 69 197 84 191 100 191 c 3xa7
 122 191 158 225 246 342 c 2
EndSplineSet
Substitution2: "fina-1" c_y_c_y.fina
Substitution2: "medi-1" c_y_c_y.medi
Substitution2: "init-1" c_y_c_y.init
LCarets2: 3 0 0 0
Ligature2: "liga-1" c c_y
Ligature2: "liga-1" c c y
Ligature2: "liga-1" c_y c_y
Ligature2: "liga-1" c y c y
EndChar
StartChar: c_y_c_y.init
Encoding: 483 -1 262
Width: 870
Flags: W
HStem: 41 25<330 564> 146 45<76.589 165.586> 146.003 60<306.427 519.592 685.586 801.997> 364 76<173.351 279.646 553.343 659.575> 372 76<251.578 380.98 631.585 760.914> 393.003 90.9971G<128 167 284.789 315 508 547 664.789 695>
VStem: 34 35<193.172 249.5>
LayerCount: 2
Fore
SplineSet
626.997070312 204.000976562 m 1xa2
 604 167.002929688 556 146.002929688 490 146.002929688 c 1
 422 186.002929688 l 1
 422 206.002929688 l 1
 506 206.002929688 532.689453125 219.317382812 626 342.002929688 c 2
 680 413.002929688 l 1
 695 403.002929688 l 1
 682 380.002929688 l 1
 628 312.002929688 623 288.002929688 622.997070312 265.002929688 c 0
 622.997070312 231.002929688 696.997070312 206.000976562 801.997070312 206.000976562 c 1
 869.997070312 166.000976562 l 1
 869.997070312 146.000976562 l 1
 720.997070312 146.000976562 664.997070312 167.000976562 626.997070312 204.000976562 c 1xa2
701.5 372.002929688 m 3
 661.935546875 372.002929688 610.106445312 364.002929688 566 364.002929688 c 3
 483 364.002929688 476 436.002929688 540 484.002929688 c 1
 547 484.002929688 l 1
 547 446.002929688 578.864257812 440.002929688 612 440.002929688 c 3
 667.03125 440.002929688 698 448.002929688 746 448.002929688 c 3
 829 448.002929688 836 376.002929688 772 328.002929688 c 1
 765 328.002929688 l 1
 765 366.002929688 741 372.002929688 701.5 372.002929688 c 3
330 41 m 25
 330 66 l 25
 564 66 l 25
 564 41 l 25
 330 41 l 25
322 372 m 3x8a
 282 372 230 364 186 364 c 3x92
 103 364 96 436 160 484 c 1
 167 484 l 1x86
 167 446 199 440 232 440 c 3x92
 287 440 318 448 366 448 c 3
 449 448 456 376 392 328 c 1
 385 328 l 1
 385 366 362 372 322 372 c 3x8a
246 342 m 2
 300 413 l 1
 315 403 l 1
 302 380 l 1
 248 312 243 288 243 265 c 3
 243 236 327 206.002929688 422 206.002929688 c 1
 510 160 l 1
 490 146.002929688 l 1xa2
 366 146.002929688 294 158 247 204 c 1
 224 167 193 146 150 146 c 0
 73 146 34 204 34 237 c 3
 34 262 37 290 53 314 c 1
 153 284 l 1
 153 276 l 1
 90 240 69 224 69 211 c 3
 69 197 84 191 100 191 c 3xc2
 122 191 158 225 246 342 c 2
EndSplineSet
EndChar
StartChar: c_y_c_y.medi
Encoding: 484 -1 263
Width: 760
Flags: W
HStem: 41 25<220 454> 145.999 60<0 29.5924 195.586 311.997 312 379.997 380 409.592 575.586 691.997> 363.999 76<63.3429 169.575 443.343 549.575> 371.999 76<141.585 270.914 521.585 650.914> 392.999 91G<18 57 174.789 205 398 437 554.789 585>
LayerCount: 2
Fore
SplineSet
136.997070312 203.997070312 m 1xc0
 114 166.999023438 66 145.999023438 0 145.999023438 c 1
 -68 185.999023438 l 1
 -68 205.999023438 l 1
 16 205.999023438 42.689453125 219.313476562 136 341.999023438 c 2
 190 412.999023438 l 1
 205 402.999023438 l 1
 192 379.999023438 l 1
 138 311.999023438 133 287.999023438 132.997070312 264.999023438 c 0
 132.997070312 230.999023438 206.997070312 205.997070312 311.997070312 205.997070312 c 1
 379.997070312 165.997070312 l 1
 379.997070312 145.997070312 l 1
 230.997070312 145.997070312 174.997070312 166.997070312 136.997070312 203.997070312 c 1xc0
211.5 371.999023438 m 3xd0
 171.935546875 371.999023438 120.106445312 363.999023438 76 363.999023438 c 3xe0
 -7 363.999023438 -14 435.999023438 50 483.999023438 c 1
 57 483.999023438 l 1xc8
 57 445.999023438 88.8642578125 439.999023438 122 439.999023438 c 3xe0
 177.03125 439.999023438 208 447.999023438 256 447.999023438 c 3
 339 447.999023438 346 375.999023438 282 327.999023438 c 1
 275 327.999023438 l 1
 275 365.999023438 251 371.999023438 211.5 371.999023438 c 3xd0
516.997070312 204.000976562 m 1
 494 167.002929688 446 146.002929688 380 146.002929688 c 1
 312 186.002929688 l 1
 312 206.002929688 l 1
 396 206.002929688 422.689453125 219.317382812 516 342.002929688 c 2
 570 413.002929688 l 1
 585 403.002929688 l 1
 572 380.002929688 l 1
 518 312.002929688 513 288.002929688 512.997070312 265.002929688 c 0
 512.997070312 231.002929688 586.997070312 206.000976562 691.997070312 206.000976562 c 1
 759.997070312 166.000976562 l 1
 759.997070312 146.000976562 l 1
 610.997070312 146.000976562 554.997070312 167.000976562 516.997070312 204.000976562 c 1
591.5 372.002929688 m 3
 551.935546875 372.002929688 500.106445312 364.002929688 456 364.002929688 c 3
 373 364.002929688 366 436.002929688 430 484.002929688 c 1
 437 484.002929688 l 1
 437 446.002929688 468.864257812 440.002929688 502 440.002929688 c 3
 557.03125 440.002929688 588 448.002929688 636 448.002929688 c 3
 719 448.002929688 726 376.002929688 662 328.002929688 c 1
 655 328.002929688 l 1
 655 366.002929688 631 372.002929688 591.5 372.002929688 c 3
220 41 m 25
 220 66 l 25
 454 66 l 25
 454 41 l 25
 220 41 l 25
EndSplineSet
EndChar
StartChar: d.fina
Encoding: 308 -1 87
Width: 390
Flags: W
HStem: 146 60<0 45.7415> 304 60<187.061 239.609> 452 20G<89 151.116>
VStem: 44 73<353.63 420> 237 68<196.803 304>
LayerCount: 2
Back
SplineSet
237 304 m 1
 116 304 45 358 45 420 c 3
 45 477 88 509 130 509 c 3
 171 509 211 480 241 447 c 1
 234 437 l 1
 224 442 207 446 185 446 c 3
 144 446 126 425 126 396 c 3
 126 365 152 336 237 324 c 1
 237 304 l 1
345 444 m 1
 345 402 345 388 345 354 c 3
 345 238 392 206.000976562 482 206.000976562 c 1
 550 165.99609375 l 1
 550 145.99609375 l 1
 357.936523438 146 277.005859375 196 277.000976562 344 c 2
 277 372 l 1
 250 368 226 366.092773438 193 366.092773438 c 3
 93.9775390625 366.092773438 17 421.9375 17 493.999023438 c 3
 17 563.0078125 64.9052734375 589 101 589 c 3
 145 589 149 566 184 527 c 1
 197 517 l 1
 187 521.772460938 170 526 148 526 c 3
 120 526 73 496.015625 73 464 c 3
 73 448.646484375 82.7431640625 439.999023438 114 439.999023438 c 3
 151 439.999023438 304 444 335 447 c 1
 345 444 l 1
-68 206 m 1
 38 206 88.580078125 240.20703125 166 342 c 2
 220 413 l 1
 241 404 l 1
 222 380 l 2
 169.088867188 313.1640625 154.174804688 261 161 216 c 1
 133 171 91 146 0 146 c 1
 -68 186 l 25
 -68 206 l 1
EndSplineSet
Fore
SplineSet
174 314 m 1
 101 320 44 352.99609375 44 400 c 3
 44 440 72 463 106 472 c 1
 203 429 l 1
 202 420 l 1
 145 401.950195312 117 382.026367188 117 368 c 3
 117 351 125 340 188 326 c 1
 174 314 l 1
295 367 m 5
 305 364 l 5
 305 240 l 6
 305 212.005859375 317 194 359 185 c 5
 359 178 l 5
 266 138 l 5
 248 149 237 162 237 195.64453125 c 5
 237 324 l 5
 295 367 l 5
135 314 m 0
 157 342 185 364 236 364 c 3
 255 364 278 361 305 354 c 1
 284 319 l 1
 237 304 l 1
 186 304 150 301 150 240 c 3
 150 227 151 219 151 213 c 1
 120 174 71 146 0 146 c 1
 -68 186 l 25
 -68 206 l 1
 18 206 52 211 135 314 c 0
EndSplineSet
EndChar
StartChar: d.init
Encoding: 306 -1 85
Width: 520
Flags: W
HStem: 146 60<410.542 452> 146 45<80.8439 171.5> 304 60<266.147 329.609> 452 20G<169 231.116>
VStem: 34 33<199.246 257.5> 124 73<353.63 420> 327 68<219.482 304>
LayerCount: 2
Back
SplineSet
-66 191 m 7
 -42 191 -9 215 82 338 c 6
 165 450 l 5
 263 407 l 5
 263 399 l 5
 244 385 229 373 218 365 c 4
 210 359 206 352 206 344 c 4
 206 327 345 283 345 213 c 7
 345 201 340 188 331 175 c 4
 318 156 290 146 259 146 c 4
 231 146 200 154 176 171 c 4
 124 207 125 241 137 259 c 4
 145 271 155 280 168 287 c 5
 245 258 l 5
 245 250 l 5
 217 233 196 215 188 204 c 4
 180 193 183 184 192 177 c 4
 206 168 231 174 261 217 c 4
 319 300 171 307 141 360 c 5
 113 321 90 274 102 211 c 5
 78 175 45 146 -15 146 c 4
 -89 146 -126 196 -126 248 c 7
 -126 273 -122 294 -111 314 c 5
 -7 284 l 5
 -7 276 l 5
 -70 240 -91 224 -91 211 c 7
 -91 197 -82 191 -66 191 c 7
327 304 m 1
 206 304 135 358 135 420 c 3
 135 477 178 509 220 509 c 3
 261 509 301 480 331 447 c 1
 324 437 l 1
 314 442 297 446 275 446 c 3
 234 446 216 425 216 396 c 3
 216 365 242 336 327 324 c 1
 327 304 l 1
385 367 m 1
 395 364 l 1
 395 322 395 308 395 274 c 3
 395 246 409 206 452 206 c 1
 520 166 l 1
 520 146 l 1
 374 146 327 224 327 274 c 2
 327 324 l 1
 385 367 l 1
247 204 m 1
 224 167 193 146 150 146 c 0
 73 146 34 212 34 245 c 3
 34 270 38 290 53 314 c 1
 153 284 l 1
 153 276 l 1
 90 240 67 224 67 211 c 3
 67 197 82 191 98 191 c 3
 117 191 142 211 225 314 c 0
 247 342 275 364 326 364 c 3
 345 364 368 361 395 354 c 1
 374 319 l 1
 327 304 l 1
 276 304 243 302 243 241 c 3
 243 228 245 215 247 204 c 1
415.000976562 447.000976562 m 1
 425.000976562 444.000976562 l 1
 425.000976562 402.000976562 425.000976562 388.000976562 425.000976562 354.000976562 c 3
 425.000976562 238.000976562 472.000976562 206.001953125 562.000976562 206.001953125 c 1
 630.000976562 165.997070312 l 1
 630.000976562 145.997070312 l 1
 437.9375 146.000976562 357.012277209 196.000070613 357.001953125 344.000976562 c 2
 357 372 l 1
 320 368 286 366.092773438 253 366.092773438 c 3
 109 366.092773438 37 421.937526257 37 493.999023438 c 3
 37 563.007245894 84.9052734375 589 121 589 c 3
 165 589 189 566 224 527 c 1
 217 517 l 1
 207 521.772460938 190 526 168 526 c 3
 140 526 93 496.015621187 93 464 c 3
 93 448.646484375 102.743164062 439.999023438 134 439.999023438 c 3
 182 439.999023438 384.000976562 444.000976562 415.000976562 447.000976562 c 1
247 204 m 1
 224 167 193 146 150 146 c 0
 73 146 34 211.584960938 34 245 c 3
 34 270.104492188 38 290.176757812 53 314 c 1
 153 284 l 1
 153.000976562 276 l 1
 90 240 66.9990234375 224.036132812 66.9990234375 211 c 3
 66.9990234375 196.966796875 82 191 98 191 c 3
 119 191 147.404296875 212.364257812 246 342 c 2
 300 413 l 1
 321 404 l 1
 302 380 l 2
 249.08842737 313.164329309 240.175182482 249 247 204 c 1
EndSplineSet
Fore
SplineSet
254 314 m 1x3e
 181 320 124 352.99609375 124 400 c 3
 124 440 152 463 186 472 c 1
 283 429 l 1
 282 420 l 1
 225 401.950195312 197 382.026367188 197 368 c 3
 197 351 205 340 268 326 c 1
 254 314 l 1x3e
385 367 m 1
 395 364 l 1
 395 322 395 308 395 274 c 3
 395 246 409 206 452 206 c 1xbe
 520 166 l 1
 520 146 l 1x7e
 374 146 327 224 327 274 c 2
 327 324 l 1
 385 367 l 1
247 204 m 5
 224 167 193 146 150 146 c 4
 73 146 34 212 34 245 c 7
 34 270 38 290 53 314 c 5
 153 284 l 5
 153 276 l 5
 90 240 67 224 67 211 c 7
 67 197 82 191 98 191 c 7x7e
 117 191 142 211 225 314 c 4
 247 342 275 364 326 364 c 7
 345 364 368 361 395 354 c 5
 374 319 l 5
 327 304 l 5
 276 304 243 302 243 241 c 7
 243 228 245 215 247 204 c 5
EndSplineSet
EndChar
StartChar: d.medi
Encoding: 307 -1 86
Width: 430
Flags: W
HStem: 146 60<0 45.7415 320.542 362> 304 60<187.061 239.609> 452 20G<89 151.116>
VStem: 44 73<353.63 420> 237 68<219.482 304>
LayerCount: 2
Back
SplineSet
237 304 m 1
 116 304 45 358 45 420 c 3
 45 477 88 509 130 509 c 3
 171 509 211 480 241 447 c 1
 234 437 l 1
 224 442 207 446 185 446 c 3
 144 446 126 425 126 396 c 3
 126 365 152 336 237 324 c 1
 237 304 l 1
EndSplineSet
Fore
SplineSet
174 314 m 1
 101 320 44 352.99609375 44 400 c 3
 44 440 72 463 106 472 c 1
 203 429 l 1
 202 420 l 1
 145 401.950195312 117 382.026367188 117 368 c 3
 117 351 125 340 188 326 c 1
 174 314 l 1
295 367 m 1
 305 364 l 1
 305 322 305 308 305 274 c 3
 305 246 319 206 362 206 c 1
 430 166 l 1
 430 146 l 1
 284 146 237 224 237 274 c 2
 237 324 l 1
 295 367 l 1
135 314 m 4
 157 342 185 364 236 364 c 7
 255 364 278 361 305 354 c 5
 284 319 l 5
 237 304 l 5
 186 304 150 301 150 240 c 7
 150 227 151 219 151 213 c 5
 120 174 71 146 0 146 c 5
 -68 186 l 29
 -68 206 l 5
 18 206 52 211 135 314 c 4
EndSplineSet
EndChar
StartChar: d_d
Encoding: 266 -1 44
Width: 910
Flags: W
HStem: 41 25<390 624> 146 60<410.542 565.741> 146 45<80.8439 164.371> 304 60<266.147 329.609 707.061 759.609> 452 20G<169 231.116 609 671.116>
VStem: 34 33<199.246 257.5> 124 73<353.63 420> 327 68<219.482 304> 564 73<353.63 420> 757 68<196.803 304>
LayerCount: 2
Back
SplineSet
546 204.999023438 m 5
 638 159.999023438 l 25
 628 145.999023438 l 1
 538 189.999023438 l 25
 546 204.999023438 l 5
EndSplineSet
Fore
SplineSet
694 314 m 5x9fc0
 621 320 564 352.99609375 564 400 c 7
 564 440 592 463 626 472 c 5
 723 429 l 5
 722 420 l 5
 665 401.950195312 637 382.026367188 637 368 c 7
 637 351 645 340 708 326 c 5
 694 314 l 5x9fc0
254 314 m 1
 181 320 124 352.99609375 124 400 c 3
 124 440 152 463 186 472 c 1
 283 429 l 1
 282 420 l 1
 225 401.950195312 197 382.026367188 197 368 c 3
 197 351 205 340 268 326 c 1
 254 314 l 1
815 367 m 1
 825 364 l 1
 825 240 l 2
 825 212.005859375 837 194 879 185 c 1
 879 178 l 1
 786 138 l 1
 768 149 757 162 757 195.64453125 c 1
 757 324 l 1
 815 367 l 1
655 314 m 0
 677 342 705 364 756 364 c 3
 775 364 798 361 825 354 c 1
 804 319 l 1
 757 304 l 1
 706 304 670 301 670 240 c 3
 670 227 671 219 671 213 c 1
 640 174 591 146 520 146 c 1
 452 186 l 25
 452 206 l 1xdfc0
 538 206 572 211 655 314 c 0
385 367 m 1
 395 364 l 1
 395 322 395 308 395 274 c 3
 395 246 409 206 452 206 c 1
 520 166 l 1
 520 146 l 1
 374 146 327 224 327 274 c 2
 327 324 l 1
 385 367 l 1
247 204 m 1
 224 167 193 146 150 146 c 0
 73 146 34 212 34 245 c 3
 34 270 38 290 53 314 c 1
 153 284 l 1
 153 276 l 1
 90 240 67 224 67 211 c 3
 67 197 82 191 98 191 c 3xbfc0
 117 191 142 211 225 314 c 0
 247 342 275 364 326 364 c 3
 345 364 368 361 395 354 c 1
 374 319 l 1
 327 304 l 1
 276 304 243 302 243 241 c 3
 243 228 245 215 247 204 c 1
390 41 m 25
 390 66 l 25
 624 66 l 25
 624 41 l 25
 390 41 l 25
EndSplineSet
Substitution2: "fina-1" d_d.fina
Substitution2: "medi-1" d_d.medi
Substitution2: "init-1" d_d.init
Ligature2: "liga-1" d d
LCarets2: 1 0
EndChar
StartChar: d_d.init
Encoding: 408 -1 187
Width: 950
Flags: W
HStem: 41 25<390 624> 146 60<410.542 565.741 840.542 882> 146 45<80.8439 164.371> 304 60<266.147 329.609 707.061 759.609> 452 20G<169 231.116 609 671.116>
VStem: 34 33<199.246 257.5> 124 73<353.63 420> 327 68<219.482 304> 564 73<353.63 420> 757 68<219.482 304>
LayerCount: 2
Fore
SplineSet
815 367 m 1xbfc0
 825 364 l 1
 825 322 825 308 825 274 c 3
 825 246 839 206 882 206 c 1xdfc0
 950 166 l 1
 950 146 l 1
 804 146 757 224 757 274 c 2
 757 324 l 1
 815 367 l 1xbfc0
694 314 m 1
 621 320 564 352.99609375 564 400 c 3
 564 440 592 463 626 472 c 1
 723 429 l 1
 722 420 l 1
 665 401.950195312 637 382.026367188 637 368 c 3
 637 351 645 340 708 326 c 1
 694 314 l 1
254 314 m 5
 181 320 124 352.99609375 124 400 c 7
 124 440 152 463 186 472 c 5
 283 429 l 5
 282 420 l 5
 225 401.950195312 197 382.026367188 197 368 c 7
 197 351 205 340 268 326 c 5
 254 314 l 5
655 314 m 0
 677 342 705 364 756 364 c 3
 775 364 798 361 825 354 c 1
 804 319 l 1
 757 304 l 1
 706 304 670 301 670 240 c 3
 670 227 671 219 671 213 c 1
 640 174 591 146 520 146 c 1
 452 186 l 25
 452 206 l 1
 538 206 572 211 655 314 c 0
385 367 m 1
 395 364 l 1
 395 322 395 308 395 274 c 3
 395 246 409 206 452 206 c 1
 520 166 l 1
 520 146 l 1
 374 146 327 224 327 274 c 2
 327 324 l 1
 385 367 l 1
247 204 m 1
 224 167 193 146 150 146 c 0
 73 146 34 212 34 245 c 3
 34 270 38 290 53 314 c 1
 153 284 l 1
 153 276 l 1
 90 240 67 224 67 211 c 3
 67 197 82 191 98 191 c 3xbfc0
 117 191 142 211 225 314 c 0
 247 342 275 364 326 364 c 3
 345 364 368 361 395 354 c 1
 374 319 l 1
 327 304 l 1
 276 304 243 302 243 241 c 3
 243 228 245 215 247 204 c 1
390 41 m 25
 390 66 l 25
 624 66 l 25
 624 41 l 25
 390 41 l 25
EndSplineSet
EndChar
StartChar: d_d.medi
Encoding: 409 -1 188
Width: 860
Flags: W
HStem: 41 25<300 534> 146 60<0 45.7415 320.542 475.741 750.542 792> 304 60<176.147 239.609 617.061 669.609> 452 20G<79 141.116 519 581.116>
VStem: 34 73<353.63 420> 237 68<219.482 304> 474 73<353.63 420> 667 68<219.482 304>
LayerCount: 2
Fore
SplineSet
135 314 m 0
 157 342 185 364 236 364 c 3
 255 364 278 361 305 354 c 1
 284 319 l 1
 237 304 l 1
 186 304 150 301 150 240 c 3
 150 227 151 219 151 213 c 1
 120 174 71 146 0 146 c 1
 -68 186 l 25
 -68 206 l 1
 18 206 52 211 135 314 c 0
725 367 m 1
 735 364 l 1
 735 322 735 308 735 274 c 3
 735 246 749 206 792 206 c 1
 860 166 l 1
 860 146 l 1
 714 146 667 224 667 274 c 2
 667 324 l 1
 725 367 l 1
604 314 m 1
 531 320 474 352.99609375 474 400 c 3
 474 440 502 463 536 472 c 1
 633 429 l 1
 632 420 l 1
 575 401.950195312 547 382.026367188 547 368 c 3
 547 351 555 340 618 326 c 1
 604 314 l 1
164 314 m 1
 91 320 34 352.99609375 34 400 c 3
 34 440 62 463 96 472 c 1
 193 429 l 1
 192 420 l 1
 135 401.950195312 107 382.026367188 107 368 c 3
 107 351 115 340 178 326 c 1
 164 314 l 1
565 314 m 0
 587 342 615 364 666 364 c 3
 685 364 708 361 735 354 c 1
 714 319 l 1
 667 304 l 1
 616 304 580 301 580 240 c 3
 580 227 581 219 581 213 c 1
 550 174 501 146 430 146 c 1
 362 186 l 25
 362 206 l 1
 448 206 482 211 565 314 c 0
295 367 m 1
 305 364 l 1
 305 322 305 308 305 274 c 3
 305 246 319 206 362 206 c 1
 430 166 l 1
 430 146 l 1
 284 146 237 224 237 274 c 2
 237 324 l 1
 295 367 l 1
300 41 m 25
 300 66 l 25
 534 66 l 25
 534 41 l 25
 300 41 l 25
EndSplineSet
EndChar
StartChar: d_y.fina
Encoding: 386 -1 165
Width: 550
Flags: W
HStem: 146 60<0 45.7415> 304 29<244 312> 344 20G<79 141.116 226 301 428.023 465>
VStem: 34 73<353.63 420> 244 68<183.416 333> 397 68<196.803 301.001>
LayerCount: 2
Fore
SplineSet
150 240 m 3
 150 227 151 219 151 213 c 1
 120 174 71 146 0 146 c 1
 -68 186 l 25
 -68 206 l 1
 18 206 52 211 135 314 c 0
 157 342 190 364 262 364 c 3
 340.000976562 364 397 360 455 360 c 1
 436 301.000976562 l 1
 390 301.000976562 307 304 245 304 c 1
 194 304 150 301 150 240 c 3
244 305 m 1
 244 333 l 1
 312 333 l 1
 312 267 l 1
 312 228 321 179 332 152 c 1
 322 138 l 1
 232 182 l 1
 243 212 244 254.892578125 244 305 c 1
455 367 m 5
 465 364 l 5
 465 240 l 6
 465 212.005859375 477 194 519 185 c 5
 519 178 l 5
 426 138 l 5
 408 149 397 162 397 195.64453125 c 5
 397 324 l 5
 455 367 l 5
164 314 m 1
 91 320 34 352.99609375 34 400 c 3
 34 440 62 463 96 472 c 1
 193 429 l 1
 192 420 l 1
 135 401.950195312 107 382.026367188 107 368 c 3
 107 351 115 340 178 326 c 1
 164 314 l 1
EndSplineSet
EndChar
StartChar: d_y
Encoding: 258 -1 27
Width: 640
Flags: W
HStem: 146 45<80.8439 171.5> 304 29<334 402> 347 17G<169 231.116 316 391 518.023 555>
VStem: 34 33<199.246 257.5> 124 73<353.63 420> 334 68<183.416 333> 487 68<196.803 301.001>
LayerCount: 2
Back
SplineSet
564.999023438 447 m 1
 574.999023438 444 l 1
 574.999023438 402 574.999023438 388 574.999023438 354 c 0
 574.999023438 240 l 1
 575.34375 212 586.999023438 194 628.999023438 185 c 1
 628.999023438 178 l 1
 535.999023438 138 l 1
 517.999023438 149 506.999023438 162 506.999023438 195.64453125 c 1
 506.999023438 372 l 1
 470 368 326 366.092773438 253 366.092773438 c 3
 109 366.092773438 37 421.937526257 37 493.999023438 c 3
 37 563.007245894 84.9052734375 589 121 589 c 3
 165 589 189 566 224 527 c 1
 217 517 l 1
 207 521.772460938 190 526 168 526 c 3
 140 526 93 496.015621187 93 464 c 3
 93 448.646484375 102.743164062 439.999023438 134 439.999023438 c 3
 242.010415537 439.999023438 533.999023438 444 564.999023438 447 c 1
346 305 m 5
 346 403 l 5
 414 403 l 5
 414 267 l 5
 414 228 423 179 434 152 c 5
 424 138 l 5
 334 182 l 5
 345 212 346 254.892578125 346 305 c 5
247 204 m 1
 224 167 193 146 150 146 c 0
 73 146 34 212 34 245 c 3
 34 270 38 290 53 314 c 1
 153 284 l 1
 153 276 l 1
 90 240 67 224 67 211 c 3
 67 197 82 191 98 191 c 3
 119 191 147 212 246 342 c 2
 300 413 l 1
 321 404 l 1
 302 380 l 2
 249 313 240 249 247 204 c 1
EndSplineSet
Fore
SplineSet
334 305 m 1
 334 333 l 1
 402 333 l 1
 402 267 l 1
 402 228 411 179 422 152 c 1
 412 138 l 1
 322 182 l 1
 333 212 334 254.892578125 334 305 c 1
545 367 m 1
 555 364 l 1
 555 240 l 2
 555 212.005859375 567 194 609 185 c 1
 609 178 l 1
 516 138 l 1
 498 149 487 162 487 195.64453125 c 1
 487 324 l 1
 545 367 l 1
254 314 m 1
 181 320 124 352.99609375 124 400 c 3
 124 440 152 463 186 472 c 1
 283 429 l 1
 282 420 l 1
 225 401.950195312 197 382.026367188 197 368 c 3
 197 351 205 340 268 326 c 1
 254 314 l 1
247 204 m 1
 224 167 193 146 150 146 c 0
 73 146 34 212 34 245 c 3
 34 270 38 290 53 314 c 1
 153 284 l 1
 153 276 l 1
 90 240 67 224 67 211 c 3
 67 197 82 191 98 191 c 3
 117 191 143.274561374 209.985805385 225 314 c 0
 247 342 280 364 352 364 c 3
 430.000976562 364 487 360 545 360 c 1
 526 301.000976562 l 1
 480 301.000976562 397 304 335 304 c 1
 284 304 243 302 243 241 c 3
 243 228 245 215 247 204 c 1
EndSplineSet
Substitution2: "fina-1" d_y.fina
Substitution2: "medi-1" d_y.medi
Substitution2: "init-1" d_y.init
Ligature2: "liga-1" d y
LCarets2: 1 0
EndChar
StartChar: d_y.init
Encoding: 384 -1 163
Width: 680
Flags: W
HStem: 146 60<570.542 612> 146 45<80.8439 171.5> 304 29<334 402> 347 17G<169 231.116 316 391 518.023 555>
VStem: 34 33<199.246 257.5> 124 73<353.63 420> 334 68<183.416 333> 487 68<219.482 301.001>
LayerCount: 2
Fore
SplineSet
545 367 m 5x7f
 555 364 l 5
 555 322 555 308 555 274 c 7
 555 246 569 206 612 206 c 5xbf
 680 166 l 5
 680 146 l 5
 534 146 487 224 487 274 c 6
 487 324 l 5
 545 367 l 5x7f
334 305 m 1
 334 333 l 1
 402 333 l 1
 402 267 l 1
 402 228 411 179 422 152 c 1
 412 138 l 1
 322 182 l 1
 333 212 334 254.892578125 334 305 c 1
254 314 m 1
 181 320 124 352.99609375 124 400 c 3
 124 440 152 463 186 472 c 1
 283 429 l 1
 282 420 l 1
 225 401.950195312 197 382.026367188 197 368 c 3
 197 351 205 340 268 326 c 1
 254 314 l 1
247 204 m 1
 224 167 193 146 150 146 c 0
 73 146 34 212 34 245 c 3
 34 270 38 290 53 314 c 1
 153 284 l 1
 153 276 l 1
 90 240 67 224 67 211 c 3
 67 197 82 191 98 191 c 3x7f
 117 191 143.274561374 209.985805385 225 314 c 0
 247 342 280 364 352 364 c 3
 430.000976562 364 487 360 545 360 c 1
 526 301.000976562 l 1
 480 301.000976562 397 304 335 304 c 1
 284 304 243 302 243 241 c 3
 243 228 245 215 247 204 c 1
EndSplineSet
EndChar
StartChar: d_y.medi
Encoding: 385 -1 164
Width: 590
Flags: W
HStem: 146 60<0 45.7415 480.542 522> 304 29<244 312> 346.999 17.001G<79 141.116 226 301 428.023 465>
VStem: 34 73<353.63 420> 244 68<183.416 333> 397 68<219.481 301.001>
LayerCount: 2
Fore
SplineSet
455 366.999023438 m 5
 465 363.999023438 l 5
 465 321.999023438 465 307.999023438 465 273.999023438 c 7
 465 245.999023438 479 205.999023438 522 205.999023438 c 5
 590 165.999023438 l 5
 590 145.999023438 l 5
 444 145.999023438 397 223.999023438 397 273.999023438 c 6
 397 323.999023438 l 5
 455 366.999023438 l 5
150 240 m 3
 150 227 151 219 151 213 c 1
 120 174 71 146 0 146 c 1
 -68 186 l 25
 -68 206 l 1
 18 206 52 211 135 314 c 0
 157 342 190 364 262 364 c 3
 340.000976562 364 397 360 455 360 c 1
 436 301.000976562 l 1
 390 301.000976562 307 304 245 304 c 1
 194 304 150 301 150 240 c 3
244 305 m 1
 244 333 l 1
 312 333 l 1
 312 267 l 1
 312 228 321 179 332 152 c 1
 322 138 l 1
 232 182 l 1
 243 212 244 254.892578125 244 305 c 1
164 314 m 1
 91 320 34 352.99609375 34 400 c 3
 34 440 62 463 96 472 c 1
 193 429 l 1
 192 420 l 1
 135 401.950195312 107 382.026367188 107 368 c 3
 107 351 115 340 178 326 c 1
 164 314 l 1
EndSplineSet
EndChar
StartChar: d_y_d_y
Encoding: 292 -1 71
Width: 1230
Flags: W
HStem: 41 25<550 784> 146 60<570.542 725.741> 146 45<80.8439 165.489> 304 29<334 402 924 992> 343.999 20G<169 231.116 316 391 518.023 555 759 821.116 906 981 1108.02 1145>
VStem: 34 33<199.246 257.5> 124 73<353.63 420> 334 68<183.416 333> 487 68<219.482 301.001> 714 73<353.629 416.667> 924 68<183.415 332.999> 1077 68<196.802 301>
LayerCount: 2
Fore
SplineSet
830 239.999023438 m 3x9ff0
 830 226.999023438 831 218.999023438 831 212.999023438 c 1
 800 173.999023438 751 145.999023438 680 145.999023438 c 1
 612 185.999023438 l 25
 612 205.999023438 l 1
 698 205.999023438 732 210.999023438 815 313.999023438 c 0
 837 341.999023438 870 363.999023438 942 363.999023438 c 3
 1020.00097656 363.999023438 1077 359.999023438 1135 359.999023438 c 1
 1116 301 l 1
 1070 301 987 303.999023438 925 303.999023438 c 1
 874 303.999023438 830 300.999023438 830 239.999023438 c 3x9ff0
924 304.999023438 m 1
 924 332.999023438 l 1
 992 332.999023438 l 1
 992 266.999023438 l 1
 992 227.999023438 1001 178.999023438 1012 151.999023438 c 1
 1002 137.999023438 l 1
 912 181.999023438 l 1
 923 211.999023438 924 254.891601562 924 304.999023438 c 1
1135 366.999023438 m 1
 1145 363.999023438 l 1
 1145 239.999023438 l 2
 1145 212.004882812 1157 193.999023438 1199 184.999023438 c 1
 1199 177.999023438 l 1
 1106 137.999023438 l 1
 1088 148.999023438 1077 161.999023438 1077 195.643554688 c 1
 1077 323.999023438 l 1
 1135 366.999023438 l 1
844 313.999023438 m 1
 771 319.999023438 714 352.995117188 714 399.999023438 c 3
 714 439.999023438 742 462.999023438 776 471.999023438 c 1
 873 428.999023438 l 1
 872 419.999023438 l 1
 815 401.94921875 787 382.025390625 787 367.999023438 c 3
 787 350.999023438 795 339.999023438 858 325.999023438 c 1
 844 313.999023438 l 1
545 367 m 1
 555 364 l 1
 555 322 555 308 555 274 c 3
 555 246 569 206 612 206 c 1
 680 166 l 1
 680 146 l 1xdff0
 534 146 487 224 487 274 c 2
 487 324 l 1
 545 367 l 1
334 305 m 1
 334 333 l 1
 402 333 l 1
 402 267 l 1
 402 228 411 179 422 152 c 1
 412 138 l 1
 322 182 l 1
 333 212 334 254.892578125 334 305 c 1
254 314 m 5
 181 320 124 352.99609375 124 400 c 7
 124 440 152 463 186 472 c 5
 283 429 l 5
 282 420 l 5
 225 401.950195312 197 382.026367188 197 368 c 7
 197 351 205 340 268 326 c 5
 254 314 l 5
247 204 m 5
 224 167 193 146 150 146 c 4
 73 146 34 212 34 245 c 7
 34 270 38 290 53 314 c 5
 153 284 l 5
 153 276 l 5
 90 240 67 224 67 211 c 7
 67 197 82 191 98 191 c 7xbff0
 117 191 143.274561374 209.985805385 225 314 c 4
 247 342 280 364 352 364 c 7
 430.000976562 364 487 360 545 360 c 5
 526 301.000976562 l 5
 480 301.000976562 397 304 335 304 c 5
 284 304 243 302 243 241 c 7
 243 228 245 215 247 204 c 5
550 41 m 25
 550 66 l 25
 784 66 l 25
 784 41 l 25
 550 41 l 25
EndSplineSet
Substitution2: "fina-1" d_y_d_y.fina
Substitution2: "medi-1" d_y_d_y.medi
Substitution2: "init-1" d_y_d_y.init
Ligature2: "liga-1" d y d y
Ligature2: "liga-1" d_y d_y
Ligature2: "liga-1" d d y
Ligature2: "liga-1" d d_y
LCarets2: 3 0 0 0
EndChar
StartChar: d_y_d_y.init
Encoding: 486 -1 265
Width: 1270
Flags: W
HStem: 41 25<550 784> 145.999 60<570.542 725.741 1160.54 1202> 146 45<80.8439 165.489> 304 29<334 402 924 992> 346.999 17.001G<169 231.116 316 391 518.023 555 759 821.116 906 981 1108.02 1145>
VStem: 34 33<199.246 257.5> 124 73<353.63 420> 334 68<183.416 333> 487 68<219.482 301.001> 714 73<353.629 416.667> 924 68<183.415 332.999> 1077 68<219.481 301>
LayerCount: 2
Fore
SplineSet
1135 366.999023438 m 1x9ff0
 1145 363.999023438 l 1
 1145 321.999023438 1145 307.999023438 1145 273.999023438 c 3
 1145 245.999023438 1159 205.999023438 1202 205.999023438 c 1
 1270 165.999023438 l 1
 1270 145.999023438 l 1
 1124 145.999023438 1077 223.999023438 1077 273.999023438 c 2
 1077 323.999023438 l 1
 1135 366.999023438 l 1x9ff0
830 239.999023438 m 3
 830 226.999023438 831 218.999023438 831 212.999023438 c 1
 800 173.999023438 751 145.999023438 680 145.999023438 c 1
 612 185.999023438 l 25
 612 205.999023438 l 1xdff0
 698 205.999023438 732 210.999023438 815 313.999023438 c 0
 837 341.999023438 870 363.999023438 942 363.999023438 c 3
 1020.00097656 363.999023438 1077 359.999023438 1135 359.999023438 c 1
 1116 301 l 1
 1070 301 987 303.999023438 925 303.999023438 c 1
 874 303.999023438 830 300.999023438 830 239.999023438 c 3
924 304.999023438 m 1
 924 332.999023438 l 1
 992 332.999023438 l 1
 992 266.999023438 l 1
 992 227.999023438 1001 178.999023438 1012 151.999023438 c 1
 1002 137.999023438 l 1
 912 181.999023438 l 1
 923 211.999023438 924 254.891601562 924 304.999023438 c 1
844 313.999023438 m 1
 771 319.999023438 714 352.995117188 714 399.999023438 c 3
 714 439.999023438 742 462.999023438 776 471.999023438 c 1
 873 428.999023438 l 1
 872 419.999023438 l 1
 815 401.94921875 787 382.025390625 787 367.999023438 c 3
 787 350.999023438 795 339.999023438 858 325.999023438 c 1
 844 313.999023438 l 1
545 367 m 1
 555 364 l 1
 555 322 555 308 555 274 c 3
 555 246 569 206 612 206 c 1
 680 166 l 1
 680 146 l 1xbff0
 534 146 487 224 487 274 c 2
 487 324 l 1
 545 367 l 1
334 305 m 1
 334 333 l 1
 402 333 l 1
 402 267 l 1
 402 228 411 179 422 152 c 1
 412 138 l 1
 322 182 l 1
 333 212 334 254.892578125 334 305 c 1
254 314 m 1
 181 320 124 352.99609375 124 400 c 3
 124 440 152 463 186 472 c 1
 283 429 l 1
 282 420 l 1
 225 401.950195312 197 382.026367188 197 368 c 3
 197 351 205 340 268 326 c 1
 254 314 l 1
247 204 m 1
 224 167 193 146 150 146 c 0
 73 146 34 212 34 245 c 3
 34 270 38 290 53 314 c 1
 153 284 l 1
 153 276 l 1
 90 240 67 224 67 211 c 3
 67 197 82 191 98 191 c 3
 117 191 143.274561374 209.985805385 225 314 c 0
 247 342 280 364 352 364 c 3
 430.000976562 364 487 360 545 360 c 1
 526 301.000976562 l 1
 480 301.000976562 397 304 335 304 c 1
 284 304 243 302 243 241 c 3
 243 228 245 215 247 204 c 1
550 41 m 25
 550 66 l 25
 784 66 l 25
 784 41 l 25
 550 41 l 25
EndSplineSet
EndChar
StartChar: d_y_d_y.medi
Encoding: 487 -1 266
Width: 1180
Flags: W
HStem: 41 25<460 694> 146 60<0.000976562 45.7424 480.542 635.741 1070.54 1112> 304 29<244 312 834 902> 344 20G<79.001 141.117 226.001 301.001 428.023 465 669 731.116 816 891 1018.02 1055>
VStem: 34.001 73<353.63 420> 244 68<183.416 333> 397 68<219.482 301.001> 624 73<353.629 416.667> 834 68<183.415 332.999> 987 68<219.481 301>
LayerCount: 2
Fore
SplineSet
150.000976562 240 m 3
 150.000976562 227 151.000976562 219 151.000976562 213 c 1
 120.000976562 174 71.0009765625 146 0.0009765625 146 c 1
 -67.9990234375 186 l 25
 -67.9990234375 206 l 1
 18.0009765625 206 52.0009765625 211 135.000976562 314 c 0
 157.000976562 342 190.000976562 364 262.000976562 364 c 3
 340.001953125 364 397.000976562 360 455.000976562 360 c 1
 436.000976562 301.000976562 l 1
 390.000976562 301.000976562 307.000976562 304 245.000976562 304 c 1
 194.000976562 304 150.000976562 301 150.000976562 240 c 3
164.000976562 314 m 1
 91.0009765625 320 34.0009765625 352.99609375 34.0009765625 400 c 3
 34.0009765625 440 62.0009765625 463 96.0009765625 472 c 1
 193.000976562 429 l 1
 192.000976562 420 l 1
 135.000976562 401.950195312 107.000976562 382.026367188 107.000976562 368 c 3
 107.000976562 351 115.000976562 340 178.000976562 326 c 1
 164.000976562 314 l 1
1045 366.999023438 m 1
 1055 363.999023438 l 1
 1055 321.999023438 1055 307.999023438 1055 273.999023438 c 3
 1055 245.999023438 1069 205.999023438 1112 205.999023438 c 1
 1180 165.999023438 l 1
 1180 145.999023438 l 1
 1034 145.999023438 987 223.999023438 987 273.999023438 c 2
 987 323.999023438 l 1
 1045 366.999023438 l 1
740 239.999023438 m 3
 740 226.999023438 741 218.999023438 741 212.999023438 c 1
 710 173.999023438 661 145.999023438 590 145.999023438 c 1
 522 185.999023438 l 25
 522 205.999023438 l 1
 608 205.999023438 642 210.999023438 725 313.999023438 c 0
 747 341.999023438 780 363.999023438 852 363.999023438 c 3
 930.000976562 363.999023438 987 359.999023438 1045 359.999023438 c 1
 1026 301 l 1
 980 301 897 303.999023438 835 303.999023438 c 1
 784 303.999023438 740 300.999023438 740 239.999023438 c 3
834 304.999023438 m 1
 834 332.999023438 l 1
 902 332.999023438 l 1
 902 266.999023438 l 1
 902 227.999023438 911 178.999023438 922 151.999023438 c 1
 912 137.999023438 l 1
 822 181.999023438 l 1
 833 211.999023438 834 254.891601562 834 304.999023438 c 1
754 313.999023438 m 1
 681 319.999023438 624 352.995117188 624 399.999023438 c 3
 624 439.999023438 652 462.999023438 686 471.999023438 c 1
 783 428.999023438 l 1
 782 419.999023438 l 1
 725 401.94921875 697 382.025390625 697 367.999023438 c 3
 697 350.999023438 705 339.999023438 768 325.999023438 c 1
 754 313.999023438 l 1
455 367 m 1
 465 364 l 1
 465 322 465 308 465 274 c 3
 465 246 479 206 522 206 c 1
 590 166 l 1
 590 146 l 1
 444 146 397 224 397 274 c 2
 397 324 l 1
 455 367 l 1
244 305 m 1
 244 333 l 1
 312 333 l 1
 312 267 l 1
 312 228 321 179 332 152 c 1
 322 138 l 1
 232 182 l 1
 243 212 244 254.892578125 244 305 c 1
460 41 m 25
 460 66 l 25
 694 66 l 25
 694 41 l 25
 460 41 l 25
EndSplineSet
EndChar
StartChar: d_z.fina.desc
Encoding: 520 -1 302
Width: 700
Flags: W
HStem: -242 21G<331.37 387> 146 68<281.524 515.645> 146 60<0 19.2865> 349 20G<125.706 189.421>
VStem: 41 59<63.3047 160.292>
LayerCount: 2
Fore
SplineSet
81 251 m 1x98
 155 245 l 1
 102 176 100 153 100 107 c 3
 100 42 170 -48 387 -236 c 1
 381 -242 l 1
 314 -215 l 1
 295 -194 244 -139 153 -45 c 0
 65 45 41 87 41 132 c 3
 41 181 60 220 81 251 c 1x98
0 146 m 1xb8
 -68 186 l 1
 -68 206 l 1
 -11 206 26 218 76 284 c 2
 141 369 l 1
 233 331 l 1
 233 323 l 1
 207 306 181 279 155 245 c 0
 102 176 57 146 0 146 c 1xb8
140.719726562 -8 m 5
 134.719726562 -14 l 5
 84.7197265625 53 l 5
 197 196 257 214 375 214 c 0
 507 214 612 159 665 98 c 1
 662 72 646 27 614 -15 c 0
 568.272844607 -75.016891453 481 -75 426 -55 c 0
 373 -36 326 17 367 71 c 0
 402 117 461 112 509 95 c 1
 506 81 l 1
 489 80 468 73 445 42 c 0
 425 15 406 -29 440 -43 c 0
 483 -61 515.295688336 -17.2266810364 539 14 c 0
 573.918803419 60 591 102.256410256 592 124 c 1
 559 136 497 146 410 146 c 0xd8
 307 146 247.674804688 133 140.719726562 -8 c 5
EndSplineSet
EndChar
StartChar: d_z.fina
Encoding: 389 -1 168
Width: 560
Flags: W
HStem: 142 70<0 15.3393 177.389 450.758> 325 76<343.11 422.313> 680 20G<324 385.778> 680 20G<324 385.778>
VStem: 282 57<276.611 353.006>
LayerCount: 2
Fore
SplineSet
318 142 m 3xe8
 229 142 168 156.258789062 120 203.258789062 c 1
 96.4658203125 171.931640625 56 146 0 146 c 1
 -68 186 l 1
 -68 206 l 1
 -28 206 24.8759765625 217.3671875 112 338 c 2
 138 374 l 2
 219.26953125 486.52734375 310 646 338 700 c 1
 424 664 l 1
 424 656 l 1
 373 618 298.83984375 549.120117188 232 460 c 2
 226 452 l 2
 150.16015625 350.879882812 130 295 130 265 c 3
 130 231 167 212 280 212 c 3
 413.19140625 212 508.748046875 238 481.916015625 284 c 0
 465 313 419.692382812 325 385 325 c 3
 356 325 339 309 339 286 c 3
 339 264.973632812 350 249 369 240 c 1
 365 233 l 1
 320 255 282 286.297851562 282 332 c 3
 282 374.012695312 308.642578125 401 354 401 c 3
 428.005859375 401 517.106445312 316 536 193.000976562 c 1
 506 146 400.966796875 142 318 142 c 3xe8
EndSplineSet
Substitution2: "desc-1" d_z.fina.desc
EndChar
StartChar: d_z
Encoding: 259 -1 37
Width: 710
Flags: W
HStem: 142 70<327.389 600.759> 146 45<79.0733 181.371> 325 76<493.11 572.313> 680 20G<474 535.778> 680 20G<474 535.778>
VStem: 34 35<194.911 260.5> 432 57<276.611 353.006>
LayerCount: 2
Back
SplineSet
661 179 m 5
 616 146 557.041276588 142 468 142 c 7
 379 142 318 156.258789062 270 203.258789062 c 5
 246.465820312 171.931640625 207.741382748 146 155 146 c 4
 81 146 34 196 34 248 c 7
 34 273 38 294 49 314 c 5
 153 284 l 5
 153 276 l 5
 90 240 69 224 69 211 c 7
 69 197 83 191 104 191 c 7
 133 191 174.876267748 217.367139959 262 338 c 6
 288 374 l 6
 369.269776876 486.527383367 460 646 488 700 c 5
 574 664 l 5
 574 656 l 5
 523 618 448.84 549.12 382 460 c 6
 376 452 l 6
 300.16 350.88 280 295 280 265 c 7
 280 231 317 212 430 212 c 7
 535.206054688 212 584 218 632 241 c 5
 610 319.139648438 551 345 519 345 c 7
 491 345 469 333 469 306 c 7
 469 288.973632812 474 271.206054688 496 251 c 5
 483 239.642578125 l 5
 443 279.357421875 419 299.297851562 419 338 c 7
 419 377.012695312 444.642578125 408 496 408 c 7
 570.005859375 408 666 284 666 193.000976562 c 5
 661 179 l 5
104 191 m 3
 133 191 174 218 262 338 c 2
 288 374 l 2
 370 486 460 646 488 700 c 1
 574 664 l 1
 574 656 l 1
 523 618 449 549 382 460 c 2
 376 452 l 2
 300 351 268 284 282 222 c 1
 261 183 218 146 155 146 c 0
 81 146 34 196 34 248 c 3
 34 273 38 294 49 314 c 1
 153 284 l 1
 153 276 l 1
 90 240 69 224 69 211 c 3
 69 197 83 191 104 191 c 3
EndSplineSet
Fore
SplineSet
468 142 m 7xb6
 379 142 318 156.258789062 270 203.258789062 c 5
 246.465820312 171.931640625 207.741382748 146 155 146 c 4
 81 146 34 196 34 248 c 7
 34 273 38 294 49 314 c 5
 153 284 l 5
 153 276 l 5
 90 240 69 224 69 211 c 7
 69 197 83 191 104 191 c 7x66
 133 191 174.876267748 217.367139959 262 338 c 6
 288 374 l 6
 369.269776876 486.527383367 460 646 488 700 c 5
 574 664 l 5
 574 656 l 5
 523 618 448.84 549.12 382 460 c 6
 376 452 l 6
 300.16 350.88 280 295 280 265 c 7
 280 231 317 212 430 212 c 7
 563.191797318 212 658.748316272 238 631.916015625 284 c 4
 615 313 569.692382812 325 535 325 c 7
 506 325 489 309 489 286 c 7
 489 264.973632812 500 249 519 240 c 5
 515 233 l 5
 470 255 432 286.297851562 432 332 c 7
 432 374.012695312 458.642578125 401 504 401 c 7
 578.005859375 401 667.106918239 316 686 193.000976562 c 5
 656 146 550.966901222 142 468 142 c 7xb6
EndSplineSet
Substitution2: "fina-1" d_z.fina
Substitution2: "medi-1" d_z.medi
Substitution2: "init-1" d_z.init
LCarets2: 1 0
Ligature2: "liga-1" d z
EndChar
StartChar: d_z.init
Encoding: 387 -1 166
Width: 450
Flags: W
HStem: 146 60<344.912 382> 146 45<79.0733 186.5> 680 20G<474 535.778> 680 20G<474 535.778>
VStem: 34 35<194.911 260.5>
LayerCount: 2
Fore
SplineSet
450 146 m 1x48
 354 146 296.559322034 191 263 235 c 1
 274 248 l 1
 295 224 343 206 382 206 c 1x88
 450 166 l 1
 450 146 l 1x48
104 191 m 3x68
 133 191 174 218 262 338 c 2
 288 374 l 2
 370 486 460 646 488 700 c 1
 574 664 l 1
 574 656 l 1
 523 618 449 549 382 460 c 2
 376 452 l 2
 300 351 268 284 282 222 c 1
 261 183 218 146 155 146 c 0
 81 146 34 196 34 248 c 3
 34 273 38 294 49 314 c 1
 153 284 l 1
 153 276 l 1
 90 240 69 224 69 211 c 3
 69 197 83 191 104 191 c 3x68
EndSplineSet
EndChar
StartChar: d_z.medi.desc
Encoding: 519 -1 301
Width: 400
Flags: W
HStem: -242 21G<331.37 387> 146 60<0 19.2865 292.277 332> 349 20G<125.706 189.421>
VStem: 41 59<63.3047 160.292>
LayerCount: 2
Fore
SplineSet
400 146 m 1
 290 146 220.76 194 150 316 c 1
 163.000976562 330 l 1
 206.455078125 260 257 206 332 206 c 1
 400 166.000976562 l 25
 400 146 l 1
0 146 m 1
 -68 186 l 1
 -68 206 l 1
 -11 206 26 218 76 284 c 2
 141 369 l 1
 233 331 l 1
 233 323 l 1
 207 306 181 279 155 245 c 0
 102 176 57 146 0 146 c 1
81 251 m 1
 155 245 l 1
 102 176 100 153 100 107 c 3
 100 42 170 -48 387 -236 c 1
 381 -242 l 1
 314 -215 l 1
 295 -194 244 -139 153 -45 c 0
 65 45 41 87 41 132 c 3
 41 181 60 220 81 251 c 1
EndSplineSet
EndChar
StartChar: d_z.medi
Encoding: 388 -1 167
Width: 300
Flags: W
HStem: 146 60<0 5.86419 194.911 231.999> 680 20G<324 385.778> 680 20G<324 385.778>
LayerCount: 2
Fore
SplineSet
-68 206 m 1xc0
 -27 206 24.8759765625 217.3671875 112 338 c 2
 138 374 l 2
 220 486 310 646 338 700 c 1
 424 664 l 1
 424 656 l 1
 373 618 299 549 232 460 c 2
 226 452 l 2
 150 351 118 284 132 222 c 1
 111.791992188 181 63 146 0 146 c 1
 -68 186 l 25
 -68 206 l 1xc0
299.999023438 145.999023438 m 5
 203.999023438 145.999023438 146.55859375 190.999023438 112.999023438 234.999023438 c 5
 123.999023438 247.999023438 l 5
 144.999023438 223.999023438 192.999023438 205.999023438 231.999023438 205.999023438 c 5
 299.999023438 165.999023438 l 5
 299.999023438 145.999023438 l 5
EndSplineSet
Substitution2: "desc-1" d_z.medi.desc
EndChar
StartChar: d_z_d_z.fina
Encoding: 491 -1 270
Width: 810
Flags: W
HStem: 41 25<130 364> 146 60<0 45.7415 194.333 270.96 419.421 682.598> 304.001 60<176.419 383.679> 325 76<593.11 672.313> 472 208G<79 141.116 574 635.778> 680 20G<574 635.778>
VStem: 34 73<353.63 420> 532 57<276.611 353.006>
LayerCount: 2
Fore
SplineSet
269 146 m 0xd7
 215 146 150.52734375 186 113 247 c 1
 121 258 l 1
 156 216 184 206 218 206 c 3
 256.052734375 206 283.091796875 228.7421875 362 338 c 2
 388 374 l 2
 469.26953125 486.52734375 560 646 588 700 c 1
 674 664 l 1
 674 656 l 1
 623 618 548.83984375 549.120117188 482 460 c 2
 476 452 l 2
 400.16015625 350.879882812 380 295 380 265 c 3
 380 231 417 212 530 212 c 3
 663.19140625 212 758.748046875 238 731.916015625 284 c 0
 715 313 669.692382812 325 635 325 c 3
 606 325 589 309 589 286 c 3
 589 264.973632812 600 249 619 240 c 1
 615 233 l 1
 570 255 532 286.297851562 532 332 c 3
 532 374.012695312 558.642578125 401 604 401 c 3
 678.005859375 401 767.106445312 316 786 193.000976562 c 1
 756 146 650.966796875 142 568 142 c 3
 479 142 418 156.258789062 370 203.258789062 c 1
 346.465820312 171.931640625 316 146 269 146 c 0xd7
245 304.000976562 m 1xe3
 194 304 150 301 150 240 c 3
 150 227 151 219 151 213 c 1
 120 174 71 146 0 146 c 1
 -68 186 l 25
 -68 206 l 1
 18 206 52 211 135 314.000976562 c 0
 157 342.000976562 190 364.000976562 262 364.000976562 c 3
 293 364.000976562 356 360.000976562 395 360.000976562 c 1
 376 301.001953125 l 1
 338 301.001953125 278 304.000976562 245 304.000976562 c 1xe3
164 314 m 1
 91 320 34 352.99609375 34 400 c 3
 34 440 62 463 96 472 c 1xcb
 193 429 l 1
 192 420 l 1
 135 401.950195312 107 382.026367188 107 368 c 3
 107 351 115 340 178 326 c 1
 164 314 l 1
130 41 m 25
 130 66 l 25
 364 66 l 25
 364 41 l 25
 130 41 l 25
EndSplineSet
EndChar
